<?xml version="1.0" encoding="utf-8"?>
<!-- Generator: Adobe Illustrator 24.3.0, SVG Export Plug-In . SVG Version: 6.00 Build 0)  -->
<svg version="1.1" id="Layer_1" xmlns="http://www.w3.org/2000/svg" xmlns:xlink="http://www.w3.org/1999/xlink" x="0px" y="0px"
	 viewBox="0 0 290.98 259.24" style="enable-background:new 0 0 290.98 259.24;" xml:space="preserve">
<style type="text/css">
	.st0{fill:#FDC940;}
	.st1{fill:#343D3A;}
	.st2{fill:url(#SVGID_1_);}
	.st3{fill:url(#SVGID_2_);}
	.st4{filter:url(#Adobe_OpacityMaskFilter);}
	.st5{opacity:0.34;mask:url(#SVGID_3_);}
	.st6{fill:#403F3F;}
	.st7{fill:url(#SVGID_4_);}
	.st8{fill:url(#SVGID_5_);}
	.st9{fill:#FFFFFF;}
	.st10{fill:url(#SVGID_6_);}
	.st11{fill:url(#SVGID_7_);}
	.st12{fill:#FFC504;}
	.st13{fill:url(#SVGID_8_);}
	.st14{fill:url(#SVGID_9_);}
	.st15{filter:url(#Adobe_OpacityMaskFilter_1_);}
	.st16{opacity:0.34;mask:url(#SVGID_10_);}
	.st17{fill:url(#SVGID_11_);}
	.st18{fill:url(#SVGID_12_);}
	.st19{fill:url(#SVGID_13_);}
	.st20{fill:url(#SVGID_14_);}
	.st21{fill:url(#SVGID_15_);}
	.st22{fill:url(#SVGID_16_);}
	.st23{filter:url(#Adobe_OpacityMaskFilter_2_);}
	.st24{opacity:0.34;mask:url(#SVGID_17_);}
	.st25{fill:url(#SVGID_18_);}
	.st26{fill:url(#SVGID_19_);}
	.st27{fill:url(#SVGID_20_);}
	.st28{fill:url(#SVGID_21_);}
	.st29{fill:none;stroke:#FFFFFF;stroke-width:1.5;stroke-miterlimit:10;}
	.st30{fill:#D1D3D4;}
</style>
<g>
	<path d="M0,121.48c9.01,2.91,17.46,6.06,26.15,8.31c6.95,1.8,14.16,2.68,21.3,3.64c4.52,0.61,8.15-1.08,10.9-5.05
		c7.34-10.62,17.33-17.51,29.83-20.99c4.25-1.18,8.2-3.41,12.32-5.07c2.55-1.03,5.13-2,7.75-2.85c3.93-1.27,7.58-0.44,10.82,2.01
		c3.13,2.37,6.1,4.96,9.25,7.3c4.54,3.37,9.55,4.86,15.34,5.27c10.12,0.71,17.88-2.88,24.61-10.11c5.37-5.77,9.76-5.95,16.92-2.68
		c5.27,2.41,10.83,4.31,16.43,5.84c12.48,3.43,22.53,10.21,29.99,20.76c2.99,4.23,6.93,5.99,12.03,5.57
		c15.39-1.29,30.03-5.4,44.16-11.49c0.95-0.41,1.92-0.76,3.14-1.25c0,3.68,0.16,7.07-0.04,10.44c-0.3,5.03-3.7,8.54-8.9,9.32
		c-6.4,0.96-12.81,1.9-19.24,2.67c-5.27,0.63-8.81,3.08-10.56,8.25c-1.32,3.91-2.88,7.77-4.73,11.46c-2.34,4.65-1.8,8.71,1.32,12.74
		c4.03,5.21,7.93,10.51,11.86,15.8c3.62,4.87,3.29,9.69-1.01,14.03c-7.49,7.55-15,15.06-22.55,22.55
		c-4.29,4.26-9.12,4.65-14.04,1.07c-5.5-3.99-10.93-8.08-16.34-12.2c-3.66-2.78-7.42-3.16-11.62-1.23
		c-4.14,1.9-8.37,3.63-12.64,5.21c-4.45,1.65-6.89,4.69-7.5,9.36c-0.85,6.42-1.75,12.83-2.69,19.23c-1.01,6.9-4.41,9.84-11.34,9.84
		c-10.31,0.01-20.62,0.02-30.93,0c-6.79-0.01-10.21-2.93-11.21-9.63c-0.94-6.3-1.88-12.6-2.64-18.92c-0.61-5.07-3.13-8.31-8-10.02
		c-4.2-1.47-8.3-3.24-12.34-5.11c-4.09-1.89-7.79-1.51-11.34,1.16c-5.26,3.96-10.52,7.92-15.8,11.85
		c-5.63,4.19-10.3,3.83-15.27-1.13c-7.29-7.29-14.59-14.57-21.87-21.87c-4.39-4.4-4.78-9.26-1.09-14.27
		c4.09-5.56,8.19-11.11,12.35-16.6c2.65-3.5,2.87-7.12,1.11-11.06c-1.85-4.17-3.72-8.34-5.26-12.63c-1.61-4.48-4.6-7-9.23-7.67
		c-6.51-0.94-13.03-1.89-19.55-2.76c-6.49-0.86-9.77-4.51-9.8-11.11C-0.01,126.8,0,124.16,0,121.48z"/>
	<g>
		<path class="st12" d="M183.92,49.89c-2.42,20.96-8.39,39.49-25.81,52.22c-9.34,6.83-19.13,6.38-27.67-1.26
			c-11.35-10.15-19.79-22.32-22.18-37.67c-0.99-6.31-0.85-12.91-0.38-19.31c0.51-6.95,1.24-14.05,3.22-20.68
			c4.22-14.1,16.61-22.71,31.38-23.15c9.28-0.28,17.98,1.33,25.59,6.96c6.61,4.88,10.77,11.53,12.35,19.47
			C181.99,34.35,182.83,42.39,183.92,49.89z"/>
		<path class="st12" d="M195.07,48.74c0.96-5.09,1.64-10.25,2.93-15.25c3.53-13.67,12.85-18.73,26.56-17.92
			c12.29,0.73,18.94,6.51,22.16,18.37c4.76,17.54,1.76,33.47-10.15,47.39c-8.79,10.27-20.15,10.24-28.86-0.1
			C199.86,71.93,195.46,61.21,195.07,48.74z"/>
		<path class="st12" d="M94.95,49.01c-1.23,15.65-6.1,27.31-16.68,36.11c-5.84,4.86-12.5,5.17-18.86,1.01
			c-8.25-5.41-12.71-13.52-15.39-22.69c-3.18-10.85-3.75-21.78,0.5-32.49c4.45-11.21,13.53-16.46,26.11-15.45
			c12,0.96,19.5,7.39,22.05,19.32C93.83,40.19,94.43,45.67,94.95,49.01z"/>
		<path class="st12" d="M2.33,114.88c4.13-10.36,10.16-18.74,20.48-23.06c6.64-2.78,13.57-4.89,20.38-7.26
			c3.04-1.05,5.54,0.1,7.97,1.92c2.71,2.03,5.47,4.05,8.41,5.71c5.6,3.16,11.38,3.02,17.07,0.09c1.6-0.82,3.11-1.83,4.62-2.81
			c3.14-2.05,5.85-5.95,9.96-4.85c5.57,1.49,10.95,3.85,16.2,6.29c2.15,1,1.41,2.98-0.59,3.8c-4.4,1.8-8.81,3.67-13.36,5.02
			c-12.1,3.6-23.78,7.96-33,17.06c-2.03,2.01-4.08,4.1-5.65,6.46c-2.25,3.39-5.14,4.27-9.01,3.81
			c-13.69-1.65-26.84-5.25-39.57-10.48C4.98,116.06,3.75,115.5,2.33,114.88z"/>
		<path class="st12" d="M288.21,115.28c-7.78,2.66-15.26,5.66-22.98,7.74c-6.94,1.87-14.15,2.73-21.24,4.03
			c-3.26,0.59-5.93-0.55-7.87-3.1c-10-13.12-23.56-20.33-39.24-24.39c-5.1-1.32-9.93-3.68-14.84-5.66
			c-0.64-0.26-1.54-1.21-1.44-1.67c0.14-0.72,0.91-1.57,1.62-1.86c4.61-1.89,9.35-3.5,13.91-5.49c3.52-1.53,6.17-0.52,9.08,1.59
			c3.67,2.65,7.47,5.35,11.63,7.01c6.76,2.71,13.35,0.54,18.4-3.97c6.19-5.54,12.39-5.47,19.42-2.69c6.98,2.76,14.4,4.51,20.36,9.47
			C280.95,101.23,284.99,107.45,288.21,115.28z"/>
	</g>
</g>
</svg>
