<?xml version="1.0" encoding="utf-8"?>
<!-- Generator: Adobe Illustrator 24.3.0, SVG Export Plug-In . SVG Version: 6.00 Build 0)  -->
<svg version="1.1" id="Layer_1" xmlns="http://www.w3.org/2000/svg" xmlns:xlink="http://www.w3.org/1999/xlink" x="0px" y="0px"
	 viewBox="0 0 285.06 285.47" style="enable-background:new 0 0 285.06 285.47;" xml:space="preserve">
<style type="text/css">
	.st0{fill:#FDC940;}
	.st1{fill:#343D3A;}
	.st2{fill:url(#SVGID_1_);}
	.st3{fill:url(#SVGID_2_);}
	.st4{filter:url(#Adobe_OpacityMaskFilter);}
	.st5{opacity:0.34;mask:url(#SVGID_3_);}
	.st6{fill:#403F3F;}
	.st7{fill:url(#SVGID_4_);}
	.st8{fill:url(#SVGID_5_);}
	.st9{fill:#FFFFFF;}
	.st10{fill:url(#SVGID_6_);}
	.st11{fill:url(#SVGID_7_);}
	.st12{fill:#FFC504;}
	.st13{fill:url(#SVGID_8_);}
	.st14{fill:url(#SVGID_9_);}
	.st15{filter:url(#Adobe_OpacityMaskFilter_1_);}
	.st16{opacity:0.34;mask:url(#SVGID_10_);}
	.st17{fill:url(#SVGID_11_);}
	.st18{fill:url(#SVGID_12_);}
	.st19{fill:url(#SVGID_13_);}
	.st20{fill:url(#SVGID_14_);}
	.st21{fill:url(#SVGID_15_);}
	.st22{fill:url(#SVGID_16_);}
	.st23{filter:url(#Adobe_OpacityMaskFilter_2_);}
	.st24{opacity:0.34;mask:url(#SVGID_17_);}
	.st25{fill:url(#SVGID_18_);}
	.st26{fill:url(#SVGID_19_);}
	.st27{fill:url(#SVGID_20_);}
	.st28{fill:url(#SVGID_21_);}
	.st29{fill:none;stroke:#FFFFFF;stroke-width:1.5;stroke-miterlimit:10;}
	.st30{fill:#D1D3D4;}
</style>
<g>
	<path class="st12" d="M113.76,126.9c3.31-0.72,5.65-1.36,8.03-1.73c8.59-1.33,17.19-2.58,26.93-4.02
		c1.46,8.86,2.77,17.58,4.35,26.26c1.69,9.23,3.73,10.04,11.71,5.02c0.46-0.29,0.87-0.84,1.34-0.9c9.54-1.13,19.13-3.3,28.63-2.94
		c7.8,0.3,9.98-0.38,8.79-8.38c-0.64-4.3-1.38-8.58-2.02-12.88c-0.64-4.29-1.21-8.59-1.96-13.97c11.49-1.83,22.87-3.63,35.19-5.59
		c6.02,38.94,11.92,77.13,17.93,115.99c-26.2,4.08-51.48,7.52-76.52,12.16c-10,1.85-16,1.29-20.33-9.6
		c-4.12-10.36-13.91-16.24-24.49-20.25c-2.53-0.96-5.79-3.69-6.19-6.03C121.09,175.96,117.55,151.77,113.76,126.9z M240.8,215.45
		c-0.45-3.67-0.79-6.46-1.22-10c-3.71,0.53-6.7,0.95-10.14,1.44c0.7,3.63,1.24,6.4,1.84,9.52
		C234.39,216.1,236.97,215.84,240.8,215.45z M221.22,218.38c-1.03-4.13-1.72-6.89-2.49-9.95c-3.37,0.63-6.16,1.16-9.55,1.79
		c0.67,3.33,1.23,6.11,1.9,9.43C214.48,219.23,217.3,218.88,221.22,218.38z M190.43,223.04c3.83-0.72,6.77-1.27,10.08-1.89
		c-0.64-3.73-1.11-6.5-1.67-9.78c-3.48,0.74-6.24,1.32-9.32,1.97C189.81,216.45,190.05,219.05,190.43,223.04z"/>
	<path d="M152.45,249.56c0.12,19.96-15.63,35.87-35.54,35.91c-19.88,0.04-35.81-15.93-35.72-35.81c0.09-19.63,15.61-35.24,35.2-35.4
		C136.5,214.09,152.33,229.59,152.45,249.56z M116.77,270.13c11.16,0.03,20.39-8.96,20.57-20.03c0.19-11.26-9.51-20.93-20.79-20.74
		c-11.1,0.19-20.05,9.39-20,20.56C96.59,261.15,105.54,270.1,116.77,270.13z"/>
	<path d="M114.56,203.7c-3.27,0.46-5.9,0.84-9.38,1.33c-2.85-18-5.7-35.62-8.43-53.26C89.98,108,83.3,64.22,76.5,20.46
		c-1.71-10.97-2.58-11.43-13.91-9.49c-2.38,0.41-4.77,0.7-7.71,1.12c-0.64-3.21-1.2-6.02-1.93-9.67c4.82-0.79,9.29-1.72,13.81-2.21
		c11.17-1.23,17.13,2.87,18.91,14.08c9.76,61.72,19.29,123.48,28.88,185.23C114.71,200.56,114.56,201.65,114.56,203.7z"/>
	<path d="M162.99,258.34c-1.76-7.94,0.79-10.65,8.28-11.72c33.65-4.79,67.2-10.32,100.79-15.57c1.88-0.29,3.99-1.06,5.63-0.51
		c2.62,0.87,4.93,2.66,7.37,4.07c-2.11,1.97-3.97,5.24-6.37,5.7c-12.55,2.4-25.23,4.06-37.87,6.01
		C215.02,250.29,189.23,254.29,162.99,258.34z"/>
	<path class="st12" d="M189.25,114.74c1.13,7.28,2.13,13.65,3.36,21.56c-10,1.62-19.79,3.2-30.07,4.86
		c-1.17-7.43-2.2-14.01-3.38-21.51C169.16,118.02,178.68,116.46,189.25,114.74z"/>
	<path d="M1.9,20.67c-0.72-3.71-1.22-6.33-1.9-9.82c14.21-2.36,27.98-4.64,42.29-7.01c0.77,3.18,1.45,5.96,2.4,9.9
		C30.13,16.1,16.16,18.36,1.9,20.67z"/>
	<path d="M127.06,250.1c-0.17,5.52-5.25,10.24-10.69,9.94c-5.49-0.3-10.31-5.49-9.67-10.88c0.7-5.89,4.37-9.2,10.22-9.48
		C122.47,239.4,127.23,244.55,127.06,250.1z"/>
</g>
</svg>
