<?xml version="1.0" encoding="utf-8"?>
<!-- Generator: Adobe Illustrator 24.3.0, SVG Export Plug-In . SVG Version: 6.00 Build 0)  -->
<svg version="1.1" id="Layer_1" xmlns="http://www.w3.org/2000/svg" xmlns:xlink="http://www.w3.org/1999/xlink" x="0px" y="0px"
	 viewBox="0 0 276.2 239.53" style="enable-background:new 0 0 276.2 239.53;" xml:space="preserve">
<style type="text/css">
	.st0{fill:#FDC940;}
	.st1{fill:#343D3A;}
	.st2{fill:url(#SVGID_1_);}
	.st3{fill:url(#SVGID_2_);}
	.st4{filter:url(#Adobe_OpacityMaskFilter);}
	.st5{opacity:0.34;mask:url(#SVGID_3_);}
	.st6{fill:#403F3F;}
	.st7{fill:url(#SVGID_4_);}
	.st8{fill:url(#SVGID_5_);}
	.st9{fill:#FFFFFF;}
	.st10{fill:url(#SVGID_6_);}
	.st11{fill:url(#SVGID_7_);}
	.st12{fill:#FFC504;}
	.st13{fill:url(#SVGID_8_);}
	.st14{fill:url(#SVGID_9_);}
	.st15{filter:url(#Adobe_OpacityMaskFilter_1_);}
	.st16{opacity:0.34;mask:url(#SVGID_10_);}
	.st17{fill:url(#SVGID_11_);}
	.st18{fill:url(#SVGID_12_);}
	.st19{fill:url(#SVGID_13_);}
	.st20{fill:url(#SVGID_14_);}
	.st21{fill:url(#SVGID_15_);}
	.st22{fill:url(#SVGID_16_);}
	.st23{filter:url(#Adobe_OpacityMaskFilter_2_);}
	.st24{opacity:0.34;mask:url(#SVGID_17_);}
	.st25{fill:url(#SVGID_18_);}
	.st26{fill:url(#SVGID_19_);}
	.st27{fill:url(#SVGID_20_);}
	.st28{fill:url(#SVGID_21_);}
	.st29{fill:none;stroke:#FFFFFF;stroke-width:1.5;stroke-miterlimit:10;}
	.st30{fill:#D1D3D4;}
</style>
<g>
	<g>
		<path class="st12" d="M187.64,58.21c-2.93-4.62-7.84-6.03-13.48-3.59c-5.06,2.19-10.26,4.25-14.93,7.11
			c-4.96,3.03-8.33,1.7-11.85-2.14c-7.15-7.79-15.5-13.97-26.46-14.35c-9.49-0.33-19.04,0.15-28.51,0.96
			c-3.42,0.29-7.47,1.77-9.86,4.11c-9.33,9.13-18.12,18.82-27.52,28.73c5.89,5.35,10.77,9.79,15.7,14.27
			c10.39-8.02,15.4-20.58,27.96-27.6c-1.19,9.24-2.05,16.94-3.22,24.59c-0.98,6.44-0.53,12.38,3.05,18.15
			c1.38,2.22,2.02,5.7,1.4,8.21c-3.68,14.97-7.76,29.85-11.83,44.72c-0.43,1.56-0.79,2.84-1.13,3.91c-0.1,1.16-0.5,2.22-0.98,3.28
			c-0.05,0.63-0.26,1.25-0.54,1.81c0,0,0,0,0,0.01c0.01,0.18-0.04,0.36-0.06,0.54c6.18-0.02,12.37-0.07,18.55-0.23
			c1.87-0.05,3.71-0.02,5.56,0.02c0.03-0.09,0.08-0.16,0.11-0.25c-0.14-0.01-0.27-0.03-0.41-0.04c4.69-16.32,9.34-32.5,13.99-48.67
			c20.15,2.93,22.95,3.17,21.63,21.48c1.67,0.31,3.34,0.63,5.05,0.74c0.1-0.01,0.2-0.03,0.31-0.03h0.04c0.14,0,0.28,0.03,0.41,0.05
			c0.25-0.06,0.51-0.1,0.8-0.1c0.3,0,0.58,0.04,0.84,0.11c3.69-0.01,7.37-0.08,11.06-0.28c1.54-0.09,3.22,0,4.8-0.21h-0.79
			c-0.39-4.79-0.74-8.95-1.07-13.11c-0.93-11.78-6.08-20.71-17.3-25.47c-4.56-1.93-9.25-3.57-13.71-5.7
			c-1.41-0.68-3.27-2.55-3.22-3.81c0.23-5.84,1.06-11.65,1.52-15.92c7.4,1.89,14.84,6.1,21.27,4.89
			c10.57-1.98,20.76-6.91,30.56-11.72C190.05,70.4,190.44,62.62,187.64,58.21z"/>
		<path class="st12" d="M124.92,0c7.88,2.71,14.48,6.7,16.24,15.76c2.06,10.54-4.32,20.48-14.82,22.93
			c-9.83,2.3-20.55-4.25-23.02-14.07c-2.64-10.5,3.27-20.59,13.79-23.56c1.09-0.31,2.15-0.71,3.23-1.06C121.87,0,123.39,0,124.92,0z
			"/>
	</g>
	<g>
		<g>
			<g>
				<path d="M213.17,239.53c0-39.71,0-79.42,0-120.08c-3.62,0-6.97,0.14-10.3-0.03c-6.38-0.32-9.15-5.15-5.26-10.16
					c10.89-14.01,22.12-27.76,33.44-41.42c3.34-4.03,7.24-3.46,11.01,1.16c11.43,14.01,22.77,28.1,34.15,42.16c0,1.53,0,3.06,0,4.58
					c-4.31,6.28-11.32,2.35-17.19,4.39c0,39.82,0,79.61,0,119.39C243.73,239.53,228.45,239.53,213.17,239.53z"/>
				<path d="M0,198.27c14.95,0,29.91,0,45.84,0c0,13.71,0,27.48,0,41.26c-15.28,0-30.56,0-45.84,0C0,225.78,0,212.02,0,198.27z"/>
			</g>
		</g>
		<rect x="71.06" y="170.46" width="45.24" height="69.06"/>
		<rect x="137.53" y="142.6" width="45.24" height="96.93"/>
	</g>
</g>
</svg>
