<?xml version="1.0" encoding="utf-8"?>
<!-- Generator: Adobe Illustrator 24.3.0, SVG Export Plug-In . SVG Version: 6.00 Build 0)  -->
<svg version="1.1" id="Layer_1" xmlns="http://www.w3.org/2000/svg" xmlns:xlink="http://www.w3.org/1999/xlink" x="0px" y="0px"
	 viewBox="0 0 752.74 303.18" style="enable-background:new 0 0 752.74 303.18;" xml:space="preserve">
<style type="text/css">
	.st0{fill:#FDC940;}
	.st1{fill:#343D3A;}
	.st2{fill:url(#SVGID_1_);}
	.st3{fill:url(#SVGID_2_);}
	.st4{filter:url(#Adobe_OpacityMaskFilter);}
	.st5{opacity:0.34;mask:url(#SVGID_3_);}
	.st6{fill:#403F3F;}
	.st7{fill:url(#SVGID_4_);}
	.st8{fill:url(#SVGID_5_);}
	.st9{fill:#FFFFFF;}
	.st10{fill:url(#SVGID_6_);}
	.st11{fill:url(#SVGID_7_);}
	.st12{fill:#FFC504;}
	.st13{fill:url(#SVGID_8_);}
	.st14{fill:url(#SVGID_9_);}
	.st15{filter:url(#Adobe_OpacityMaskFilter_1_);}
	.st16{opacity:0.34;mask:url(#SVGID_10_);}
	.st17{fill:url(#SVGID_11_);}
	.st18{fill:url(#SVGID_12_);}
	.st19{fill:url(#SVGID_13_);}
	.st20{fill:url(#SVGID_14_);}
	.st21{fill:url(#SVGID_15_);}
	.st22{fill:url(#SVGID_16_);}
	.st23{filter:url(#Adobe_OpacityMaskFilter_2_);}
	.st24{opacity:0.34;mask:url(#SVGID_17_);}
	.st25{fill:url(#SVGID_18_);}
	.st26{fill:url(#SVGID_19_);}
	.st27{fill:url(#SVGID_20_);}
	.st28{fill:url(#SVGID_21_);}
	.st29{fill:none;stroke:#FFFFFF;stroke-width:1.5;stroke-miterlimit:10;}
	.st30{fill:#D1D3D4;}
</style>
<g>
	<g>
		<g>
			<path d="M39.72,105.28c-7.12,0-13.52-1.61-19.2-4.82c-5.69-3.21-10.18-7.64-13.49-13.27c-3.31-5.63-4.97-11.96-4.97-18.98
				c0-7.02,1.63-13.32,4.89-18.91c3.26-5.58,7.69-10.01,13.27-13.27c5.58-3.26,11.79-4.89,18.61-4.89c6.62,0,12.48,1.53,17.57,4.6
				C61.5,38.8,65.5,43,68.42,48.34c2.91,5.34,4.37,11.42,4.37,18.24c0,1.19-0.07,2.4-0.22,3.63c-0.15,1.24-0.37,2.59-0.67,4.08
				H13.48V60.94h49.97l-6.08,5.34c-0.2-4.35-1.04-8.01-2.52-10.97s-3.58-5.24-6.3-6.82c-2.72-1.58-6.06-2.37-10.01-2.37
				c-4.15,0-7.76,0.89-10.82,2.67c-3.07,1.78-5.44,4.28-7.12,7.49c-1.68,3.21-2.52,7.04-2.52,11.49s0.89,8.35,2.67,11.71
				c1.78,3.36,4.3,5.96,7.56,7.79c3.26,1.83,7.02,2.74,11.27,2.74c3.66,0,7.04-0.64,10.16-1.93c3.11-1.28,5.76-3.16,7.93-5.63
				l10.38,10.53c-3.46,4.05-7.66,7.12-12.6,9.19C50.5,104.24,45.26,105.28,39.72,105.28z"/>
			<path d="M88.06,103.8V0h17.05v103.8H88.06z M150.79,103.8l-48.04-54.12l47-49.67h21.8l-51.9,53.97l0.15-9.34l53.23,59.16H150.79z
				"/>
			<path d="M210.99,105.28c-6.92,0-13.2-1.65-18.83-4.97c-5.63-3.31-10.11-7.79-13.42-13.42c-3.31-5.63-4.97-11.91-4.97-18.83
				c0-6.92,1.65-13.15,4.97-18.68c3.31-5.54,7.78-9.96,13.42-13.27c5.63-3.31,11.91-4.97,18.83-4.97c7.02,0,13.35,1.63,18.98,4.89
				c5.63,3.26,10.11,7.69,13.42,13.27c3.31,5.59,4.97,11.84,4.97,18.76c0,6.92-1.66,13.2-4.97,18.83
				c-3.31,5.63-7.79,10.11-13.42,13.42C224.33,103.62,218.01,105.28,210.99,105.28z M210.99,89.56c4.05,0,7.64-0.91,10.75-2.74
				c3.11-1.83,5.54-4.37,7.27-7.64c1.73-3.26,2.59-6.97,2.59-11.12c0-4.15-0.89-7.81-2.67-10.97c-1.78-3.16-4.2-5.66-7.27-7.49
				c-3.07-1.83-6.62-2.74-10.68-2.74c-3.96,0-7.49,0.92-10.6,2.74c-3.11,1.83-5.54,4.33-7.27,7.49c-1.73,3.17-2.59,6.82-2.59,10.97
				c0,4.15,0.86,7.86,2.59,11.12c1.73,3.26,4.15,5.81,7.27,7.64C203.5,88.65,207.03,89.56,210.99,89.56z"/>
			<path d="M261.85,103.8V32.62h16.31v71.17H261.85z M309.15,103.8V61.39c0-4.75-1.48-8.43-4.45-11.05
				c-2.97-2.62-6.62-3.93-10.97-3.93c-2.97,0-5.61,0.59-7.93,1.78c-2.32,1.19-4.18,2.89-5.56,5.12c-1.39,2.22-2.08,4.92-2.08,8.08
				l-6.38-3.56c0-5.44,1.19-10.13,3.56-14.09c2.37-3.95,5.58-7.04,9.64-9.27c4.05-2.22,8.6-3.34,13.64-3.34s9.59,1.09,13.64,3.26
				c4.05,2.18,7.27,5.24,9.64,9.19c2.37,3.96,3.56,8.7,3.56,14.24v45.97H309.15z M356.45,103.8V61.39c0-4.75-1.48-8.43-4.45-11.05
				c-2.97-2.62-6.62-3.93-10.97-3.93c-2.87,0-5.49,0.59-7.86,1.78s-4.25,2.89-5.63,5.12c-1.39,2.22-2.08,4.92-2.08,8.08l-9.19-3.56
				c0.49-5.44,2.08-10.13,4.74-14.09c2.67-3.95,6.1-7.04,10.31-9.27c4.2-2.22,8.82-3.34,13.86-3.34c5.14,0,9.79,1.09,13.94,3.26
				c4.15,2.18,7.46,5.24,9.93,9.19c2.47,3.96,3.71,8.7,3.71,14.24v45.97H356.45z"/>
			<path d="M389.52,103.8V32.62h16.31v71.17H389.52z M438.3,103.8V62.72c0-4.75-1.51-8.65-4.52-11.71c-3.02-3.06-6.9-4.6-11.64-4.6
				c-3.17,0-5.98,0.69-8.45,2.08c-2.47,1.38-4.4,3.31-5.78,5.78c-1.39,2.47-2.08,5.29-2.08,8.45l-6.38-3.56
				c0-5.44,1.19-10.25,3.56-14.46c2.37-4.2,5.66-7.51,9.86-9.93c4.2-2.42,8.92-3.63,14.16-3.63c5.34,0,10.08,1.36,14.23,4.08
				c4.15,2.72,7.41,6.23,9.79,10.53c2.37,4.3,3.56,8.77,3.56,13.42v44.63H438.3z"/>
		</g>
	</g>
	<g>
		<g>
			<path d="M83.57,272.43H59.47l-4.12-26.06h-29.3l-4.12,26.06H0l24.31-143.65h34.95L83.57,272.43z M29.09,226.87h23.01l-11.5-72.65
				L29.09,226.87z"/>
			<path d="M94.63,128.78h37.77c23.88,0,35.6,12.52,35.6,35.5v72.65c0,22.98-11.72,35.5-35.6,35.5H94.63V128.78z M118.51,149.3
				v102.61h13.46c7.6,0,12.15-3.69,12.15-13.96v-74.7c0-10.26-4.56-13.96-12.15-13.96H118.51z"/>
			<path d="M219.01,245.96l18.23-117.18h21.92l-23.44,143.65h-35.6l-23.44-143.65h24.09L219.01,245.96z"/>
			<path d="M342.08,272.43h-24.09l-4.12-26.06h-29.3l-4.12,26.06h-21.92l24.31-143.65h34.95L342.08,272.43z M287.59,226.87h23.01
				l-11.5-72.65L287.59,226.87z"/>
			<path d="M374.42,168.38v104.04h-21.49V128.78h29.95l24.53,85.99v-85.99h21.27v143.65h-24.53L374.42,168.38z"/>
			<path d="M438.88,128.78h73.8v20.52h-24.96v123.13h-23.88V149.3h-24.96V128.78z"/>
			<path d="M592.12,272.43h-24.09l-4.12-26.06h-29.3l-4.12,26.06h-21.92l24.31-143.65h34.95L592.12,272.43z M537.64,226.87h23.01
				l-11.5-72.65L537.64,226.87z"/>
			<path d="M638.78,192.39h33.43v45.56c0,22.98-12.16,36.12-35.6,36.12s-35.6-13.13-35.6-36.12v-74.7
				c0-22.98,12.16-36.12,35.6-36.12s35.6,13.13,35.6,36.12v13.95h-22.57v-15.39c0-10.26-4.78-14.16-12.37-14.16
				s-12.37,3.9-12.37,14.16v77.57c0,10.26,4.78,13.96,12.37,13.96s12.37-3.69,12.37-13.96v-26.47h-10.85V192.39z"/>
			<path d="M711.5,189.32h32.78v20.52H711.5v42.07h41.24v20.52h-65.12V128.78h65.12v20.52H711.5V189.32z"/>
		</g>
	</g>
	<rect x="2.93" y="291.17" width="274.89" height="12.01"/>
</g>
</svg>
