<?xml version="1.0" encoding="utf-8"?>
<!-- Generator: Adobe Illustrator 24.3.0, SVG Export Plug-In . SVG Version: 6.00 Build 0)  -->
<svg version="1.1" id="Layer_1" xmlns="http://www.w3.org/2000/svg" xmlns:xlink="http://www.w3.org/1999/xlink" x="0px" y="0px"
	 viewBox="0 0 304.42 244.76" style="enable-background:new 0 0 304.42 244.76;" xml:space="preserve">
<style type="text/css">
	.st0{fill:url(#SVGID_1_);}
	.st1{opacity:0.5;clip-path:url(#SVGID_3_);}
	.st2{fill:#FEFAA1;}
	.st3{fill:#FDC940;}
	.st4{fill:#343D3A;}
	.st5{fill:url(#SVGID_4_);}
	.st6{opacity:0.5;clip-path:url(#SVGID_6_);}
	.st7{fill:#FFFFFF;}
	.st8{fill:#E2AC00;}
	.st9{fill:url(#SVGID_7_);}
	.st10{fill:#FFC800;}
	.st11{fill:#D1D3D4;}
	.st12{fill:none;stroke:#FFFFFF;stroke-width:1.0454;stroke-linecap:round;stroke-linejoin:round;stroke-miterlimit:10;}
	.st13{fill:url(#SVGID_8_);}
	.st14{fill:#F5F5F5;}
	.st15{fill:#BCBEC0;}
	.st16{fill:#A7A9AC;}
	.st17{fill:#E6E7E8;}
	.st18{fill:#545454;}
	.st19{fill:#FFE8D9;}
	.st20{fill:url(#SVGID_9_);}
	.st21{fill:#F1F2F2;}
	.st22{fill:#D9E1EB;}
	.st23{fill:#F5F7FA;}
	.st24{fill:#D4DDE9;}
	.st25{fill:url(#SVGID_10_);}
	.st26{clip-path:url(#SVGID_12_);}
	.st27{fill:#CDCDD1;}
	.st28{fill:none;stroke:#3F3F3F;stroke-width:0.2643;stroke-miterlimit:10;}
	.st29{fill:#3F3F3F;}
	.st30{fill:#B7B7B7;}
	.st31{fill:none;stroke:#FFFFFF;stroke-width:0.4428;stroke-miterlimit:10;}
	.st32{fill:#D3D1D1;}
	.st33{fill:#1D1E1C;}
	.st34{opacity:0.25;}
	.st35{fill:none;stroke:#FFFFFF;stroke-width:0.8856;stroke-miterlimit:10;}
	.st36{fill:#FFC401;}
	.st37{fill:none;stroke:#FFC401;stroke-miterlimit:10;}
	.st38{fill:none;stroke:#343D3A;stroke-miterlimit:10;}
	.st39{fill:none;stroke:#FFFFFF;stroke-width:1.5;stroke-miterlimit:10;}
	.st40{fill:#FFC504;}
	.st41{fill:#2F3030;}
	.st42{clip-path:url(#SVGID_14_);}
	.st43{fill:none;stroke:#000000;stroke-width:0.2643;stroke-miterlimit:10;}
	.st44{clip-path:url(#SVGID_16_);}
</style>
<g>
	<g>
		<g>
			<g>
				<rect x="152.77" y="172.82" class="st7" width="12.5" height="48.75"/>
				<rect x="152.77" y="223.98" class="st7" width="12.5" height="8.03"/>
				<rect x="152.77" y="234.42" class="st7" width="12.5" height="4.95"/>
				<rect x="152.77" y="241.78" class="st7" width="12.5" height="2.46"/>
				<polygon class="st7" points="169.43,172.82 148.6,172.82 159.01,158.41 				"/>
			</g>
			<g>
				<rect x="177.64" y="157.33" class="st7" width="12.5" height="64.25"/>
				<rect x="177.64" y="223.98" class="st7" width="12.5" height="8.03"/>
				<rect x="177.64" y="234.42" class="st7" width="12.5" height="4.95"/>
				<rect x="177.64" y="241.78" class="st7" width="12.5" height="2.46"/>
				<polygon class="st7" points="194.3,157.33 173.47,157.33 183.89,142.92 				"/>
			</g>
			<g>
				<rect x="202.51" y="141.83" class="st7" width="12.5" height="79.74"/>
				<rect x="202.51" y="223.98" class="st7" width="12.5" height="8.03"/>
				<rect x="202.51" y="234.42" class="st7" width="12.5" height="4.95"/>
				<rect x="202.51" y="241.78" class="st7" width="12.5" height="2.46"/>
				<polygon class="st7" points="219.17,141.83 198.35,141.83 208.76,127.42 				"/>
			</g>
			<g>
				<rect x="227.38" y="126.34" class="st7" width="12.5" height="95.23"/>
				<rect x="227.38" y="223.98" class="st7" width="12.5" height="8.03"/>
				<rect x="227.38" y="234.42" class="st7" width="12.5" height="4.95"/>
				<rect x="227.38" y="241.78" class="st7" width="12.5" height="2.46"/>
				<polygon class="st7" points="244.04,126.34 223.22,126.34 233.63,111.93 				"/>
			</g>
		</g>
		<g>
			<polygon class="st10" points="263.21,57.99 34,244.24 4.63,244.24 4.63,211.58 37.12,211.58 37.12,185.18 69.62,185.18 
				69.62,158.78 102.11,158.78 102.11,132.37 134.6,132.37 134.6,105.97 167.11,105.97 167.11,79.56 199.6,79.56 199.6,53.15 
				232.09,26.75 232.09,26.75 233.83,25.34 			"/>
			<polygon class="st7" points="263.21,57.99 34,244.24 4.63,244.24 4.63,211.58 37.12,211.58 37.12,185.18 69.62,185.18 
				69.62,158.78 102.11,158.78 102.11,132.37 134.6,132.37 134.6,105.97 167.11,105.97 167.11,79.56 199.6,79.56 199.6,53.15 
				232.09,26.75 232.09,26.75 233.83,25.34 			"/>
			<g>
				<polygon class="st7" points="254.92,91.49 237.47,50.29 196.01,28.17 299.35,0 				"/>
			</g>
			<g>
				<rect x="37.12" y="185.18" class="st41" width="11.16" height="26.4"/>
				<rect x="69.62" y="158.77" class="st41" width="11.16" height="26.4"/>
				<rect x="102.12" y="132.37" class="st41" width="11.16" height="26.4"/>
				<rect x="134.62" y="105.97" class="st41" width="11.16" height="26.4"/>
				<rect x="167.12" y="79.57" class="st41" width="11.16" height="26.4"/>
				<polygon class="st41" points="210.78,79.57 199.62,79.57 199.62,53.17 210.78,44.07 				"/>
				<rect x="4.63" y="211.58" class="st41" width="11.16" height="32.66"/>
			</g>
		</g>
		<line class="st12" x1="0.52" y1="244.24" x2="303.9" y2="244.24"/>
	</g>
</g>
</svg>
