<?xml version="1.0" encoding="utf-8"?>
<!-- Generator: Adobe Illustrator 24.3.0, SVG Export Plug-In . SVG Version: 6.00 Build 0)  -->
<svg version="1.1" id="Layer_1" xmlns="http://www.w3.org/2000/svg" xmlns:xlink="http://www.w3.org/1999/xlink" x="0px" y="0px"
	 viewBox="0 0 884.15 303.18" style="enable-background:new 0 0 884.15 303.18;" xml:space="preserve">
<style type="text/css">
	.st0{fill:url(#SVGID_1_);}
	.st1{opacity:0.5;clip-path:url(#SVGID_3_);}
	.st2{fill:#FEFAA1;}
	.st3{fill:#FDC940;}
	.st4{fill:#343D3A;}
	.st5{fill:url(#SVGID_4_);}
	.st6{opacity:0.5;clip-path:url(#SVGID_6_);}
	.st7{fill:#FFFFFF;}
	.st8{fill:#E2AC00;}
	.st9{fill:url(#SVGID_7_);}
	.st10{fill:#FFC800;}
	.st11{fill:#D1D3D4;}
	.st12{fill:none;stroke:#FFFFFF;stroke-width:1.0454;stroke-linecap:round;stroke-linejoin:round;stroke-miterlimit:10;}
	.st13{fill:url(#SVGID_8_);}
	.st14{fill:#F5F5F5;}
	.st15{fill:#BCBEC0;}
	.st16{fill:#A7A9AC;}
	.st17{fill:#E6E7E8;}
	.st18{fill:#545454;}
	.st19{fill:#FFE8D9;}
	.st20{fill:url(#SVGID_9_);}
	.st21{fill:#F1F2F2;}
	.st22{fill:#D9E1EB;}
	.st23{fill:#F5F7FA;}
	.st24{fill:#D4DDE9;}
	.st25{fill:url(#SVGID_10_);}
	.st26{clip-path:url(#SVGID_12_);}
	.st27{fill:#CDCDD1;}
	.st28{fill:none;stroke:#3F3F3F;stroke-width:0.2643;stroke-miterlimit:10;}
	.st29{fill:#3F3F3F;}
	.st30{fill:#B7B7B7;}
	.st31{fill:none;stroke:#FFFFFF;stroke-width:0.4428;stroke-miterlimit:10;}
	.st32{fill:#D3D1D1;}
	.st33{fill:#1D1E1C;}
	.st34{opacity:0.25;}
	.st35{fill:none;stroke:#FFFFFF;stroke-width:0.8856;stroke-miterlimit:10;}
	.st36{fill:#FFC401;}
	.st37{fill:none;stroke:#FFC401;stroke-miterlimit:10;}
	.st38{fill:none;stroke:#343D3A;stroke-miterlimit:10;}
	.st39{fill:none;stroke:#FFFFFF;stroke-width:1.5;stroke-miterlimit:10;}
	.st40{fill:#FFC504;}
	.st41{fill:#2F3030;}
	.st42{clip-path:url(#SVGID_14_);}
	.st43{fill:none;stroke:#000000;stroke-width:0.2643;stroke-miterlimit:10;}
	.st44{clip-path:url(#SVGID_16_);}
</style>
<g>
	<g>
		<g>
			<path d="M37.66,105.28c-7.12,0-13.52-1.61-19.2-4.82c-5.69-3.21-10.18-7.64-13.49-13.27C1.65,81.55,0,75.23,0,68.21
				c0-7.02,1.63-13.32,4.89-18.91c3.26-5.58,7.69-10.01,13.27-13.27c5.58-3.26,11.79-4.89,18.61-4.89c6.62,0,12.48,1.53,17.57,4.6
				c5.09,3.07,9.09,7.27,12.01,12.6c2.91,5.34,4.37,11.42,4.37,18.24c0,1.19-0.07,2.4-0.22,3.63c-0.15,1.24-0.37,2.59-0.67,4.08
				H11.42V60.94h49.97l-6.08,5.34c-0.2-4.35-1.04-8.01-2.52-10.97s-3.58-5.24-6.3-6.82c-2.72-1.58-6.06-2.37-10.01-2.37
				c-4.15,0-7.76,0.89-10.82,2.67c-3.07,1.78-5.44,4.28-7.12,7.49c-1.68,3.21-2.52,7.04-2.52,11.49c0,4.45,0.89,8.36,2.67,11.71
				c1.78,3.36,4.3,5.96,7.56,7.79c3.26,1.83,7.02,2.74,11.27,2.74c3.66,0,7.04-0.64,10.16-1.93c3.11-1.28,5.76-3.16,7.93-5.63
				l10.38,10.53c-3.46,4.05-7.66,7.12-12.6,9.19C48.44,104.24,43.2,105.28,37.66,105.28z"/>
			<path d="M86,103.8V0h17.05v103.8H86z M148.73,103.8l-48.04-54.12l47-49.67h21.8l-51.9,53.97l0.15-9.34l53.23,59.16H148.73z"/>
			<path d="M208.93,105.28c-6.92,0-13.2-1.65-18.83-4.97c-5.63-3.31-10.11-7.79-13.42-13.42c-3.31-5.63-4.97-11.91-4.97-18.83
				c0-6.92,1.65-13.15,4.97-18.68c3.31-5.54,7.78-9.96,13.42-13.27c5.63-3.31,11.91-4.97,18.83-4.97c7.02,0,13.35,1.63,18.98,4.89
				c5.63,3.26,10.11,7.69,13.42,13.27c3.31,5.59,4.97,11.84,4.97,18.76c0,6.92-1.66,13.2-4.97,18.83
				c-3.31,5.63-7.79,10.11-13.42,13.42C222.27,103.62,215.95,105.28,208.93,105.28z M208.93,89.56c4.05,0,7.64-0.91,10.75-2.74
				c3.11-1.83,5.54-4.38,7.27-7.64c1.73-3.26,2.59-6.97,2.59-11.12s-0.89-7.81-2.67-10.97c-1.78-3.16-4.2-5.66-7.27-7.49
				c-3.07-1.83-6.62-2.74-10.68-2.74c-3.96,0-7.49,0.92-10.6,2.74c-3.11,1.83-5.54,4.33-7.27,7.49c-1.73,3.17-2.59,6.82-2.59,10.97
				s0.86,7.86,2.59,11.12c1.73,3.26,4.15,5.81,7.27,7.64C201.44,88.65,204.97,89.56,208.93,89.56z"/>
			<path d="M259.79,103.8V32.62h16.31v71.18H259.79z M307.09,103.8V61.39c0-4.75-1.48-8.43-4.45-11.05
				c-2.97-2.62-6.62-3.93-10.97-3.93c-2.97,0-5.61,0.59-7.93,1.78c-2.32,1.19-4.18,2.89-5.56,5.12c-1.39,2.22-2.08,4.92-2.08,8.08
				l-6.38-3.56c0-5.44,1.19-10.13,3.56-14.09c2.37-3.95,5.58-7.04,9.64-9.27c4.05-2.22,8.6-3.34,13.64-3.34s9.59,1.09,13.64,3.26
				c4.05,2.18,7.27,5.24,9.64,9.19c2.37,3.96,3.56,8.7,3.56,14.24v45.97H307.09z M354.39,103.8V61.39c0-4.75-1.48-8.43-4.45-11.05
				c-2.97-2.62-6.62-3.93-10.97-3.93c-2.87,0-5.49,0.59-7.86,1.78c-2.37,1.19-4.25,2.89-5.63,5.12c-1.39,2.22-2.08,4.92-2.08,8.08
				l-9.19-3.56c0.49-5.44,2.08-10.13,4.74-14.09c2.67-3.95,6.1-7.04,10.31-9.27c4.2-2.22,8.82-3.34,13.86-3.34
				c5.14,0,9.79,1.09,13.94,3.26c4.15,2.18,7.46,5.24,9.93,9.19c2.47,3.96,3.71,8.7,3.71,14.24v45.97H354.39z"/>
			<path d="M387.46,103.8V32.62h16.31v71.18H387.46z M436.24,103.8V62.72c0-4.75-1.51-8.65-4.52-11.71c-3.02-3.06-6.9-4.6-11.64-4.6
				c-3.17,0-5.98,0.69-8.45,2.08c-2.47,1.38-4.4,3.31-5.78,5.78c-1.39,2.47-2.08,5.29-2.08,8.45l-6.38-3.56
				c0-5.44,1.19-10.25,3.56-14.46c2.37-4.2,5.66-7.51,9.86-9.94c4.2-2.42,8.92-3.63,14.16-3.63c5.34,0,10.08,1.36,14.23,4.08
				c4.15,2.72,7.41,6.23,9.79,10.53c2.37,4.3,3.56,8.77,3.56,13.42v44.63H436.24z"/>
		</g>
	</g>
	<g>
		<g>
			<path d="M73.48,218.87v19.08c0,22.98-12.16,36.12-35.6,36.12c-23.44,0-35.6-13.13-35.6-36.12v-74.7
				c0-22.98,12.16-36.12,35.6-36.12c23.44,0,35.6,13.13,35.6,36.12v13.95H50.9v-15.39c0-10.26-4.77-14.16-12.37-14.16
				c-7.6,0-12.37,3.9-12.37,14.16v77.57c0,10.26,4.78,13.96,12.37,13.96c7.6,0,12.37-3.69,12.37-13.96v-20.52H73.48z"/>
			<path d="M86.06,163.25c0-22.98,12.81-36.12,36.25-36.12c23.44,0,36.25,13.13,36.25,36.12v74.7c0,22.98-12.81,36.12-36.25,36.12
				c-23.44,0-36.25-13.13-36.25-36.12V163.25z M109.94,239.39c0,10.26,4.78,14.16,12.37,14.16c7.6,0,12.37-3.9,12.37-14.16v-77.57
				c0-10.26-4.77-14.16-12.37-14.16c-7.6,0-12.37,3.9-12.37,14.16V239.39z"/>
			<path d="M224.54,230.77l16.28-101.99h33.21v143.65h-22.57V169.41l-16.5,103.02h-22.57l-17.8-101.58v101.58h-20.84V128.78h33.21
				L224.54,230.77z"/>
			<path d="M341.96,230.77l16.28-101.99h33.21v143.65h-22.57V169.41l-16.5,103.02h-22.57l-17.8-101.58v101.58h-20.84V128.78h33.21
				L341.96,230.77z"/>
			<path d="M408.81,128.78h23.88v143.65h-23.88V128.78z"/>
			<path d="M443.1,128.78h73.8v20.52h-24.96v123.13h-23.88V149.3H443.1V128.78z"/>
			<path d="M577.89,230.77l16.28-101.99h33.21v143.65h-22.57V169.41l-16.5,103.02h-22.57l-17.8-101.58v101.58H527.1V128.78h33.21
				L577.89,230.77z"/>
			<path d="M668.62,189.32h32.78v20.52h-32.78v42.07h41.24v20.52h-65.12V128.78h65.12v20.52h-41.24V189.32z"/>
			<path d="M745.89,168.38v104.04H724.4V128.78h29.95l24.53,85.99v-85.99h21.27v143.65h-24.53L745.89,168.38z"/>
			<path d="M810.35,128.78h73.8v20.52h-24.96v123.13h-23.88V149.3h-24.96V128.78z"/>
		</g>
	</g>
	<rect x="0.87" y="291.17" width="274.89" height="12.01"/>
</g>
</svg>
