<?xml version="1.0" encoding="utf-8"?>
<!-- Generator: Adobe Illustrator 24.3.0, SVG Export Plug-In . SVG Version: 6.00 Build 0)  -->
<svg version="1.1" id="Layer_1" xmlns="http://www.w3.org/2000/svg" xmlns:xlink="http://www.w3.org/1999/xlink" x="0px" y="0px"
	 viewBox="0 0 302.74 238.43" style="enable-background:new 0 0 302.74 238.43;" xml:space="preserve">
<style type="text/css">
	.st0{fill:url(#SVGID_1_);}
	.st1{opacity:0.5;clip-path:url(#SVGID_3_);}
	.st2{fill:#FEFAA1;}
	.st3{fill:#FDC940;}
	.st4{fill:#343D3A;}
	.st5{fill:url(#SVGID_4_);}
	.st6{opacity:0.5;clip-path:url(#SVGID_6_);}
	.st7{fill:#FFFFFF;}
	.st8{fill:#E2AC00;}
	.st9{fill:url(#SVGID_7_);}
	.st10{fill:#FFC800;}
	.st11{fill:#D1D3D4;}
	.st12{fill:none;stroke:#FFFFFF;stroke-width:1.0454;stroke-linecap:round;stroke-linejoin:round;stroke-miterlimit:10;}
	.st13{fill:url(#SVGID_8_);}
	.st14{fill:#F5F5F5;}
	.st15{fill:#BCBEC0;}
	.st16{fill:#A7A9AC;}
	.st17{fill:#E6E7E8;}
	.st18{fill:#545454;}
	.st19{fill:#FFE8D9;}
	.st20{fill:url(#SVGID_9_);}
	.st21{fill:#F1F2F2;}
	.st22{fill:#D9E1EB;}
	.st23{fill:#F5F7FA;}
	.st24{fill:#D4DDE9;}
	.st25{fill:url(#SVGID_10_);}
	.st26{clip-path:url(#SVGID_12_);}
	.st27{fill:#CDCDD1;}
	.st28{fill:none;stroke:#3F3F3F;stroke-width:0.2643;stroke-miterlimit:10;}
	.st29{fill:#3F3F3F;}
	.st30{fill:#B7B7B7;}
	.st31{fill:none;stroke:#FFFFFF;stroke-width:0.4428;stroke-miterlimit:10;}
	.st32{fill:#D3D1D1;}
	.st33{fill:#1D1E1C;}
	.st34{opacity:0.25;}
	.st35{fill:none;stroke:#FFFFFF;stroke-width:0.8856;stroke-miterlimit:10;}
	.st36{fill:#FFC401;}
	.st37{fill:none;stroke:#FFC401;stroke-miterlimit:10;}
	.st38{fill:none;stroke:#343D3A;stroke-miterlimit:10;}
	.st39{fill:none;stroke:#FFFFFF;stroke-width:1.5;stroke-miterlimit:10;}
	.st40{fill:#FFC504;}
	.st41{fill:#2F3030;}
	.st42{clip-path:url(#SVGID_14_);}
	.st43{fill:none;stroke:#000000;stroke-width:0.2643;stroke-miterlimit:10;}
	.st44{clip-path:url(#SVGID_16_);}
</style>
<g>
	<g>
		<path class="st7" d="M98.37,143.36l18.91-18.91l-9.5-4.91c-3.48-1.8-4.2-6.46-1.43-9.23c2.4-2.4,6.22-2.19,8.39,0.16l-0.02-0.07
			c-1.19-3.73,1.59-7.53,5.51-7.53c3.93,0,6.73,3.8,5.56,7.55l-0.01,0.03c2.17-2.33,5.97-2.53,8.36-0.13
			c2.77,2.77,2.05,7.43-1.43,9.23l-9.5,4.92l18.91,18.91c12.08,12.08,12.08,31.67,0,43.75c-12.08,12.08-31.67,12.08-43.75,0
			C86.29,175.03,86.29,155.44,98.37,143.36z"/>
		<path d="M124.85,134.85c0.57,0.56,1.48,0.56,2.05,0c0.57-0.57,0.57-1.48,0-2.05l-6.94-6.93l-2.05,2.05L124.85,134.85z"/>
		<path d="M115.32,134.85c-0.57,0.56-1.49,0.56-2.05,0c-0.57-0.57-0.57-1.48,0-2.05l6.94-6.93l2.05,2.05L115.32,134.85z"/>
		<path d="M111.47,126.08c0,1.1,0.43,2.12,1.2,2.9c0.77,0.77,1.81,1.2,2.9,1.2c1.09,0,2.12-0.43,2.89-1.2l1.51-1.51l1.5,1.51
			c0.77,0.77,1.8,1.2,2.89,1.2c1.09,0,2.12-0.43,2.9-1.2c0.78-0.77,1.2-1.8,1.2-2.9c0-1.09-0.43-2.12-1.2-2.89l-0.1-0.1
			c-1.63-1.62-4.42-1.61-6.02-0.01l-1.17,1.17l-1.17-1.17c-1.61-1.61-4.4-1.61-6.01,0l-0.12,0.12
			C111.9,123.96,111.47,124.99,111.47,126.08z M121.58,125.87l1.17-1.18c0.37-0.37,0.87-0.58,1.39-0.58c0.53,0,1.03,0.21,1.4,0.58
			l0.1,0.1c0.72,0.72,0.72,1.87,0.01,2.58c-0.35,0.34-0.8,0.53-1.29,0.53c-0.48,0-0.94-0.19-1.28-0.53L121.58,125.87z M114.29,124.8
			l0.11-0.12c0.73-0.73,2.04-0.74,2.78,0.01l1.17,1.18l-1.51,1.5c-0.69,0.68-1.88,0.69-2.57,0
			C113.57,126.66,113.58,125.51,114.29,124.8z"/>
		<path d="M126.59,182.99c-1.69,0-3.38,0.01-5.08-0.01c-0.18,0-0.41-0.16-0.54-0.31c-4.56-5.39-9.11-10.79-13.66-16.2
			c-0.13-0.16-0.26-0.38-0.27-0.58c-0.03-1.01-0.01-2.01-0.01-3.03c0.58,0,1.18-0.01,1.77,0c2.4,0.03,4.76-0.17,7.01-1.07
			c2.35-0.94,3.97-2.51,4.34-5.13c0.03-0.22,0.04-0.44,0.06-0.72c-4.82,0-9.59,0-14.5,0c0.82-1.22,1.56-2.34,2.34-3.43
			c0.09-0.13,0.4-0.13,0.61-0.13c3.45-0.01,6.9,0,10.35,0c0.21,0,0.43,0,0.72,0c-0.35-0.85-0.87-1.44-1.51-1.94
			c-1.72-1.37-3.74-1.87-5.87-1.92c-2.11-0.05-4.23-0.01-6.53-0.01c0.84-1.26,1.54-2.35,2.3-3.41c0.1-0.14,0.43-0.16,0.66-0.16
			c5.45-0.02,10.9-0.03,16.35-0.05c2.2-0.01,4.4-0.02,6.6-0.02c0.18,0,0.35,0,0.65,0c-0.78,1.19-1.49,2.31-2.24,3.39
			c-0.09,0.13-0.39,0.16-0.59,0.16c-1.76,0.01-3.51,0.01-5.27,0.01c-0.2,0-0.39,0-0.57,0c0.63,1.31,1.24,2.59,1.91,3.97
			c2.1,0,4.37,0,6.75,0c-0.77,1.18-1.47,2.28-2.2,3.35c-0.09,0.13-0.34,0.18-0.52,0.19c-1.33,0.02-2.66,0.01-3.97,0.01
			c-1.47,6.81-6.39,8.91-12.54,9.49c0.42,0.54,0.8,1.02,1.19,1.5c3.99,4.97,7.99,9.94,11.97,14.92c0.21,0.26,0.3,0.6,0.45,0.91
			C126.7,182.83,126.64,182.91,126.59,182.99z"/>
	</g>
	<g>
		<path class="st7" d="M8.11,148.92L25.02,132l-8.5-4.39c-3.11-1.61-3.76-5.78-1.28-8.26c2.15-2.15,5.56-1.96,7.5,0.14l-0.02-0.06
			c-1.06-3.34,1.43-6.74,4.93-6.74c3.51,0,6.02,3.4,4.98,6.75l-0.01,0.02c1.95-2.08,5.34-2.26,7.48-0.12
			c2.48,2.48,1.83,6.64-1.28,8.26l-8.5,4.4l16.92,16.91c10.81,10.81,10.81,28.34,0,39.14c-10.81,10.81-28.34,10.81-39.14,0
			C-2.7,177.26-2.7,159.73,8.11,148.92z"/>
		<path d="M31.8,141.31c0.51,0.5,1.33,0.5,1.84,0c0.51-0.51,0.51-1.33,0-1.84l-6.21-6.2l-1.84,1.83L31.8,141.31z"/>
		<path d="M23.27,141.31c-0.51,0.5-1.33,0.5-1.84,0c-0.51-0.51-0.51-1.33,0-1.84l6.21-6.2l1.84,1.83L23.27,141.31z"/>
		<path d="M19.83,133.47c0,0.98,0.38,1.9,1.07,2.59c0.69,0.69,1.62,1.07,2.59,1.07c0.98,0,1.9-0.38,2.59-1.07l1.35-1.35l1.35,1.35
			c0.69,0.69,1.61,1.07,2.59,1.07c0.98,0,1.9-0.38,2.59-1.07c0.69-0.69,1.07-1.61,1.07-2.59c0-0.98-0.38-1.9-1.08-2.59l-0.09-0.09
			c-1.46-1.45-3.95-1.44-5.39-0.01l-1.05,1.05l-1.05-1.05c-1.44-1.44-3.94-1.44-5.38,0l-0.1,0.11
			C20.21,131.57,19.83,132.49,19.83,133.47z M28.87,133.27l1.05-1.05c0.33-0.33,0.78-0.52,1.25-0.52c0.47,0,0.92,0.18,1.25,0.52
			l0.09,0.09c0.64,0.64,0.64,1.67,0.01,2.3c-0.31,0.31-0.72,0.48-1.15,0.48c-0.43,0-0.84-0.17-1.15-0.48L28.87,133.27z
			 M22.34,132.32l0.1-0.11c0.65-0.65,1.82-0.66,2.49,0l1.05,1.05l-1.35,1.34c-0.61,0.61-1.68,0.62-2.3,0
			C21.71,133.98,21.71,132.95,22.34,132.32z"/>
		<path d="M32.81,184.81c-1.53,0-3.07,0.01-4.6-0.01c-0.16,0-0.37-0.14-0.49-0.28c-4.13-4.89-8.26-9.78-12.38-14.68
			c-0.12-0.14-0.24-0.35-0.24-0.53c-0.02-0.91-0.01-1.83-0.01-2.75c0.53,0,1.07-0.01,1.61,0c2.17,0.03,4.32-0.16,6.36-0.97
			c2.13-0.85,3.6-2.28,3.93-4.65c0.03-0.2,0.04-0.4,0.06-0.65c-4.37,0-8.69,0-13.14,0c0.74-1.1,1.41-2.12,2.12-3.11
			c0.08-0.11,0.36-0.12,0.55-0.12c3.13-0.01,6.26,0,9.38,0c0.19,0,0.39,0,0.65,0c-0.31-0.77-0.79-1.3-1.37-1.76
			c-1.56-1.24-3.39-1.7-5.32-1.74c-1.92-0.05-3.83-0.01-5.92-0.01c0.76-1.14,1.4-2.13,2.08-3.09c0.09-0.13,0.39-0.15,0.6-0.15
			c4.94-0.02,9.88-0.03,14.82-0.04c1.99-0.01,3.99-0.01,5.98-0.02c0.16,0,0.32,0,0.59,0c-0.71,1.08-1.35,2.09-2.03,3.07
			c-0.08,0.12-0.35,0.14-0.54,0.14c-1.59,0.01-3.18,0.01-4.77,0.01c-0.18,0-0.35,0-0.51,0c0.57,1.19,1.13,2.35,1.73,3.6
			c1.91,0,3.96,0,6.12,0c-0.7,1.07-1.33,2.06-2,3.04c-0.08,0.11-0.31,0.17-0.48,0.17c-1.21,0.01-2.41,0.01-3.6,0.01
			c-1.33,6.17-5.79,8.07-11.37,8.61c0.38,0.49,0.73,0.93,1.08,1.36c3.62,4.51,7.24,9.01,10.85,13.52c0.19,0.23,0.28,0.55,0.41,0.82
			C32.9,184.67,32.86,184.74,32.81,184.81z"/>
	</g>
	<g>
		<path class="st14" d="M41.53,125.16l25.34-25.35l-12.73-6.59c-4.66-2.41-5.63-8.65-1.92-12.37c3.22-3.22,8.33-2.94,11.24,0.21
			l-0.03-0.09c-1.59-5,2.14-10.1,7.39-10.1c5.26,0,9.02,5.09,7.46,10.12l-0.01,0.03c2.92-3.12,8-3.39,11.21-0.18
			c3.71,3.71,2.74,9.96-1.92,12.37l-12.73,6.59l25.35,25.34c16.2,16.2,16.2,42.46,0,58.65c-16.2,16.2-42.46,16.2-58.65,0
			C25.33,167.62,25.33,141.36,41.53,125.16z"/>
		<path d="M77.03,113.76c0.76,0.76,1.99,0.76,2.75,0c0.76-0.76,0.76-1.99,0-2.75l-9.3-9.29l-2.75,2.75L77.03,113.76z"/>
		<path d="M64.25,113.76c-0.76,0.76-1.99,0.76-2.75,0c-0.76-0.76-0.76-1.99,0-2.75l9.3-9.29l2.75,2.75L64.25,113.76z"/>
		<path d="M59.09,102c0,1.47,0.57,2.85,1.61,3.88c1.04,1.03,2.42,1.61,3.88,1.61c1.47,0,2.84-0.57,3.88-1.61l2.02-2.02l2.02,2.02
			c1.04,1.03,2.41,1.61,3.88,1.61c1.46,0,2.85-0.57,3.88-1.61c1.04-1.04,1.61-2.42,1.61-3.88c0-1.46-0.57-2.84-1.61-3.88l-0.13-0.14
			c-2.19-2.17-5.92-2.16-8.07-0.01l-1.57,1.57l-1.57-1.57c-2.15-2.15-5.9-2.15-8.06,0l-0.16,0.16
			C59.66,99.16,59.09,100.54,59.09,102z M72.64,101.71l1.57-1.58c0.5-0.5,1.16-0.77,1.87-0.77c0.71,0,1.38,0.27,1.88,0.77l0.13,0.14
			c0.96,0.96,0.96,2.5,0.01,3.45c-0.46,0.46-1.07,0.72-1.72,0.72c-0.65,0-1.26-0.25-1.72-0.72L72.64,101.71z M62.86,100.28
			l0.15-0.16c0.97-0.97,2.73-0.99,3.73,0.01l1.57,1.58l-2.02,2.01c-0.92,0.92-2.52,0.92-3.44,0
			C61.91,102.78,61.91,101.23,62.86,100.28z"/>
		<path d="M79.69,178.41c-2.2,0-4.41,0.01-6.61-0.02c-0.24,0-0.53-0.2-0.7-0.4c-5.94-7.02-11.87-14.06-17.79-21.1
			c-0.17-0.21-0.34-0.5-0.35-0.76c-0.03-1.31-0.02-2.62-0.02-3.95c0.76,0,1.53-0.01,2.31,0c3.12,0.04,6.2-0.22,9.13-1.39
			c3.06-1.22,5.17-3.27,5.65-6.68c0.04-0.28,0.05-0.57,0.08-0.94c-6.27,0-12.49,0-18.88,0c1.07-1.59,2.03-3.05,3.04-4.47
			c0.12-0.16,0.52-0.17,0.79-0.17c4.49-0.01,8.99-0.01,13.48-0.01c0.28,0,0.56,0,0.93,0c-0.45-1.1-1.14-1.87-1.96-2.53
			c-2.24-1.78-4.86-2.44-7.65-2.5c-2.75-0.07-5.51-0.01-8.5-0.01c1.09-1.64,2.01-3.06,2.99-4.44c0.13-0.18,0.56-0.21,0.86-0.21
			c7.1-0.03,14.19-0.04,21.29-0.06c2.87-0.01,5.73-0.02,8.6-0.03c0.23,0,0.46,0,0.85,0c-1.02,1.55-1.95,3-2.92,4.42
			c-0.12,0.17-0.51,0.2-0.77,0.21c-2.29,0.02-4.57,0.01-6.86,0.01c-0.25,0-0.51,0-0.74,0c0.82,1.71,1.62,3.37,2.48,5.18
			c2.74,0,5.69,0,8.79,0c-1,1.53-1.91,2.97-2.87,4.37c-0.11,0.16-0.45,0.24-0.68,0.24c-1.73,0.02-3.46,0.01-5.17,0.01
			c-1.91,8.87-8.32,11.6-16.34,12.37c0.55,0.7,1.05,1.33,1.55,1.95c5.2,6.47,10.4,12.95,15.59,19.43c0.27,0.34,0.4,0.79,0.59,1.18
			C79.82,178.2,79.76,178.31,79.69,178.41z"/>
	</g>
	<g>
		<polygon class="st7" points="111.3,196.49 111.3,216.14 111.12,216.14 111.12,225.58 118.21,225.58 118.21,195.3 		"/>
		<polygon class="st7" points="41,196.49 41,216.14 40.83,216.14 40.83,225.58 47.92,225.58 47.92,195.3 		"/>
		<rect x="44.19" y="219.92" class="st7" width="75.53" height="5.59"/>
		<g>
			<path d="M55.39,223.58c0,5.34-4.33,9.66-9.67,9.66c-5.34,0-9.66-4.32-9.66-9.66c0-5.34,4.33-9.67,9.66-9.67
				C51.07,213.91,55.39,218.24,55.39,223.58z"/>
			<path class="st7" d="M51.16,223.58c0,3.05-2.47,5.52-5.51,5.52c-3.04,0-5.51-2.47-5.51-5.52s2.47-5.51,5.51-5.51
				C48.7,218.06,51.16,220.53,51.16,223.58z"/>
		</g>
		<g>
			<path d="M124.66,223.57c0,5.34-4.33,9.67-9.67,9.67c-5.34,0-9.66-4.33-9.66-9.67c0-5.34,4.32-9.66,9.66-9.66
				C120.33,213.91,124.66,218.24,124.66,223.57z"/>
			<path class="st7" d="M120.65,223.72c0,3.04-2.47,5.52-5.52,5.52c-3.04,0-5.51-2.47-5.51-5.52c0-3.05,2.47-5.52,5.51-5.52
				C118.18,218.2,120.65,220.67,120.65,223.72z"/>
		</g>
	</g>
	<g>
		<g>
			<g>
				<path d="M214.72,215.6l-17.69,1.7c-2.16,0.4-4.43,0.7-5.07,3.47l-0.34,1.48c-0.43,1.87-0.39,2.82,1.57,3.28l15.74,3.66
					c2.04,0.48,3.9,0.38,5.79,0.31c0,0,4.09-0.43,4.97-0.43c1.68,0,4.39,2.01,4.03,3.57l6.93,1.61c1.51,0.35,2.06,0.11,2.34-1.09
					l1.55-12.73L214.72,215.6z"/>
			</g>
			<g>
				<path class="st17" d="M191.64,222.16l-0.02,0.09c-0.43,1.87-0.39,2.82,1.57,3.28l15.74,3.66c2.04,0.48,3.9,0.38,5.79,0.31
					c0,0,4.09-0.43,4.97-0.43c2.08-0.01-0.47,2.52,1.56,3l9.4,2.19c1.51,0.35,2.06,0.11,2.34-1.09l-0.05-0.87L191.64,222.16z"/>
			</g>
		</g>
	</g>
	<path class="st7" d="M240.84,116.22l-27.6,99.6c-0.63,3.68,14.8,7.26,14.8,7.26c5.3,1.63,6.61-1.16,6.66-1.85
		c0,0,10.62-36.36,15.02-46.95c4.6-11.08,21.03-43.15,21.03-43.15l1.63-9.54L240.84,116.22z"/>
	<path d="M264.11,229.19c0,0,4.86-1.65,7.62-3.26c1.66-0.97,6.7-9.14,6.58-8.29l18.1-6.44l5.75,11.64c0.99,1.72,0.71,2.26-0.7,2.95
		l-6.53,3.22l-1.26-3.5l-9.78,6.25l-4.55,4.95c-2.42,1.19-5,1.43-7.7,1.44l-11.17,0.23c0.06-0.04,0-3.22,0-3.22
		S260.19,230.75,264.11,229.19z"/>
	<path class="st17" d="M274.07,234.78c1.83-0.21,3.87-1.53,7.22-3.29c7.87-4.15,20.1-10.26,20.1-10.26l0.82,1.67
		c0.53,1.19,1.04,2-0.54,2.79l-6.74,3.33l-1.26-3.5c0,0-5.65,4.97-7.61,6.52c-3.94,3.12-6.06,4.35-6.06,4.35
		c-3.12,1.7-5.77,2.03-8.47,2.04l-11.06-0.04c0,0-0.01-3.23,0-3.22C260.46,235.17,269.55,235.31,274.07,234.78z"/>
	<path class="st7" d="M247.5,128.31c0,0,10.55,41.62,14.91,55.2c3.26,10.14,12.78,36.16,12.78,36.16s3.08,5.71,12.03,2.92
		c2.25-0.7,8.98-4.49,8.98-4.49c2.04-1.34,2.31-2.18,1.99-3.73c0,0-9.12-22.59-14.21-34.67c-5.08-12.05-10.02-49.81-10.02-49.81
		L247.5,128.31z"/>
	<path class="st7" d="M5.61,194.86h141.3c3.6,0,6.53-2.93,6.53-6.53v-30.77c0-5.21,2.51-10.15,6.71-13.22l33.43-32.59
		c0.16-0.12,2.09-2.57,5.08-2.57h12.35c1.74,0,3.15,1.28,3.15,2.86v0.32c0,1.58-1.41,2.86-3.15,2.86h-13.23l-34.42,33.5
		c-2.81,2.05-4.48,5.35-4.48,8.82v30.77c0,6.59-5.37,11.96-11.96,11.96H5.61c-1.5,0-2.72-1.22-2.72-2.72
		C2.9,196.07,4.11,194.86,5.61,194.86z"/>
	<path class="st17" d="M243.94,8.12l-10.24,4.76l1.28,25.6c0.58,8.55,4.2,9.82,6.79,9.83c5.39,0.01,11.34-3.07,14.34-4.88
		c5.8-3.49,5.61-13.5,5.65-14.31l1.73-19.94L243.94,8.12z"/>
	<path class="st17" d="M268.42,63.64l-4.34-9.74V32.64h-14.44v18.67c0,2.46-0.04,2.7-1.34,4.78l-7.1,11.33
		c-1.7,2.74-3.62,14.89-3.62,22.54l2.17,34.27l34.33,4.78l-3.8-55.87C270.27,69.89,269.64,66.66,268.42,63.64z"/>
	<path d="M241.79,0.58c-8.91,0.68-8.36,8.13-8,13.48l5.56-0.42c5.04-0.33,5.49,3.25,5.49,4.62v8.72c0,1.14,0.6,2.02,2.28,1.42
		c1.13-0.4,1.83-2.05,2.17-3.28c0,0,0.96-0.79,2.38-0.79h2.15c1.52,0,1.82-0.31,2.2,1.1l1.63,6.39c1.93,7.7,6.04,8.44,6.52,7.48
		c1.66-3.3,5.26-10.47,6.41-13.28C274.19,17.3,273.13,0,252,0L241.79,0.58z"/>
	<path class="st17" d="M252.92,22.86c-3.61,0-4.01,3.46-4.01,3.46v7.24c0,0,0.18,1.58,1.53,1.85c2.05,0.42,2.94-1.38,3.86-3.35
		c0.06-0.11,1.22-3.03,1.29-3.2C256.6,26.4,256.33,22.86,252.92,22.86z"/>
	<path class="st11" d="M271.85,62.37l-7.76-8.47l0,0c0-0.42-0.45-0.68-0.82-0.49l-10.48,5.56c-2.49,1.33-6.23-0.72-7.72,1.67
		l-3.86,6.79c-1.7,2.74-6.78,12.12-6.78,19.77l-0.22,47.83c0.22,6.11,3.79,6.93,6.2,6.93l32.62,0.07c6.79,0.3,5.43-7.72,5.43-7.72
		l-0.83-58.52C277.63,72.53,275.06,65.82,271.85,62.37z"/>
	<path class="st19" d="M216.18,112.2l1.54-6.66c0,0-1.83-1.36-3.94-0.95c-1.62,0.31-12.64,2.17-12.64,2.17s-3.8,1.09-5.43,3.8
		c-0.9,1.5-1.84,5.26-1.84,5.26c0.34,3.43,4.69,2.21,4.69,2.21l9.92-1.36C213.64,115.87,216.06,114.44,216.18,112.2z"/>
	<path class="st19" d="M265.42,85.81c4.17-5.59,6.88-14.72,2.14-19.63c-4.4-4.55-9.22,2.47-11.06,5.12
		c-6.3,9.04-16.18,24.03-17.61,25.22l-27.55,9.01l1.24,8.29c0,0,30.29,1.06,36.42-6.36C253.58,101.92,265.42,85.81,265.42,85.81z"/>
	<g>
		<path class="st14" d="M263.58,50.15c0.93-0.61,1.59-0.39,1.59,0.61v4.16L247.2,66.46c-0.78,0.56-1.44,0.83-1.54-0.06v-5.77
			c0-2.29,0.37-2.49,2.46-3.43L263.58,50.15z"/>
	</g>
	<path class="st17" d="M269.95,63.44c-5.55-3.66-11.32,2.72-13.1,5.61c-0.72,1.16-11.99,17.6-15.84,23.22
		c-0.84,1.22-2.07,2.12-3.48,2.57l-24.3,9.48c-1.62,0.52-1.22,1.77-0.54,3.26l2.85,7.74c0.55,1.67,1.87,1.75,3.58,1.37
		c6.37-1.39,21.06-4.6,27.4-5.93c1.92-0.4,4.88-3.47,5.98-5.09l19.57-26.9C275.73,74.02,275.74,67.25,269.95,63.44z"/>
</g>
</svg>
