<?xml version="1.0" encoding="utf-8"?>
<!-- Generator: Adobe Illustrator 24.3.0, SVG Export Plug-In . SVG Version: 6.00 Build 0)  -->
<svg version="1.1" id="Layer_1" xmlns="http://www.w3.org/2000/svg" xmlns:xlink="http://www.w3.org/1999/xlink" x="0px" y="0px"
	 viewBox="0 0 303.37 225.25" style="enable-background:new 0 0 303.37 225.25;" xml:space="preserve">
<style type="text/css">
	.st0{fill:url(#SVGID_1_);}
	.st1{opacity:0.5;clip-path:url(#SVGID_3_);}
	.st2{fill:#FEFAA1;}
	.st3{fill:#FDC940;}
	.st4{fill:#343D3A;}
	.st5{fill:url(#SVGID_4_);}
	.st6{opacity:0.5;clip-path:url(#SVGID_6_);}
	.st7{fill:#FFFFFF;}
	.st8{fill:#E2AC00;}
	.st9{fill:url(#SVGID_7_);}
	.st10{fill:#FFC800;}
	.st11{fill:#D1D3D4;}
	.st12{fill:none;stroke:#FFFFFF;stroke-width:1.0454;stroke-linecap:round;stroke-linejoin:round;stroke-miterlimit:10;}
	.st13{fill:url(#SVGID_8_);}
	.st14{fill:#F5F5F5;}
	.st15{fill:#BCBEC0;}
	.st16{fill:#A7A9AC;}
	.st17{fill:#E6E7E8;}
	.st18{fill:#545454;}
	.st19{fill:#FFE8D9;}
	.st20{fill:url(#SVGID_9_);}
	.st21{fill:#F1F2F2;}
	.st22{fill:#D9E1EB;}
	.st23{fill:#F5F7FA;}
	.st24{fill:#D4DDE9;}
	.st25{fill:url(#SVGID_10_);}
	.st26{clip-path:url(#SVGID_12_);}
	.st27{fill:#CDCDD1;}
	.st28{fill:none;stroke:#3F3F3F;stroke-width:0.2643;stroke-miterlimit:10;}
	.st29{fill:#3F3F3F;}
	.st30{fill:#B7B7B7;}
	.st31{fill:none;stroke:#FFFFFF;stroke-width:0.4428;stroke-miterlimit:10;}
	.st32{fill:#D3D1D1;}
	.st33{fill:#1D1E1C;}
	.st34{opacity:0.25;}
	.st35{fill:none;stroke:#FFFFFF;stroke-width:0.8856;stroke-miterlimit:10;}
	.st36{fill:#FFC401;}
	.st37{fill:none;stroke:#FFC401;stroke-miterlimit:10;}
	.st38{fill:none;stroke:#343D3A;stroke-miterlimit:10;}
	.st39{fill:none;stroke:#FFFFFF;stroke-width:1.5;stroke-miterlimit:10;}
	.st40{fill:#FFC504;}
	.st41{fill:#2F3030;}
	.st42{clip-path:url(#SVGID_14_);}
	.st43{fill:none;stroke:#000000;stroke-width:0.2643;stroke-miterlimit:10;}
	.st44{clip-path:url(#SVGID_16_);}
	.st45{font-family:'Roboto-Regular';}
	.st46{font-size:20.2848px;}
</style>
<g>
	<g>
		<defs>
			<rect id="SVGID_15_" width="303.37" height="221.23"/>
		</defs>
		<clipPath id="SVGID_1_">
			<use xlink:href="#SVGID_15_"  style="overflow:visible;"/>
		</clipPath>
		<g style="clip-path:url(#SVGID_1_);">
			<g>
				<polygon class="st7" points="-8.6,366.43 -5.75,366.43 49.63,149.52 46.78,149.52 				"/>
				<polygon class="st27" points="166.17,203.69 25.8,203.69 6.65,4.9 147.02,4.9 				"/>
				<polygon class="st7" points="169.26,203.69 28.9,203.69 9.75,4.9 150.11,4.9 				"/>
				<polygon class="st7" points="154.95,5.16 1.01,5.16 0.65,1.49 154.6,1.49 				"/>
				<polygon class="st7" points="174.33,206.29 20.38,206.29 20.03,202.62 173.97,202.62 				"/>
				<polygon class="st7" points="45.75,366.43 42.76,366.43 52.08,203.45 55.07,203.45 				"/>
				<polygon class="st7" points="180.28,366.43 183.27,366.43 142.55,203.45 139.56,203.45 				"/>
				<polygon class="st7" points="115.63,366.43 112.78,366.43 97.18,204.46 100.03,204.46 				"/>
				<g>
					<text transform="matrix(0.9954 0 0.0959 0.9954 38.6006 47.2213)"><tspan x="0" y="0" class="st45 st46">BUSINESS</tspan><tspan x="0.9" y="20.11" class="st45 st46">TRAINING</tspan></text>
					<path class="st43" d="M137.72,76.57H38.42c-6.87,0-12.98-5.57-13.64-12.44l-2.79-28.99c-0.66-6.87,4.37-12.44,11.24-12.44
						h99.31c6.87,0,12.98,5.57,13.64,12.44l2.79,28.99C149.63,71,144.6,76.57,137.72,76.57z"/>
					<path d="M86.57,114.4H47.51c-6.25,0-11.8-5.06-12.4-11.31l0,0c-0.6-6.25,3.97-11.31,10.22-11.31h39.07
						c6.25,0,11.8,5.06,12.4,11.31l0,0C97.4,109.34,92.82,114.4,86.57,114.4z"/>
					<path d="M107.25,183.9H68.18c-6.25,0-11.8-5.06-12.4-11.31v0c-0.6-6.25,3.97-11.31,10.22-11.31h39.07
						c6.25,0,11.8,5.06,12.4,11.31v0C118.07,178.84,113.5,183.9,107.25,183.9z"/>
					<path class="st43" d="M142.67,146.06h-39.07c-6.25,0-11.8-5.06-12.4-11.31l0,0c-0.6-6.25,3.97-11.31,10.22-11.31h39.07
						c6.25,0,11.8,5.06,12.4,11.31l0,0C153.49,141,148.92,146.06,142.67,146.06z"/>
					<line class="st43" x1="63.38" y1="76.57" x2="65.93" y2="103.09"/>
					<path class="st43" d="M99.62,76.98l0.42,4.32c0.43,4.43,4.36,8.02,8.79,8.02h0c4.43,0,8.36,3.59,8.79,8.02l2.52,26.11"/>
					<path class="st43" d="M91.21,134.76H52.14c-6.59,0-11.41,5.34-10.78,11.93l1.49,15.42c0.63,6.59,6.49,11.93,13.07,11.93l0,0"/>
					<path class="st43" d="M117.47,172.59h9.67c6.02,0,10.43-4.88,9.85-10.9l-1.47-15.22"/>
					<g>
						<path class="st7" d="M86.68,97.82H45.06c-0.47,0-0.88-0.38-0.93-0.85l0,0c-0.05-0.47,0.3-0.85,0.76-0.85h41.63
							c0.47,0,0.88,0.38,0.93,0.85l0,0C87.49,97.44,87.15,97.82,86.68,97.82z"/>
						<path class="st7" d="M87.08,101.88H45.45c-0.47,0-0.88-0.38-0.93-0.85l0,0c-0.05-0.47,0.3-0.85,0.76-0.85h41.63
							c0.47,0,0.88,0.38,0.93,0.85l0,0C87.89,101.5,87.54,101.88,87.08,101.88z"/>
						<path class="st7" d="M87.47,105.94H45.84c-0.47,0-0.88-0.38-0.93-0.85l0,0c-0.05-0.47,0.3-0.85,0.76-0.85H87.3
							c0.47,0,0.88,0.38,0.93,0.85l0,0C88.28,105.56,87.93,105.94,87.47,105.94z"/>
						<path class="st7" d="M87.86,110H46.23c-0.47,0-0.88-0.38-0.93-0.85l0,0c-0.04-0.47,0.3-0.85,0.76-0.85h41.63
							c0.47,0,0.88,0.38,0.93,0.85l0,0C88.67,109.62,88.33,110,87.86,110z"/>
					</g>
					<g>
						<path class="st7" d="M107.27,167.48H65.65c-0.47,0-0.88-0.38-0.93-0.85l0,0c-0.04-0.47,0.3-0.85,0.76-0.85h41.63
							c0.47,0,0.88,0.38,0.93,0.85l0,0C108.08,167.11,107.74,167.48,107.27,167.48z"/>
						<path class="st7" d="M107.66,171.55H66.04c-0.47,0-0.88-0.38-0.93-0.85l0,0c-0.05-0.47,0.3-0.85,0.76-0.85h41.63
							c0.47,0,0.88,0.38,0.93,0.85l0,0C108.47,171.17,108.13,171.55,107.66,171.55z"/>
						<path class="st7" d="M108.06,175.61H66.43c-0.47,0-0.88-0.38-0.93-0.85l0,0c-0.05-0.47,0.3-0.85,0.76-0.85h41.63
							c0.47,0,0.88,0.38,0.93,0.85l0,0C108.86,175.23,108.52,175.61,108.06,175.61z"/>
						<path class="st7" d="M108.45,179.67H66.82c-0.47,0-0.88-0.38-0.93-0.85l0,0c-0.05-0.47,0.3-0.85,0.76-0.85h41.63
							c0.47,0,0.88,0.38,0.93,0.85l0,0C109.26,179.29,108.91,179.67,108.45,179.67z"/>
					</g>
					<g>
						<path d="M142.52,130.02h-41.63c-0.47,0-0.88-0.38-0.93-0.85l0,0c-0.05-0.47,0.3-0.85,0.76-0.85h41.63
							c0.47,0,0.88,0.38,0.93,0.85l0,0C143.33,129.64,142.99,130.02,142.52,130.02z"/>
						<path d="M142.91,134.08h-41.63c-0.47,0-0.88-0.38-0.93-0.85l0,0c-0.05-0.47,0.3-0.85,0.76-0.85h41.63
							c0.47,0,0.88,0.38,0.93,0.85l0,0C143.72,133.7,143.38,134.08,142.91,134.08z"/>
						<path d="M143.3,138.14h-41.63c-0.47,0-0.88-0.38-0.93-0.85l0,0c-0.04-0.47,0.3-0.85,0.76-0.85h41.63
							c0.47,0,0.88,0.38,0.93,0.85l0,0C144.11,137.76,143.77,138.14,143.3,138.14z"/>
						<path d="M143.69,142.2h-41.63c-0.47,0-0.88-0.38-0.93-0.85l0,0c-0.05-0.47,0.3-0.85,0.76-0.85h41.63
							c0.47,0,0.88,0.38,0.93,0.85l0,0C144.5,141.82,144.16,142.2,143.69,142.2z"/>
					</g>
				</g>
			</g>
			<g>
				<g>
					<g>
						<path class="st30" d="M160.92,89.97c0,0-1.91-10.18-3.44-11.62c-1.54-1.44-5.71-3.99-5.71-3.99s-9.98-23.21-12.48-22.9
							s5.57,19.48,5.57,19.48s-12.39,4.22-11.85,10.1c0.97,10.59,12.51,13.14,12.51,13.14l4.32,6.22L160.92,89.97z"/>
					</g>
					<g>
						<g>
							<path class="st7" d="M151.77,74.35c-2.35-1.05-4.68-2.14-7-3.24l0.28-0.11c-0.27,0.94-0.18,2.02,0.07,2.99
								c0.27,0.99,0.72,1.92,1.31,2.77c0.58,0.86,1.27,1.64,2.03,2.33c0.76,0.68,1.64,1.29,2.56,1.62l0.27,0.1l-0.11,0.26
								c-0.41,1.01-0.69,2.11-0.89,3.2c-0.2,1.1-0.32,2.21-0.35,3.33c-0.03,2.23,0.21,4.5,0.97,6.63c-0.48-1.03-0.77-2.13-1-3.24
								c-0.22-1.12-0.32-2.25-0.34-3.39c-0.01-1.14,0.05-2.28,0.24-3.41c0.19-1.13,0.46-2.23,0.89-3.33l0.17,0.36
								c-1.08-0.37-1.96-1-2.79-1.71c-0.8-0.73-1.5-1.56-2.09-2.46c-0.6-0.89-1.07-1.89-1.35-2.95c-0.26-1.06-0.32-2.18,0.03-3.26
								l0.07-0.22l0.21,0.11C147.23,71.92,149.51,73.12,151.77,74.35z"/>
						</g>
						<g>
							<path class="st7" d="M145.31,94.03c1.04-0.07,1.88-0.58,2.56-1.25c0.34-0.34,0.64-0.73,0.93-1.13
								c0.29-0.4,0.56-0.84,0.89-1.25c-0.11,0.51-0.29,1-0.51,1.47c-0.22,0.48-0.53,0.92-0.91,1.31c-0.39,0.38-0.85,0.69-1.38,0.85
								C146.38,94.2,145.8,94.23,145.31,94.03z"/>
						</g>
						<g>
							<path class="st7" d="M148.95,91.76c-1.08-1.33-2.04-2.76-2.9-4.25c-0.86-1.49-1.59-3.05-2.26-4.64
								c-0.62-1.61-1.17-3.24-1.58-4.91c-0.41-1.67-0.71-3.37-0.85-5.08c0.37,1.67,0.78,3.33,1.27,4.96
								c0.49,1.63,1.03,3.24,1.69,4.81c0.61,1.59,1.34,3.13,2.11,4.64C147.2,88.81,148.06,90.29,148.95,91.76z"/>
						</g>
						<g>
							<path class="st7" d="M147.35,93.61c-1.56-0.9-3-2-4.31-3.24c-1.31-1.24-2.47-2.64-3.51-4.12c-1-1.51-1.88-3.1-2.56-4.77
								c-0.68-1.67-1.19-3.42-1.45-5.19c0.5,1.72,1.1,3.41,1.85,5.02c0.75,1.61,1.61,3.17,2.63,4.63c0.98,1.48,2.12,2.85,3.35,4.13
								C144.57,91.34,145.92,92.52,147.35,93.61z"/>
						</g>
					</g>
				</g>
				<path class="st7" d="M180.23,345.5l26.82-199.59l50.47,0.69l27.12,198.9c0,0-3.39,5.68-16.63,6.65
					c-12.08,0.88-17.71-4.98-17.71-4.98l-19.42-137.34l-16.82,136.87c0,0-7.52,4.71-18.21,3.78S180.23,345.5,180.23,345.5z"/>
				<path class="st30" d="M209.94,31.06c-0.99,3.19-1.12,6.57-1.24,9.91c-0.11,3.1-0.22,6.22,0.15,9.31
					c0.31,2.62,0.97,5.19,1.8,7.69c0.7,2.11,1.55,4.21,2.86,6.01c2.1,2.88,5.38,4.86,8.91,5.38c5.15,0.75,10.4-1.6,14.17-5.2
					s6.26-8.31,8.35-13.08c1.46-3.34,2.78-6.8,3.19-10.42c0.77-6.69-1.77-13.69-6.65-18.33c-3.97-3.78-9.41-5.93-14.88-6.02
					c-4.99-0.08-8.89,3.3-12.09,6.91C212.47,25.49,210.85,28.14,209.94,31.06z"/>
				<path class="st7" d="M243.78,58.46c3.27,0.41,6.7-0.95,8.8-3.48c2.1-2.54,2.89-6.28,1.87-9.41c2.18-0.62,3.94-2.3,5.18-4.2
					c1.23-1.89,2.03-4.12,1.94-6.37c-0.09-2.25-1.21-4.39-3.11-5.61c1.74-1.39,2.79-3.55,3.04-5.76c0.25-2.21-0.26-4.47-1.23-6.47
					c-0.87-1.8-2.16-3.45-3.91-4.4c-1.75-0.95-3.81-1.35-5.5-0.3c0.22-3.86-2.24-7.73-5.84-9.17c-3.59-1.44-7.95-0.46-10.46,2.49
					c-2.09-3.03-5.95-4.73-9.59-4.24c-3.65,0.5-6.57,3.47-7.77,6.95c-3.01-1.31-6.75-0.44-9.06,1.89c-2.31,2.33-3.08,5.63-2.33,8.82
					c-2.68,0.97-4.74,3.4-5.42,6.16s-0.01,5.8,1.64,8.13c1.64,2.33,4.16,4.21,6.93,4.87c-0.14-1.96,0.31-3.88,0.93-5.75
					c2.68,0.38,5.5-0.43,7.56-2.19c2.06-1.75,3.63-4.56,3.68-7.26c0.75,2.84,3.65,4.83,6.59,4.96c2.94,0.13,5.93-1.61,7.93-3.78
					c0.01,2.07,0.67,4.17,2.02,5.75c1.35,1.57,3.38,2.45,5.45,2.33c-0.57,2.5-0.52,5.13,0.13,7.61
					C243.85,42.33,244.75,54.08,243.78,58.46z"/>
				<g>
					<path class="st30" d="M252.61,44.56c-0.2,2.4-1.48,4.68-3.41,6.11c-0.6,0.45-1.29,0.82-2.04,0.92
						c-1.68,0.22-3.29-1.08-3.9-2.66c-0.61-1.58-0.41-3.36,0.01-5.01c0.54-2.13,1.69-4.39,3.79-5.01
						C250.46,37.9,252.86,41.59,252.61,44.56z"/>
					<path class="st32" d="M245.06,49.64c0.73-0.27,1.37-0.74,1.85-1.35c0.1-0.12,0.19-0.26,0.2-0.41c0.03-0.3-0.21-0.54-0.43-0.74
						c-0.45-0.4-0.9-0.8-1.35-1.2c-0.09-0.08-0.18-0.16-0.22-0.28c-0.04-0.12-0.01-0.26,0.02-0.39c0.39-1.64,0.86-3.4,2.19-4.43
						c0.36-0.28,0.78-0.49,1.24-0.53c0.67-0.05,1.32,0.3,1.79,0.79c0.46,0.49,0.76,1.11,1.04,1.72c0,0,0.55,3.42-1.72,5.63
						C247.39,50.68,245.06,49.64,245.06,49.64z"/>
					<g>
						<path class="st7" d="M251.38,42.83c-0.31-0.62-0.65-1.24-1.15-1.71c-0.48-0.47-1.15-0.78-1.79-0.66
							c-0.63,0.12-1.19,0.56-1.62,1.07c-0.43,0.52-0.73,1.13-0.96,1.77c-0.24,0.64-0.41,1.31-0.58,1.98c-0.04,0.17-0.06,0.29,0,0.38
							c0.07,0.1,0.22,0.22,0.35,0.33l0.77,0.7c0.24,0.25,0.54,0.44,0.74,0.79c0.1,0.17,0.11,0.42,0.02,0.59
							c-0.09,0.18-0.21,0.31-0.33,0.44c-0.49,0.52-1.1,0.9-1.76,1.12c0.64-0.27,1.21-0.7,1.63-1.23c0.22-0.26,0.43-0.55,0.25-0.81
							c-0.16-0.26-0.47-0.46-0.72-0.69l-0.79-0.68c-0.13-0.12-0.26-0.2-0.4-0.39c-0.15-0.21-0.09-0.47-0.05-0.63
							c0.16-0.68,0.32-1.36,0.56-2.03c0.25-0.66,0.58-1.31,1.05-1.86c0.47-0.53,1.07-1.03,1.82-1.13c0.76-0.1,1.47,0.29,1.95,0.81
							C250.83,41.54,251.12,42.19,251.38,42.83z"/>
					</g>
				</g>
				<path class="st30" d="M244.79,49.92c0.18,5.05,0.36,10.1,0.54,15.15c0.08,2.35,0.18,4.74,0.88,6.99
					c0.71,2.25,2.13,4.37,4.24,5.41c-3.7,5.33-8.8,9.64-15,11.56c-1.6,0.5-3.37,0.85-4.92,0.23c-1.27-0.5-2.21-1.57-3.03-2.65
					c-1.68-2.21-3.07-4.65-4.11-7.23c1.44-0.31,2.01-1.71,2.45-3.12c0.44-1.41,0.37-2.92,0.29-4.39c-0.1-2-0.21-4.01-0.31-6.01"/>
				<path class="st7" d="M225.94,69.42c4.31-0.35,8.44-2.78,11.19-6.57c-1.71,4.77-6.27,8.42-10.95,9.21L225.94,69.42z"/>
				<g>
					<path class="st7" d="M222.94,38.64c-1.21,1.99-2.09,4.15-2.65,6.38c-0.28,1.12-0.43,2.26-0.54,3.41
						c-0.1,1.15-0.08,2.3,0.02,3.45l-0.14-0.16c1.62,0.45,3.33,0.49,5.01,0.19c-1.63,0.49-3.41,0.55-5.09,0.16l-0.12-0.03
						l-0.02-0.13c-0.14-1.17-0.16-2.35-0.09-3.52c0.07-1.17,0.29-2.34,0.58-3.47C220.49,42.66,221.53,40.5,222.94,38.64z"/>
				</g>
				<g>
					<path class="st7" d="M209.92,36.15c1.51-0.98,3.27-1.63,5.09-1.89c0.91-0.13,1.84-0.25,2.76-0.1c0.91,0.15,1.81,0.42,2.6,0.92
						l-0.03,0.08l-2.66-0.12c-0.86-0.02-1.73-0.13-2.61-0.08c-1.74,0.1-3.49,0.52-5.12,1.26L209.92,36.15z"/>
				</g>
				<g>
					<path class="st7" d="M236.87,37.24c-1.67-0.94-3.5-1.55-5.35-1.84c-0.93-0.15-1.87-0.13-2.8-0.2l-2.85-0.16l-0.02-0.09
						c0.9-0.42,1.89-0.6,2.88-0.64c0.99-0.05,1.97,0.17,2.93,0.4c1.91,0.46,3.72,1.3,5.26,2.46L236.87,37.24z"/>
				</g>
				<path class="st7" d="M217.44,40.7c0,1.02-0.61,1.85-1.35,1.85s-1.35-0.83-1.35-1.85c0-1.02,0.61-1.85,1.35-1.85
					S217.44,39.68,217.44,40.7z"/>
				<path class="st7" d="M231.21,40.7c0,1.02-0.61,1.85-1.35,1.85s-1.35-0.83-1.35-1.85c0-1.02,0.61-1.85,1.35-1.85
					S231.21,39.68,231.21,40.7z"/>
				<g>
					<path class="st7" d="M224.56,57.49c1.12-0.76,2.5-1.17,3.85-1.1c0.36-0.61,0.52-1.06,0.52-1.06s-3.55,1.47-6.24,1.47
						c-2.69,0-5.69-1.47-5.69-1.47s1.62,4,5.48,4.37C223.03,58.83,223.72,58.06,224.56,57.49z"/>
					<path d="M224.56,57.49c-0.84,0.57-1.53,1.35-2.07,2.21c0.19,0.02,0.38,0.04,0.57,0.04c2.92,0,4.58-2.04,5.35-3.34
						C227.06,56.31,225.69,56.72,224.56,57.49z"/>
				</g>
				<g class="st34">
					<g>
						<path class="st7" d="M230.25,19.87c1.32-1.22,3.34-1.67,5.11-1.13c1.76,0.56,3.23,2.04,3.69,3.85l-0.32-0.12
							c0.55-0.37,1.23-0.55,1.88-0.55c0.66,0,1.29,0.18,1.88,0.42c1.2,0.51,2.1,1.61,2.36,2.83c-0.4-1.19-1.34-2.14-2.47-2.56
							c-1.13-0.41-2.45-0.5-3.42,0.19l-0.23,0.17l-0.08-0.28c-0.47-1.64-1.76-3.06-3.4-3.6C233.62,18.53,231.7,18.83,230.25,19.87z"
							/>
					</g>
					<g>
						<path class="st7" d="M221.39,10.32c0.84-1.24,2.4-1.97,3.94-1.85c1.54,0.15,3,1.11,3.67,2.52l-0.34-0.04
							c0.37-0.42,0.85-0.74,1.37-0.93c0.52-0.19,1.07-0.24,1.61-0.23c1.09,0.02,2.14,0.52,2.83,1.31c-0.79-0.69-1.82-1.05-2.83-1.01
							c-1.01,0.04-2.03,0.36-2.66,1.14l-0.2,0.24l-0.15-0.28c-0.65-1.24-1.92-2.18-3.33-2.33C223.89,8.66,222.39,9.22,221.39,10.32z
							"/>
					</g>
					<g>
						<path class="st7" d="M220.35,17.74c-1.16-0.31-2.42-0.16-3.41,0.42c-1.01,0.56-1.75,1.56-2.04,2.66l-0.06,0.22l-0.21-0.07
							c-0.9-0.29-1.92-0.2-2.73,0.29c-0.81,0.52-1.41,1.35-1.78,2.28c0.22-0.98,0.76-1.92,1.6-2.54c0.86-0.65,2.03-0.73,3.03-0.44
							l-0.27,0.15c0.3-1.23,1.17-2.3,2.29-2.87C217.89,17.29,219.24,17.24,220.35,17.74z"/>
					</g>
					<g>
						<path class="st7" d="M248.7,16.76c0.94-0.04,1.89,0.38,2.56,1.1c0.65,0.73,1,1.73,0.91,2.71l-0.22-0.24
							c0.89,0.02,1.74,0.4,2.35,1c0.62,0.59,1.05,1.39,1.08,2.23c-0.2-0.8-0.69-1.49-1.3-1.98c-0.62-0.48-1.37-0.83-2.13-0.81
							l-0.24,0.01l0.02-0.24c0.08-0.86-0.19-1.76-0.74-2.45C250.45,17.39,249.62,16.91,248.7,16.76z"/>
					</g>
					<g>
						<path class="st7" d="M249.53,33.05c0.93-0.23,1.99,0.03,2.76,0.67c0.76,0.66,1.23,1.66,1.18,2.68l-0.31-0.2
							c0.75-0.36,1.62-0.42,2.4-0.18c0.77,0.22,1.48,0.72,1.84,1.42c-0.49-0.6-1.19-0.96-1.92-1.11c-0.72-0.13-1.49-0.08-2.13,0.26
							l-0.31,0.17l0-0.37c0.01-0.88-0.34-1.78-1-2.4C251.41,33.36,250.48,33.02,249.53,33.05z"/>
					</g>
				</g>
				<g>
					<path class="st27" d="M303.41,150.94c1.6-4.57-18.73-54.12-27.86-61.2c-9.13-7.08-28.54-14.84-28.54-14.84l-16.46,14.35
						l-7.15-9.88c0,0-18.87,6.26-22.75,8.54c-3.88,2.28-20.78,31.28-20.78,31.28l-18.95-29.23c0,0-3.2,0.91-8.22,3.65
						c-5.02,2.74-7.76,6.39-7.76,6.39s22.38,45.67,29,48.64c6.62,2.97,30.14-24.43,30.14-24.43l2.97,21.69c0,0,8.91,8.22,23.52,8.68
						s26.95-7.99,26.95-7.99l6.62-33.11l15.07,32.43l-20.55,10.05l7.08,16.21C265.74,172.17,301.82,155.5,303.41,150.94z"/>
					<g>
						<path class="st7" d="M221.67,80.17l0,6.4l-0.05,6.4l-0.19-0.13l9.04-3.78l0.09-0.04l0.08,0.05c1.58,0.93,3.18,1.83,4.76,2.77
							l4.73,2.82l-0.25,0.06l5.52-9.25c1.83-3.09,3.72-6.14,5.58-9.21c-1.78,3.12-3.54,6.25-5.36,9.34l-5.43,9.31l-0.09,0.16
							l-0.16-0.09l-4.76-2.76c-1.59-0.92-3.16-1.87-4.74-2.81l0.17,0.01l-9.08,3.67l-0.2,0.08l0-0.21l0.14-6.4L221.67,80.17z"/>
					</g>
					<line class="st31" x1="230.55" y1="89.25" x2="230.57" y2="154.59"/>
					<path class="st7" d="M237.08,112c0,0.56-0.46,1.02-1.02,1.02c-0.56,0-1.02-0.46-1.02-1.02c0-0.56,0.46-1.02,1.02-1.02
						C236.62,110.98,237.08,111.43,237.08,112z"/>
					<circle class="st7" cx="236.33" cy="130.09" r="1.02"/>
					<g>
						<path class="st7" d="M263.02,118.58c0.6-3.47,1.43-6.9,2.31-10.31c0.93-3.4,1.91-6.78,3.11-10.1
							c-0.85,3.42-1.81,6.8-2.68,10.21C264.83,111.77,263.98,115.18,263.02,118.58z"/>
					</g>
					<g>
						<path class="st7" d="M201.17,99.29l0.86,8.19c0.31,2.73,0.61,5.45,0.97,8.17c0.33,2.72,0.71,5.44,1.1,8.16l1.21,8.15
							c-0.58-2.69-1.09-5.38-1.54-8.09c-0.46-2.71-0.84-5.43-1.2-8.15c-0.33-2.73-0.64-5.46-0.87-8.19
							C201.45,104.78,201.28,102.03,201.17,99.29z"/>
					</g>
					<g>
						<path class="st7" d="M178.65,117.26c1.53,1.87,2.89,3.87,4.22,5.88c1.29,2.04,2.56,4.09,3.65,6.25c-1.4-1.97-2.69-4-4.02-6.01
							C181.21,121.35,179.88,119.34,178.65,117.26z"/>
					</g>
					<path class="st31" d="M148.14,106.46c4.8-4.62,10.74-7.88,17.15-9.72"/>
					<path class="st31" d="M264.54,153.1c2.5,1.84,4.32,4.52,5.37,7.43c1.06,2.92,1.39,6.06,1.26,9.16"/>
				</g>
				<g>
					<path class="st7" d="M232.94,230.46c-0.42-3.43-0.82-6.86-1.2-10.3l-1.08-10.31l0.04,0.1l-5.98-8.77
						c-1.98-2.93-3.94-5.88-5.88-8.84c2.07,2.87,4.13,5.75,6.16,8.64l6.06,8.71l0.03,0.05l0.01,0.06l0.98,10.32
						C232.39,223.57,232.68,227.02,232.94,230.46z"/>
				</g>
				<g>
					<path class="st7" d="M205.86,151.16c1.75,1.57,3.66,2.95,5.69,4.14c2.01,1.21,4.13,2.22,6.33,3.04
						c4.39,1.63,9.07,2.47,13.75,2.48c4.68,0.06,9.36-0.7,13.82-2.15c2.23-0.72,4.41-1.62,6.51-2.66c2.11-1.03,4.15-2.21,6.09-3.53
						c-1.9,1.38-3.91,2.63-5.99,3.73c-2.1,1.08-4.28,2-6.51,2.75c-4.47,1.5-9.19,2.32-13.92,2.31c-4.73-0.06-9.44-0.96-13.85-2.65
						c-2.2-0.85-4.33-1.89-6.34-3.13C209.43,154.23,207.56,152.78,205.86,151.16z"/>
				</g>
				<path class="st31" d="M224.57,160.4c-0.66,5.61-1.05,11.24-1.17,16.88c-0.04,1.63-0.04,3.3,0.5,4.85
					c0.54,1.54,1.73,2.95,3.33,3.31c0.98-8.05,1.96-15.99,2.94-24.04"/>
				<path class="st30" d="M265.25,170.89c0,0-0.84,0.45-2.86,0.52c-2.02,0.08-4.36-0.44-5.8-1.87c-1.46,1.51-1.55,3.84-2.48,5.72
					c-0.11,0.22-0.25,0.45-0.48,0.5c-0.38,0.09-0.67-0.33-0.82-0.69c-1.59-3.86-0.84-8.71,2.01-11.75
					c-1.39,1.49-2.81,3.01-3.67,4.85c-0.6,1.29-0.93,2.74-1.84,3.84c-0.09,0.11-0.2,0.22-0.34,0.24c-0.15,0.02-0.29-0.08-0.4-0.18
					c-0.55-0.56-0.5-1.45-0.37-2.22c0.69-4.15,2.55-7.93,5.4-11.02c-3.7,2-6.66,5.33-8.21,9.24c-0.16,0.4-0.31,0.82-0.63,1.1
					c-0.32,0.28-0.87,0.36-1.16,0.04c-0.05-0.05-0.08-0.11-0.11-0.17c-0.51-1.02-0.49-2.23-0.21-3.33c1.27-5.08,4.67-9.79,9.3-12.31
					c-4.72,1.52-8.81,4.95-11.06,9.38c-0.28,0.54-0.65,1.08-1.21,1.32c-0.04,0.01-0.07,0.02-0.11,0.02c-0.24,0-0.34-0.31-0.37-0.55
					c-0.31-3.21,0.92-6.48,3.05-8.9c2.13-2.42,4.94-4.73,8.16-4.73c0,0,2.71,1.31,5.24,3.58c1.07,0.96,2.37,2.19,3.52,3.28
					c1.86,1.77,3.15,4.05,3.73,6.55L265.25,170.89z"/>
			</g>
		</g>
	</g>
	<rect x="18.54" y="221.23" class="st21" width="257.46" height="4.02"/>
</g>
</svg>
