<?xml version="1.0" encoding="utf-8"?>
<!-- Generator: Adobe Illustrator 24.3.0, SVG Export Plug-In . SVG Version: 6.00 Build 0)  -->
<svg version="1.1" id="Layer_1" xmlns="http://www.w3.org/2000/svg" xmlns:xlink="http://www.w3.org/1999/xlink" x="0px" y="0px"
	 viewBox="0 0 303.37 246.17" style="enable-background:new 0 0 303.37 246.17;" xml:space="preserve">
<style type="text/css">
	.st0{fill:url(#SVGID_1_);}
	.st1{opacity:0.5;clip-path:url(#SVGID_3_);}
	.st2{fill:#FEFAA1;}
	.st3{fill:#FDC940;}
	.st4{fill:#343D3A;}
	.st5{fill:url(#SVGID_4_);}
	.st6{opacity:0.5;clip-path:url(#SVGID_6_);}
	.st7{fill:#FFFFFF;}
	.st8{fill:#E2AC00;}
	.st9{fill:url(#SVGID_7_);}
	.st10{fill:#FFC800;}
	.st11{fill:#D1D3D4;}
	.st12{fill:none;stroke:#FFFFFF;stroke-width:1.0454;stroke-linecap:round;stroke-linejoin:round;stroke-miterlimit:10;}
	.st13{fill:url(#SVGID_8_);}
	.st14{fill:#F5F5F5;}
	.st15{fill:#BCBEC0;}
	.st16{fill:#A7A9AC;}
	.st17{fill:#E6E7E8;}
	.st18{fill:#545454;}
	.st19{fill:#FFE8D9;}
	.st20{fill:url(#SVGID_9_);}
	.st21{fill:#F1F2F2;}
	.st22{fill:#D9E1EB;}
	.st23{fill:#F5F7FA;}
	.st24{fill:#D4DDE9;}
	.st25{fill:url(#SVGID_10_);}
	.st26{clip-path:url(#SVGID_12_);}
	.st27{fill:#CDCDD1;}
	.st28{fill:none;stroke:#3F3F3F;stroke-width:0.2643;stroke-miterlimit:10;}
	.st29{fill:#3F3F3F;}
	.st30{fill:#B7B7B7;}
	.st31{fill:none;stroke:#FFFFFF;stroke-width:0.4428;stroke-miterlimit:10;}
	.st32{fill:#D3D1D1;}
	.st33{fill:#1D1E1C;}
	.st34{opacity:0.25;}
	.st35{fill:none;stroke:#FFFFFF;stroke-width:0.8856;stroke-miterlimit:10;}
	.st36{fill:#FFC401;}
	.st37{fill:none;stroke:#FFC401;stroke-miterlimit:10;}
	.st38{fill:none;stroke:#343D3A;stroke-miterlimit:10;}
	.st39{fill:none;stroke:#FFFFFF;stroke-width:1.5;stroke-miterlimit:10;}
	.st40{fill:#FFC504;}
	.st41{fill:#2F3030;}
	.st42{clip-path:url(#SVGID_14_);}
	.st43{fill:none;stroke:#000000;stroke-width:0.2643;stroke-miterlimit:10;}
	.st44{clip-path:url(#SVGID_16_);}
</style>
<g>
	<g>
		<g>
			<g>
				<path class="st21" d="M73.29,63.74c0,0-2.78,23.29-3.85,25.21c-1.07,1.92-1.07,1.92-1.07,1.92l-5.34,3.63
					c0,0,10.26,14.53,22.86,16.88s11.54-5.13,11.54-5.13l-1.92-4.06l2.56-22.22C98.07,79.98,75.21,69.51,73.29,63.74z"/>
			</g>
			<path class="st7" d="M56.41,96.43l8.33-3.63c0,0,5.34,8.76,17.73,13.89s12.61,2.14,13.25,0c0.64-2.14-0.21-4.49-0.21-4.49
				l0.92-7.48l4.96,1.65l17.2,139.15l-44.23,2.14L56.41,96.43z"/>
			<g>
				<path class="st17" d="M97.22,94.86c0,0,2.99,6.91,5.77,23.15c2.78,16.24,5.34,43.59,5.98,62.39s1.07,61.75,1.07,61.75
					s55.12,0,55.76,0c0.64,0,4.49-21.15,4.49-21.15s-24.36-20.87-25.64-24.29c-0.85-2.28-0.43-44.51-4.06-63.95
					c-3.63-19.44-8.33-23.36-18.16-28.2C112.27,99.54,97.22,94.86,97.22,94.86z"/>
			</g>
			<g>
				<path d="M126.27,217.66c-0.29,0-0.52-0.23-0.52-0.52c0-1.53-0.27-23.23-0.53-44.22c-0.26-20.99-0.53-42.7-0.53-44.23
					c0-0.29,0.23-0.52,0.52-0.52s0.52,0.23,0.52,0.52c0,1.53,0.27,23.23,0.53,44.22c0.26,20.99,0.53,42.7,0.53,44.23
					C126.79,217.43,126.56,217.66,126.27,217.66z"/>
			</g>
			<g>
				<path class="st17" d="M15.17,212.44l-0.43,29.7H79.7c0,0,2.78-25.21,1.71-27.56C80.34,212.23,15.17,212.44,15.17,212.44z"/>
			</g>
			<g>
				<path d="M87.46,88.31c2.65,2.13,6.27,3.85,9.09,4.88l1.52-13.21c0,0-17.17-7.87-23-13.72C76.29,72.91,79.28,81.72,87.46,88.31z"
					/>
			</g>
			<g>
				<path class="st21" d="M118.15,20.37c0,0,4.49,7.69,5.34,17.09c0.85,9.4,0,33.54-7.69,43.8c-7.69,10.26-23.72,7.26-30.98,1.07
					c-6.67-5.69-13.25-11.96-14.96-24.36c-1.71-12.39,3.63-35.89,18.8-40.81C103.84,12.25,118.15,20.37,118.15,20.37z"/>
			</g>
			<g>
				<g>
					<path class="st21" d="M137.43,228.71c0,0-0.75,0-1.9-0.03c-0.27-0.01-0.57,0-0.88-0.01c-1.1-0.03-2.45-0.06-3.8-0.1
						c-0.3-0.01-0.61-0.02-0.91-0.03c-1.34-0.03-2.49,0.13-3.56,0.07h-0.03c-0.23-0.01-0.56,0.02-0.83,0.03
						c-0.13,0.01-0.26,0.02-0.34,0.01c-0.62-0.11-0.74-0.26-1.41-0.56c-0.87-0.39-12.61-3.02-22.16-2.95
						c-9.54,0.04-18.1,0.69-19.5-0.48c-1.4-1.19-2.25-13.18,5.9-13.96l10.02,3.8c0,0,22.87-2.72,31.26,3.47
						C137.69,224.15,137.43,228.71,137.43,228.71z"/>
				</g>
				<g>
					<g>
						<path d="M126.35,228.6c-0.23-0.01-0.56,0.02-0.83,0.03c-0.21-0.33-0.64-0.93-0.88-1.18c-2.58-2.63-8.82-4.34-11.08-4.88
							c-0.21-0.05-0.34-0.26-0.29-0.46c0.04-0.21,0.26-0.33,0.48-0.29c3.29,0.8,10.29,2.83,12.27,6.16
							C126.08,228.08,126.24,228.4,126.35,228.6z"/>
					</g>
				</g>
				<g>
					<g>
						<path d="M130.85,228.56c-0.3-0.01-0.61-0.01-0.91-0.03c-2.82-5.14-7.43-6.62-13.13-8.45l-0.34-0.11
							c-0.19-0.07-0.31-0.29-0.25-0.49c0.07-0.19,0.28-0.31,0.49-0.25l0.33,0.11C123.08,221.28,127.92,222.83,130.85,228.56z"/>
					</g>
				</g>
				<g>
					<g>
						<path d="M135.53,228.68c-0.27-0.01-0.57,0-0.88-0.01c-1.71-3.6-7.37-9.61-14.85-11.01c-0.22-0.04-0.36-0.24-0.32-0.45
							c0.05-0.21,0.25-0.35,0.45-0.31C127.64,218.34,133.86,224.64,135.53,228.68z"/>
					</g>
				</g>
			</g>
			<g>
				<path d="M75,47.39c0,0,4.7-2.24,8.01-8.55c3.31-6.3,2.88-11.96,2.88-11.96s5.98-0.96,14.96,1.71c8.97,2.67,19.66,6.3,28.63,1.18
					c8.97-5.13,8.97-13.35,4.59-16.77c-4.91-3.83-14.64-1.5-14.64-1.5s3.74-3.63,1.71-5.77c-2.03-2.14-9.4,0.64-9.4,0.64
					s-8.97-7.16-25.96-6.3C68.8,0.93,60.68,12.78,59.72,26.03c-0.96,13.25,3.85,26.49,3.85,26.49L75,47.39z"/>
			</g>
			<g>
				<g>
					<path class="st11" d="M109.46,50.61c-0.96,2.37-0.94,5.13-1.18,7.65c-0.19,1.96-0.55,4.24,1.25,5.57
						c0.86,0.63,4.91,2.34,2.83,3.72c-0.8,0.53-2.13,0.38-3.03,0.34c-0.62-0.03-1.25-0.06-1.88-0.1c-0.67-0.05-1.33-0.25-2-0.26
						c-0.39,0-0.52,0.52-0.2,0.72c1.08,0.68,2.66,0.88,3.92,0.93c1.26,0.05,2.11-0.01,3.24-0.57c0.7-0.35,1.37-0.83,1.48-1.66
						c0.12-0.93-0.57-1.77-1.28-2.29c-0.81-0.6-1.8-0.88-2.61-1.46c-1.13-0.81-1.04-2.17-0.96-3.44c0.19-3.04,0.89-6.02,1.16-9.05
						C110.24,50.24,109.6,50.24,109.46,50.61L109.46,50.61z"/>
				</g>
			</g>
			<g>
				<path d="M118.19,57.71c-0.32,1.8-1.63,3.07-2.93,2.85c-1.3-0.23-2.09-1.88-1.77-3.68c0.32-1.8,1.63-3.07,2.93-2.85
					C117.71,54.26,118.51,55.91,118.19,57.71z"/>
			</g>
			<g>
				<path d="M101.84,56.28c-0.29,1.94-1.66,3.35-3.06,3.14s-2.3-1.95-2.01-3.9c0.29-1.94,1.66-3.35,3.06-3.14
					C101.23,52.6,102.13,54.34,101.84,56.28z"/>
			</g>
			<g>
				<g>
					<path d="M114.38,50.29c1,0.17,2.01,0,3.01,0.07c0.24,0.02,0.48,0.05,0.72,0.08c0.17,0.02-0.32-0.05-0.08-0.01
						c0.05,0.01,0.1,0.02,0.15,0.03c0.13,0.02,0.25,0.05,0.38,0.08c0.21,0.05,0.42,0.13,0.64,0.18c0.19,0.04,0.41,0.09,0.61,0.08
						c0.11-0.01,0.22-0.03,0.33-0.04c-0.07,0.01-0.14,0.02-0.21,0.04c0,0.02,0.37-0.04,0.41-0.04c0.57-0.13,0.93-0.8,0.77-1.35
						c-0.05-0.16-0.12-0.3-0.22-0.44c-0.04-0.06-0.09-0.11-0.13-0.17c0.04,0.05,0.08,0.09,0.12,0.14c-0.04-0.06-0.09-0.12-0.13-0.18
						c-0.06-0.1-0.13-0.17-0.23-0.23c-0.08-0.06-0.16-0.13-0.24-0.18c-0.26-0.18-0.61-0.29-0.93-0.37c-0.6-0.15-1.22-0.23-1.84-0.24
						c-0.61,0-1.21,0.06-1.82,0.14c-0.53,0.07-1.13,0.25-1.56,0.58c-0.33,0.25-0.54,0.57-0.48,1
						C113.71,49.81,113.99,50.22,114.38,50.29L114.38,50.29z"/>
				</g>
			</g>
			<g>
				<g>
					<path d="M102.99,47.43c-0.13-0.08-0.27-0.15-0.42-0.22c-0.12-0.06-0.45-0.23-0.2-0.09c-0.09-0.05-0.18-0.1-0.27-0.15
						c-0.41-0.21-0.84-0.35-1.29-0.46c-0.98-0.25-2-0.31-3-0.21c-1.07,0.11-2.04,0.37-2.96,0.93c-0.13,0.08-0.26,0.16-0.37,0.26
						c-0.07,0.09-0.15,0.19-0.22,0.28c0.02-0.03,0.04-0.06,0.06-0.09c-0.29,0.2-0.45,0.53-0.45,0.87c0,0.33,0.17,0.61,0.46,0.77
						c0.35,0.19,0.68,0.1,1.04,0.01c-0.18,0-0.36,0-0.54,0c0.3,0.05,0.51,0.06,0.8-0.01c0.01,0,0.29-0.07,0.11-0.03
						c-0.17,0.04,0.29-0.04,0.34-0.04c0.06-0.01,0.38-0.04,0.04-0.01c0.06-0.01,0.12-0.01,0.19-0.02c0.16-0.02,0.32-0.04,0.48-0.05
						c0.7-0.06,1.41-0.09,2.11-0.11c0.66-0.02,1.32-0.03,1.98,0c0.28,0.01,0.56,0.02,0.84,0.03c0.16,0,0.09,0.03-0.02-0.01
						c0.06,0.02,0.12,0.03,0.18,0.05c0.12,0.03,0.23,0.07,0.34,0.11c0.46,0.17,1-0.16,1.17-0.57
						C103.58,48.21,103.42,47.69,102.99,47.43L102.99,47.43z"/>
				</g>
			</g>
			<g>
				<path d="M108.06,77.13c0.98-1.97,2.76-3.42,4.83-4.35c-1.79-0.18-10.24-0.96-12.37,0.25c-2.39,1.36,0.44,6.8,5.38,7.08
					c0.52,0.03,0.99-0.01,1.44-0.08C107.38,79.03,107.6,78.04,108.06,77.13z"/>
			</g>
			<g>
				<path class="st22" d="M69.01,65.66c0,0,0.85,3.31,5.77,7.16c4.91,3.85,12.04,6.66,12.04,6.66l0.57-2.49c0,0-7.37-3.2-10.79-6.73
					c-3.42-3.53-3.85-5.45-3.85-5.45L69.01,65.66z"/>
			</g>
			<g>
				<path d="M88.24,75.14c3.95-0.18,6.16,2.94,6.44,4.97c0.28,2.02-1.62,4.29-6.07,2.3C83.09,79.93,84.29,75.33,88.24,75.14z"/>
			</g>
			<g>
				<path class="st22" d="M72.11,41.2c0,0,1.71-12.28,9.93-20.62C97.75,4.66,111.1,5.63,111.1,5.63s-0.11-2.24-5.13-3.95
					c-4.71-1.6-6.84-0.75-6.84-0.75S86.21,1.99,75.32,14.07c-10.9,12.07-12.07,27.45-12.07,27.45L72.11,41.2z"/>
			</g>
			<g>
				<g>
					<path class="st7" d="M70.94,39.7c-10.29-1.74-16.02,6.3-16.45,14.42c-0.43,8.12,5.47,14.29,13.35,13.67
						C85.57,66.41,83.54,41.84,70.94,39.7z"/>
				</g>
				<g>
					<path d="M65.81,59.91c-2.72,0-5.01-1.36-6.32-3.77c-1.41-2.57-1.29-5.74,0.3-8.07c0.12-0.18,0.36-0.22,0.54-0.1
						c0.18,0.12,0.22,0.36,0.1,0.54c-1.43,2.09-1.53,4.94-0.26,7.27c1.2,2.2,3.33,3.45,5.84,3.36c2.35-0.06,4.34-1.14,5.61-3.03
						c1.45-2.16,1.78-5.14,0.85-7.59c-0.92-2.43-3.46-4.09-5.76-3.79c-0.21,0.03-0.41-0.12-0.43-0.33
						c-0.03-0.21,0.12-0.41,0.33-0.43c2.7-0.36,5.53,1.48,6.59,4.28c1.02,2.68,0.65,5.94-0.93,8.29c-1.41,2.1-3.62,3.3-6.23,3.37
						C65.96,59.91,65.89,59.91,65.81,59.91z"/>
				</g>
			</g>
			<g>
				<path class="st17" d="M58.33,93.44c0,0-31.19,7.69-42.09,20.08S0.22,187.02,0,198.34c-0.21,11.32,7.69,16.02,12.39,19.23
					c4.7,3.2,25.42,8.97,42.09,9.83c16.66,0.85,32.48,0,32.48,0s-0.05-3.63,2.51-8.97c2.38-4.95,5.39-5.98,5.39-5.98l-14.31-5.13
					c0,0-2.51-44.91-6.41-66.66C69.65,115.66,58.33,93.44,58.33,93.44z"/>
			</g>
			<g>
				<path d="M110.04,200.14c-0.07,0-0.14-0.01-0.21-0.04c-0.26-0.12-0.38-0.42-0.26-0.68c2.92-6.59,5.95-19.54,7.66-28.62l0.14-0.73
					c0.52-2.67,1.16-5.99-0.12-8.29c-0.65-1.17-2.13-3.71-3.55-6.15c-1.47-2.53-2.86-4.93-3.25-5.64
					c-0.75-1.39,1.62-5.12,5.05-10.23c0.93-1.38,1.73-2.57,2.19-3.38c1.22-2.11,0.41-4.05-0.53-6.3l-0.32-0.77
					c-0.85-2.1-1.83-4.2-2.76-6.23c-0.38-0.83-0.77-1.66-1.15-2.5c-0.5-1.1-1-2.23-1.51-3.36c-3.02-6.73-6.14-13.69-10.14-20.41
					c-0.15-0.25-0.07-0.56,0.18-0.71c0.25-0.15,0.56-0.07,0.71,0.18c4.03,6.77,7.16,13.76,10.19,20.52
					c0.51,1.14,1.01,2.26,1.51,3.36c0.38,0.83,0.76,1.66,1.14,2.49c0.94,2.04,1.92,4.15,2.78,6.27l0.32,0.76
					c0.96,2.29,1.95,4.65,0.47,7.21c-0.48,0.84-1.29,2.04-2.23,3.44c-1.79,2.67-5.51,8.21-4.99,9.17c0.38,0.7,1.77,3.09,3.24,5.61
					c1.42,2.45,2.9,4.99,3.56,6.16c1.47,2.62,0.78,6.15,0.24,8.99l-0.14,0.73c-0.62,3.31-3.91,20.24-7.73,28.85
					C110.42,200.02,110.23,200.14,110.04,200.14z"/>
			</g>
			<g>
				<path d="M79.59,201.95c-0.13,0-0.27-0.05-0.37-0.15c-2.43-2.45-14.14-22.72-15.01-26.53c-0.48-2.09,0.72-7.38,1.88-12.5
					c0.9-3.97,1.83-8.07,1.56-9.18c-0.39-1.66-3.39-4.11-6.28-6.47c-3.5-2.86-7.11-5.81-7.81-8.47c-0.8-3.03-0.12-21.96,0.33-34.49
					c0.16-4.51,0.29-8.06,0.29-9.33c0-0.29,0.23-0.52,0.52-0.52c0,0,0,0,0,0c0.28,0,0.52,0.23,0.52,0.52c0,1.29-0.13,4.86-0.29,9.37
					c-0.42,11.71-1.12,31.31-0.37,34.19c0.62,2.34,4.26,5.31,7.47,7.94c3.17,2.59,6.16,5.03,6.63,7.03
					c0.32,1.34-0.55,5.19-1.56,9.64c-1.08,4.77-2.3,10.18-1.88,12.04c0.85,3.74,12.35,23.63,14.73,26.03c0.2,0.2,0.2,0.53,0,0.73
					C79.85,201.9,79.72,201.95,79.59,201.95z"/>
			</g>
			<g>
				<path d="M37.61,193.09c-0.02,0-0.05,0-0.07-0.01c-0.28-0.04-0.48-0.3-0.44-0.58c0.38-2.69,6.31-56.18,6.58-60.27
					c0.02-0.29,0.26-0.51,0.55-0.48c0.28,0.02,0.5,0.27,0.48,0.55c-0.27,4.1-6.21,57.66-6.59,60.35
					C38.08,192.9,37.86,193.09,37.61,193.09z"/>
			</g>
			<g>
				<path d="M80.12,207.62c-0.06,0-0.13-0.01-0.19-0.04c-1.31-0.53-7.12-2.49-14.46-4.97c-14.83-5-35.13-11.85-39-13.86
					c-0.25-0.13-0.35-0.44-0.22-0.7c0.13-0.25,0.44-0.36,0.7-0.22c3.79,1.97,24.89,9.08,38.85,13.79
					c7.36,2.48,13.18,4.44,14.52,4.99c0.26,0.11,0.39,0.41,0.28,0.67C80.52,207.49,80.33,207.62,80.12,207.62z"/>
			</g>
			<g>
				<path d="M72.99,228.92c-13.05,0-38.35-2.35-57.56-9.15c-0.27-0.1-0.41-0.39-0.31-0.66c0.09-0.27,0.39-0.41,0.66-0.31
					c24.28,8.59,58.24,10.05,64.56,8.64c0.28-0.06,0.55,0.11,0.62,0.39c0.06,0.28-0.11,0.55-0.39,0.62
					C79.19,228.74,76.54,228.92,72.99,228.92z"/>
			</g>
		</g>
		<g>
			<g>
				<g>
					<polygon class="st23" points="302.86,153.69 262.01,234.59 142.94,235.44 179.69,152.55 					"/>
				</g>
				<g>
					<path class="st24" d="M63.91,234.94l0.02-6.48h77.08l35.47-77.77h123.28l3.1,2.99H182.43l-36.86,81.19
						C145.57,234.87,63.91,234.73,63.91,234.94z"/>
				</g>
				<g>
					<path class="st24" d="M241.02,198.33c-1.35,4.04-8.65,7.15-16.31,6.96c-7.66-0.19-12.78-3.62-11.44-7.65
						c1.35-4.04,8.65-7.15,16.31-6.96C237.25,190.87,242.37,194.3,241.02,198.33z"/>
				</g>
			</g>
			<g>
				<path class="st7" d="M145.57,235.39c-0.07,0-0.14-0.02-0.21-0.05c-0.26-0.12-0.37-0.42-0.26-0.68l36.99-81.49h120.76
					c0.29,0,0.52,0.23,0.52,0.52c0,0.29-0.23,0.52-0.52,0.52h-120.1l-36.72,80.89C145.96,235.28,145.77,235.39,145.57,235.39z"/>
			</g>
		</g>
	</g>
	<rect x="4.74" y="234.94" class="st7" width="272.01" height="11.23"/>
</g>
</svg>
