<?xml version="1.0" encoding="utf-8"?>
<!-- Generator: Adobe Illustrator 24.3.0, SVG Export Plug-In . SVG Version: 6.00 Build 0)  -->
<svg version="1.1" id="Layer_1" xmlns="http://www.w3.org/2000/svg" xmlns:xlink="http://www.w3.org/1999/xlink" x="0px" y="0px"
	 viewBox="0 0 121.19 121.19" style="enable-background:new 0 0 121.19 121.19;" xml:space="preserve">
<style type="text/css">
	.st0{fill:#FDC940;}
	.st1{fill:#343D3A;stroke:#FDC940;stroke-width:0.75;stroke-miterlimit:10;}
	.st2{fill:#343D3A;}
	.st3{fill:#343D3A;stroke:#FDC940;stroke-width:2;stroke-miterlimit:10;}
</style>
<g>
	<circle class="st0" cx="60.59" cy="60.59" r="60.59"/>
	<g>
		<path class="st2" d="M109.23,63.31c0-1.41-0.5-2.11-1.83-2.55c-0.89-0.29-1.82-0.48-2.68-0.83c-0.8-0.33-1.52-0.86-2.31-1.21
			c-1.33-0.6-2.71-1.1-4.04-1.7c-0.29-0.13-0.6-0.43-0.71-0.72c-0.82-2.08-1.59-4.19-2.39-6.28c-0.62-1.64-1.22-3.29-1.88-4.91
			c-0.69-1.7-1.85-2.6-3.82-2.55c-3.73,0.09-7.47,0.03-11.21,0.03c-0.82,0-1.64,0-2.45,0c-0.02-0.17-0.04-0.24-0.03-0.31
			c0.2-2.01,0.4-4.03,0.62-6.04c0.06-0.57,0.04-1.13-0.5-1.41c-0.34-0.18-0.79-0.22-1.19-0.22c-12.85-0.01-25.7,0.03-38.55-0.04
			c-2.75-0.01-4.08,1.87-4.2,3.81c-0.07,1.11-0.25,2.22-0.39,3.37c-0.33,0-0.6,0-0.86,0c-4.22,0-8.44,0-12.66,0
			c-0.24,0-0.49-0.02-0.73,0.02c-0.6,0.12-0.94,0.51-0.98,1.12c-0.04,0.56,0.42,1.09,0.99,1.18c0.21,0.03,0.44,0.02,0.66,0.02
			c8.85,0,17.7,0,26.55,0c0.22,0,0.44,0.01,0.66,0c0.73-0.04,1.23-0.55,1.2-1.21c-0.02-0.63-0.5-1.11-1.21-1.12
			c-1.34-0.02-2.68-0.01-4.02-0.01c-0.63,0-1.26,0-1.9,0c-0.03,0.33-0.05,0.58-0.06,0.68c-0.26-0.21-0.64-0.69-0.84-0.63
			c-0.88,0.27-1.69-0.2-2.55-0.07c-0.59,0.09-1.2,0.02-1.88,0.02c0.13-1.19,0.25-2.3,0.39-3.41c0.13-1,0.59-1.39,1.61-1.39
			c12.41,0,24.82,0,37.23,0c0.25,0,0.51,0,0.81,0c-1.38,13.62-2.76,27.12-4.13,40.65c-5.59,0-11.11,0-16.62,0
			c-1.31-4.18-3.75-6.39-7.19-6.59c-1.68-0.1-3.25,0.24-4.68,1.13c-2.06,1.28-3.25,3.16-3.7,5.5c-2.17,0-4.27,0.01-6.36,0
			c-0.97-0.01-1.39-0.44-1.34-1.4c0.06-1.09,0.12-2.19,0.26-3.28c0.43-3.53,0.89-7.05,1.34-10.67c0.35,0,0.63,0,0.92,0
			c5.58,0,11.17,0,16.75,0c0.34,0,0.69,0.01,1.02-0.04c0.58-0.09,0.91-0.46,0.94-1.04c0.03-0.57-0.23-1-0.79-1.17
			c-0.23-0.07-0.48-0.07-0.72-0.07c-9-0.01-17.99-0.01-26.99-0.01c-0.24,0-0.5,0-0.72,0.08c-0.55,0.18-0.84,0.6-0.8,1.17
			c0.04,0.57,0.36,0.95,0.94,1.05c0.21,0.04,0.44,0.04,0.66,0.04c1.88,0,3.76,0,5.63,0c0.26,0,0.51,0,0.77,0c0,0.31,0.02,0.5,0,0.69
			c-0.49,4.33-0.91,8.68-1.52,13c-0.27,1.91,1.18,3.95,3.37,3.99c2.1,0.04,4.19-0.02,6.29,0.01c0.19,0,0.49,0.23,0.56,0.42
			c0.15,0.4,0.11,0.88,0.28,1.27c1.31,3.06,3.64,4.82,6.97,4.96c3.33,0.14,5.81-1.4,7.35-4.36c0.36-0.7,0.56-1.49,0.84-2.28
			c0.28,0,0.57,0,0.86,0c5.36,0,10.73,0,16.09,0c4.47,0,8.95-0.01,13.42-0.02c0.42,0,0.61,0.09,0.73,0.56
			c0.9,3.67,3.95,6.12,7.58,6.13c3.69,0.01,6.76-2.39,7.69-6.08c0.12-0.49,0.31-0.62,0.78-0.61c2,0.02,4,0.01,6,0.01
			c1.84,0,2.71-0.85,2.71-2.67C109.24,72.62,109.24,67.96,109.23,63.31z M45.52,84.3c-3.02-0.01-5.48-2.48-5.49-5.5
			c-0.01-3.05,2.47-5.5,5.56-5.49c3.02,0.01,5.48,2.51,5.45,5.52C51,81.86,48.53,84.31,45.52,84.3z M92.06,84.3
			c-3.01-0.03-5.44-2.52-5.42-5.56c0.02-3.02,2.49-5.45,5.54-5.43c3.04,0.02,5.46,2.46,5.45,5.51
			C97.62,81.87,95.13,84.32,92.06,84.3z M106.92,77.34c0,0.07-0.04,0.13-0.09,0.27c-1.54,0-3.09,0-4.65,0
			c-0.68,0-1.51,0.23-2.01-0.08c-0.45-0.28-0.54-1.14-0.79-1.74c-1.3-3.14-4.39-5.03-7.87-4.81c-3.24,0.21-6.08,2.59-6.93,5.81
			c-0.06,0.23-0.12,0.47-0.19,0.77c-0.43,0.03-0.87,0.07-1.37,0.11c0.07,0.3,0.12,0.52,0.19,0.81c-0.36-0.31-0.65-0.56-0.8-0.68
			c-0.31,0.28-0.5,0.44-0.79,0.7c0-0.35,0-0.57,0-0.87c-3.09,0-6.15,0-9.31,0c0.13-1.31,0.24-2.53,0.36-3.75
			c0.61-6.04,1.23-12.08,1.84-18.11c0.35-3.44,0.7-6.89,1.04-10.33c0.04-0.41,0.19-0.53,0.59-0.53c4.63,0.01,9.27,0.01,13.9-0.01
			c0.68,0,0.94,0.47,1.14,0.96c0.52,1.26,1,2.54,1.48,3.81c1.02,2.69,2.04,5.37,3.03,8.07c0.22,0.6,0.58,0.96,1.17,1.19
			c1.95,0.78,3.88,1.59,5.81,2.39c1.29,0.53,2.59,1.05,3.87,1.61c0.17,0.07,0.37,0.33,0.37,0.5
			C106.92,68.08,106.92,72.71,106.92,77.34z"/>
		<path class="st2" d="M38.83,56.2c0.66,0,1.32,0.02,1.97-0.01c0.68-0.03,1.18-0.53,1.19-1.15c0.01-0.62-0.48-1.12-1.15-1.18
			c-0.15-0.01-0.29-0.01-0.44-0.01c-8.88,0-17.75,0-26.63,0c-0.27,0-0.54-0.02-0.8,0.02c-0.61,0.09-0.98,0.46-1.03,1.06
			c-0.05,0.61,0.26,1.03,0.85,1.2c0.23,0.07,0.48,0.06,0.72,0.06c4.49,0,8.97,0,13.46,0C30.93,56.2,34.88,56.2,38.83,56.2z"/>
		<path class="st2" d="M53.27,50.13c0.19,0,0.39,0,0.58-0.02c0.65-0.08,1.02-0.48,1.03-1.12c0.01-0.64-0.35-1.06-0.99-1.15
			c-0.41-0.06-0.83-0.05-1.24-0.05c-8.73,0-17.45,0-26.18,0c-0.29,0-0.59,0.01-0.86,0.1c-0.55,0.19-0.8,0.62-0.74,1.2
			c0.05,0.55,0.36,0.9,0.91,1c0.26,0.05,0.53,0.04,0.8,0.04c4.41,0,8.82,0,13.24,0c0,0,0,0,0,0C44.3,50.13,48.79,50.13,53.27,50.13z
			"/>
		<path class="st2" d="M89.97,47.36c-0.36-0.94-1.02-1.41-2.08-1.39c-2.41,0.03-4.83,0.01-7.24,0.01c-1.46,0-2.18,0.73-2.18,2.22
			c-0.01,2.9-0.01,5.8,0,8.7c0,1.45,0.75,2.2,2.21,2.2c1.78,0.01,3.56,0,5.34,0c1.88,0,3.75,0.02,5.63-0.01
			c1.49-0.02,2.38-1.13,1.91-2.39C92.38,53.58,91.18,50.47,89.97,47.36z M90.98,56.74c-3.38,0-6.73,0-10.13,0c0-2.8,0-5.56,0-8.42
			c0.68,0,1.35,0,2.02,0c1.48,0,2.97-0.02,4.45,0.02c0.22,0.01,0.57,0.19,0.65,0.38c1.03,2.6,2.02,5.21,3.02,7.82
			C91.01,56.57,90.99,56.63,90.98,56.74z"/>
	</g>
</g>
</svg>
