<?xml version="1.0" encoding="utf-8"?>
<!-- Generator: Adobe Illustrator 24.3.0, SVG Export Plug-In . SVG Version: 6.00 Build 0)  -->
<svg version="1.1" id="Layer_1" xmlns="http://www.w3.org/2000/svg" xmlns:xlink="http://www.w3.org/1999/xlink" x="0px" y="0px"
	 viewBox="0 0 121.19 121.19" style="enable-background:new 0 0 121.19 121.19;" xml:space="preserve">
<style type="text/css">
	.st0{fill:#FDC940;}
	.st1{fill:#343D3A;stroke:#FDC940;stroke-width:0.75;stroke-miterlimit:10;}
	.st2{fill:#343D3A;}
	.st3{fill:#343D3A;stroke:#FDC940;stroke-width:2;stroke-miterlimit:10;}
</style>
<g>
	<circle class="st0" cx="60.59" cy="60.59" r="60.59"/>
	<g>
		<path class="st1" d="M59.78,33.26c-6.47,0.06-11.7-5.01-11.73-11.38c-0.04-6.51,5-11.68,11.39-11.71
			c6.32-0.03,11.63,5.21,11.69,11.53C71.19,27.77,65.85,33.2,59.78,33.26z M52.14,21.87c0.07,3.95,3.62,7.36,7.53,7.25
			C63.7,29,67,25.55,66.91,21.57c-0.09-3.97-3.63-7.36-7.55-7.24C55.34,14.45,52.07,17.87,52.14,21.87z"/>
		<path class="st1" d="M85.68,45.94c-4.98-0.03-9.96,0-14.94-0.01c-4.45-0.01-4.45-0.01-5.49,4.4c-1.75,7.39-1.75,7.39-9.36,7.19
			c-0.1,0-0.2-0.01-0.3,0c-1.64,0.18-2.37-0.48-2.3-2.2c0.09-2.19,0.23-4.41-0.07-6.56c-0.14-1-1.27-1.86-1.95-2.78
			c-0.72,0.9-1.95,1.73-2.06,2.71c-0.3,2.45-0.13,4.97-0.09,7.46c0.05,3.64,1.85,5.42,5.54,5.47c2.96,0.04,5.91,0.01,8.98,0.01
			c0,1.62,0,2.83,0,4.25c-5.32,0-10.39-0.06-15.46,0.03c-2.47,0.04-3.35-1.05-3.32-3.43c0.08-5.98,0-11.95,0.04-17.93
			c0.02-3.41,1.54-5,4.87-5.03c5.87-0.06,11.75-0.06,17.63,0.02c1.03,0.01,2.05,0.54,3.07,0.86c1.69,0.53,3.37,1.09,5.64,1.82
			c-1.74-4.99-4.28-6.79-8.68-6.81c-5.38-0.03-10.76,0.21-16.13-0.04c-5.12-0.24-8.64,1.67-10.59,6.41c0,7.97,0,15.94,0,23.91
			c1.87,1.71,3.75,3.42,6.29,5.75c0,10.89,0,22.95,0,34.81c-0.48,0.14-0.94,0.28-1.41,0.42h-5.22v4.36h39.23v0c0.67,0,1.34,0,2.04,0
			v-4.36c-0.88,0-1.52,0-2.04,0c-2.12,0-1.86,0-5.53,0c0-9.14,0-18.06,0-26.95c-1.41,0-2.55,0-3.82,0
			c-0.05,0.96-0.11,1.74-0.11,2.52c-0.01,7.17-0.03,14.34,0.02,21.51c0.01,1.46-0.31,2.47-1.22,2.92h-6.16
			c0-8.32,0.07-16.21-0.09-24.09c-0.02-1.02-1.32-2.01-2.03-3.02c-0.68,1.02-1.91,2.01-1.95,3.05c-0.21,4.97-0.1,9.96-0.1,14.94
			c0,2.98,0,5.95,0,9.12h-6.38c-1.06-0.38-1.07-1.39-1.08-4.06c-0.02-9.26-0.03-18.53-0.04-27.79c0-1.56,0-3.11,0-4.57
			c3.3,0,6.1,0,8.92,0c-0.58,4.77-0.35,5.04,4.19,5.04c4.98,0,9.96-0.08,14.94,0.05c2.19,0.05,3.25-0.78,3.76-2.89
			c1.84-7.64,3.83-15.25,5.69-22.89C89.27,46.74,88.59,45.96,85.68,45.94z M78.99,70.88c-4.86,0-9.54,0-14.22,0
			c4.09-1.99,3.03-5.62,3.2-8.88c0.2-3.89,0.61-7.76,0.95-11.77c5.56,0,10.19,0,15.21,0C82.39,57.26,80.69,64.06,78.99,70.88z"/>
	</g>
</g>
</svg>
