<?xml version="1.0" encoding="utf-8"?>
<!-- Generator: Adobe Illustrator 24.3.0, SVG Export Plug-In . SVG Version: 6.00 Build 0)  -->
<svg version="1.1" id="Layer_1" xmlns="http://www.w3.org/2000/svg" xmlns:xlink="http://www.w3.org/1999/xlink" x="0px" y="0px"
	 viewBox="0 0 121.19 121.19" style="enable-background:new 0 0 121.19 121.19;" xml:space="preserve">
<style type="text/css">
	.st0{fill:#FDC940;}
	.st1{fill:#343D3A;stroke:#FDC940;stroke-width:0.75;stroke-miterlimit:10;}
	.st2{fill:#343D3A;}
	.st3{fill:#343D3A;stroke:#FDC940;stroke-width:2;stroke-miterlimit:10;}
</style>
<g>
	<circle class="st0" cx="60.59" cy="60.59" r="60.59"/>
	<path class="st3" d="M68.46,57.99c9.21,0,17.93-0.01,26.64,0c4.47,0.01,4.82,0.35,4.82,4.9c0.01,10.91,0.01,21.82-0.02,32.74
		c-0.01,3.79-0.53,4.29-4.42,4.29C72.25,99.94,49,99.95,25.76,99.95c-3.99,0-4.51-0.56-4.51-4.58c0.01-10.8,0.01-21.61,0.02-32.41
		c0.01-4.54,0.19-4.73,5.24-5.14c0-1.09,0-2.23,0-3.37c0-9.6-0.02-19.21,0-28.81c0.01-3.84,0.51-4.34,4.38-4.34
		c11.13-0.02,22.26,0.06,33.39-0.05c3.14-0.03,4.25,1.19,4.21,4.27c-0.11,9.38-0.04,18.77-0.04,28.15
		C68.46,54.95,68.46,56.24,68.46,57.99z M62.93,57.87c0-10.37,0-20.73,0-31.18c-2.55,0-4.9,0-7.59,0c0,3.3-0.03,6.43,0.01,9.57
		c0.03,2.33-1.09,3.4-3.39,3.38c-2.84-0.03-5.68-0.08-8.51,0.02c-2.83,0.1-3.94-1.2-3.85-3.95c0.1-3,0.02-6.01,0.02-8.99
		c-2.86,0-5.21,0-7.62,0c0,10.47,0,20.76,0,31.17C42.39,57.87,52.52,57.87,62.93,57.87z M26.76,63.31c0,10.62,0,20.91,0,31.19
		c10.47,0,20.69,0,30.98,0c0-10.49,0-20.78,0-31.11c-2.59,0-4.95,0-7.64,0c0,3.3-0.02,6.43,0.01,9.57c0.02,2.32-1.1,3.4-3.41,3.37
		c-2.84-0.03-5.68-0.05-8.52,0.03c-2.81,0.08-3.95-1.22-3.85-3.98c0.11-3,0.02-6.01,0.02-9.08C31.6,63.31,29.32,63.31,26.76,63.31z
		 M94.43,94.6c0-10.62,0-20.91,0-31.19c-2.61,0-4.96,0-7.62,0c0,3.1-0.1,6.03,0.03,8.94c0.13,3-1.23,4.15-4.13,4
		c-2.4-0.12-4.8,0-7.2-0.01c-3.81-0.01-4.41-0.6-4.43-4.34c-0.02-2.9,0-5.79,0-8.56c-2.88,0-5.23,0-7.57,0c0,10.52,0,20.81,0,31.15
		C73.9,94.6,84.04,94.6,94.43,94.6z M45.14,26.66c0,2.79,0,5.2,0,7.53c1.75,0,3.21,0,4.76,0c0-2.61,0-5.03,0-7.53
		C48.22,26.66,46.75,26.66,45.14,26.66z M44.65,70.92c0-2.59,0-5,0-7.46c-1.76,0-3.3,0-4.78,0c0,2.66,0,5.08,0,7.46
		C41.6,70.92,43.07,70.92,44.65,70.92z M81.42,63.39c-1.84,0-3.31,0-4.91,0c0,2.59,0,5.01,0,7.48c1.74,0,3.28,0,4.91,0
		C81.42,68.32,81.42,65.99,81.42,63.39z"/>
</g>
</svg>
