<svg id="Layer_1" data-name="Layer 1" xmlns="http://www.w3.org/2000/svg" viewBox="0 0 884.15 297.39"><path d="M73.48,213.07v19.09c0,23-12.16,36.12-35.6,36.12s-35.6-13.14-35.6-36.12v-74.7c0-23,12.16-36.12,35.6-36.12s35.6,13.14,35.6,36.12v13.95H50.9V156c0-10.26-4.77-14.16-12.37-14.16S26.16,145.76,26.16,156v77.57c0,10.27,4.77,14,12.37,14s12.37-3.69,12.37-14V213.07Z"/><path d="M86.06,157.46c0-23,12.81-36.12,36.25-36.12s36.25,13.14,36.25,36.12v74.7c0,23-12.81,36.12-36.25,36.12s-36.25-13.14-36.25-36.12Zm23.88,76.13c0,10.27,4.77,14.16,12.37,14.16s12.37-3.89,12.37-14.16V156c0-10.26-4.77-14.16-12.37-14.16s-12.37,3.9-12.37,14.16Z"/><path d="M224.54,225l16.28-102H274V266.63H251.46v-103l-16.5,103H212.38L194.59,165.05V266.63H173.75V123H207Z"/><path d="M342,225l16.28-102h33.21V266.63H368.88v-103l-16.5,103H329.81L312,165.05V266.63H291.17V123h33.21Z"/><path d="M408.81,123h23.88V266.63H408.81Z"/><path d="M443.1,123h73.8V143.5h-25V266.63H468.06V143.5h-25Z"/><path d="M577.89,225l16.28-102h33.21V266.63H604.81v-103l-16.5,103H565.74l-17.8-101.58V266.63H527.1V123h33.21Z"/><path d="M668.62,183.52h32.77V204H668.62v42.07h41.24v20.52H644.74V123h65.12V143.5H668.62Z"/><path d="M745.89,162.59v104H724.4V123h30l24.53,86V123h21.27V266.63H775.62Z"/><path d="M810.35,123h73.8V143.5h-25V266.63H835.31V143.5h-25Z"/><rect x="0.87" y="285.37" width="274.89" height="12.01"/><path d="M90.13,28.35,0,5.15V58.82Z"/><path d="M0,69.27,90.13,92.46V38.79Z"/><path d="M489.42,33.23q-5.81-6.91-17.58-6.92a26.78,26.78,0,0,0-15.23,4.43,23.8,23.8,0,0,0-8.25,9,19.31,19.31,0,0,0-6.84-9.38q-5.4-4-13.71-4a25.61,25.61,0,0,0-14.4,4,23.41,23.41,0,0,0-7.49,8.33l-1.1-11H388.07q.56,4.29.83,8.73t.28,8.72V97.62h17.3V58.57q0-8.58,4-13.57a13.82,13.82,0,0,1,11.35-5.12q6.11,0,8.87,3.74t2.77,11.9v42.1h17.3V58.57Q450.79,50,455,45a13.81,13.81,0,0,1,11.35-5.12q6.09,0,8.86,3.74t2.77,11.9v42.1h17.31V54.83Q495.24,40.16,489.42,33.23Z"/><path d="M197,60.78a42.66,42.66,0,0,0-3.6-18.13,26.74,26.74,0,0,0-10.24-12q-6.78-4.29-16.89-4.29a34.76,34.76,0,0,0-18,4.57,31.64,31.64,0,0,0-11.91,12.74,40.49,40.49,0,0,0-4.29,19.1q0,16.89,10,26.59T169.62,99a47.82,47.82,0,0,0,14.68-2.22,36.28,36.28,0,0,0,11.9-6.23l-5.12-11.63a32.27,32.27,0,0,1-10,5.26A38.54,38.54,0,0,1,170,85.71q-10.25,0-15.92-5.54-5-5.11-5.48-14.82H197Zm-30.6-22.56q7.75,0,11.77,5.12,3.74,4.59,4.1,12.88H148.86a24,24,0,0,1,4.28-11.91Q157.85,38.22,166.43,38.22Z"/><polygon points="250 46.89 297.02 0 275.42 0 232.91 43.2 232.63 43.2 232.63 0 214.77 0 214.77 97.61 232.63 97.61 232.63 52.48 232.91 52.48 278.05 97.61 300.34 97.61 250 46.89"/><path d="M368.13,43.34a30,30,0,0,0-12.33-12.6q-7.89-4.44-18.69-4.43t-18.69,4.43a31.17,31.17,0,0,0-12.33,12.6q-4.29,8-4.29,19.24T306.09,82a31.17,31.17,0,0,0,12.33,12.6,41.64,41.64,0,0,0,37.38,0A30,30,0,0,0,368.13,82q4.42-8.18,4.43-19.39T368.13,43.34ZM350.12,80q-4.83,5.68-13,5.68T324.1,80q-4.86-5.82-4.85-17.45t4.85-17.3q4.84-5.69,13-5.68t13,5.68Q355,51,355,62.58T350.12,80Z"/><path d="M533.87,33.23q-5.82-6.91-17.58-6.92a26.78,26.78,0,0,0-15.23,4.43,24.1,24.1,0,0,0-5.32,4.65A35.3,35.3,0,0,1,498.8,45.8c.19-.27.38-.54.6-.8a13.8,13.8,0,0,1,11.35-5.12q6.09,0,8.86,3.74t2.77,11.9v42.1h17.31V54.83Q539.69,40.16,533.87,33.23Z"/></svg>