<svg id="Layer_1" data-name="Layer 1" xmlns="http://www.w3.org/2000/svg" viewBox="0 0 752.74 297.2"><path d="M83.57,266.45H59.47l-4.12-26.06H26.05l-4.13,26.06H0L24.31,122.8h35ZM29.09,220.89h23l-11.5-72.64Z"/><path d="M94.63,122.8H132.4c23.88,0,35.6,12.52,35.6,35.5V231c0,23-11.72,35.5-35.6,35.5H94.63Zm23.88,20.52V245.93H132c7.6,0,12.15-3.69,12.15-14v-74.7c0-10.26-4.55-14-12.15-14Z"/><path d="M219,240,237.24,122.8h21.92L235.72,266.45h-35.6L176.68,122.8h24.09Z"/><path d="M342.08,266.45H318l-4.12-26.06h-29.3l-4.13,26.06H258.51L282.82,122.8h34.95Zm-54.49-45.56h23l-11.5-72.64Z"/><path d="M374.42,162.41v104H352.93V122.8h29.95l24.53,86v-86h21.27V266.45H404.15Z"/><path d="M438.88,122.8h73.8v20.52h-25V266.45H463.84V143.32h-25Z"/><path d="M592.12,266.45H568l-4.12-26.06H534.6l-4.13,26.06H508.55L532.86,122.8h34.95Zm-54.48-45.56h23l-11.5-72.64Z"/><path d="M638.78,186.42h33.43V232c0,23-12.15,36.11-35.6,36.11S601,255,601,232v-74.7c0-23,12.15-36.12,35.59-36.12s35.6,13.13,35.6,36.12v13.95H649.64V155.84c0-10.26-4.78-14.16-12.38-14.16s-12.37,3.9-12.37,14.16v77.57c0,10.26,4.78,14,12.37,14s12.38-3.7,12.38-14V206.94H638.78Z"/><path d="M711.5,183.34h32.77v20.52H711.5v42.07h41.24v20.52H687.62V122.8h65.12v20.52H711.5Z"/><rect x="2.93" y="285.19" width="274.89" height="12.01"/><path d="M90.13,28.35,0,5.15V58.82Z"/><path d="M0,69.27,90.13,92.46V38.79Z"/><path d="M489.42,33.23q-5.81-6.91-17.58-6.92a26.78,26.78,0,0,0-15.23,4.43,23.8,23.8,0,0,0-8.25,9,19.31,19.31,0,0,0-6.84-9.38q-5.4-4-13.71-4a25.61,25.61,0,0,0-14.4,4,23.41,23.41,0,0,0-7.49,8.33l-1.1-11H388.07q.56,4.29.83,8.73t.28,8.72V97.62h17.3V58.57q0-8.58,4-13.57a13.82,13.82,0,0,1,11.35-5.12q6.11,0,8.87,3.74t2.77,11.9v42.1h17.3V58.57Q450.79,50,455,45a13.81,13.81,0,0,1,11.35-5.12q6.09,0,8.86,3.74t2.77,11.9v42.1h17.31V54.83Q495.24,40.16,489.42,33.23Z"/><path d="M197,60.78a42.66,42.66,0,0,0-3.6-18.13,26.74,26.74,0,0,0-10.24-12q-6.78-4.29-16.89-4.29a34.76,34.76,0,0,0-18,4.57,31.64,31.64,0,0,0-11.91,12.74,40.49,40.49,0,0,0-4.29,19.1q0,16.89,10,26.59T169.62,99a47.82,47.82,0,0,0,14.68-2.22,36.28,36.28,0,0,0,11.9-6.23l-5.12-11.63a32.27,32.27,0,0,1-10,5.26A38.54,38.54,0,0,1,170,85.71q-10.25,0-15.92-5.54-5-5.11-5.48-14.82H197Zm-30.6-22.56q7.75,0,11.77,5.12,3.74,4.59,4.1,12.88H148.86a24,24,0,0,1,4.28-11.91Q157.85,38.22,166.43,38.22Z"/><polygon points="250 46.89 297.02 0 275.42 0 232.91 43.2 232.63 43.2 232.63 0 214.77 0 214.77 97.61 232.63 97.61 232.63 52.48 232.91 52.48 278.05 97.61 300.34 97.61 250 46.89"/><path d="M368.13,43.34a30,30,0,0,0-12.33-12.6q-7.89-4.44-18.69-4.43t-18.69,4.43a31.17,31.17,0,0,0-12.33,12.6q-4.29,8-4.29,19.24T306.09,82a31.17,31.17,0,0,0,12.33,12.6,41.64,41.64,0,0,0,37.38,0A30,30,0,0,0,368.13,82q4.42-8.18,4.43-19.39T368.13,43.34ZM350.12,80q-4.83,5.68-13,5.68T324.1,80q-4.86-5.82-4.85-17.45t4.85-17.3q4.84-5.69,13-5.68t13,5.68Q355,51,355,62.58T350.12,80Z"/><path d="M533.87,33.23q-5.82-6.91-17.58-6.92a26.78,26.78,0,0,0-15.23,4.43,24.1,24.1,0,0,0-5.32,4.65A35.3,35.3,0,0,1,498.8,45.8c.19-.27.38-.54.6-.8a13.8,13.8,0,0,1,11.35-5.12q6.09,0,8.86,3.74t2.77,11.9v42.1h17.31V54.83Q539.69,40.16,533.87,33.23Z"/></svg>