<?xml version="1.0" encoding="utf-8"?>
<!-- Generator: Adobe Illustrator 24.3.0, SVG Export Plug-In . SVG Version: 6.00 Build 0)  -->
<svg version="1.1" id="Layer_1" xmlns="http://www.w3.org/2000/svg" xmlns:xlink="http://www.w3.org/1999/xlink" x="0px" y="0px"
	 viewBox="0 0 121.19 121.19" style="enable-background:new 0 0 121.19 121.19;" xml:space="preserve">
<style type="text/css">
	.st0{fill:#343D3A;}
</style>
<g>
	<g>
		<path class="st0" d="M27.39,97.27c-0.3,0-0.5,0-0.7,0c-6.64,0-13.28,0-19.92,0c-0.72,0-0.72,0-0.73-0.75
			c-0.02-1.65-0.03-3.3-0.04-4.95c0-0.3,0.03-0.6-0.41-0.67c-0.09-0.02-0.18-0.37-0.18-0.56c-0.02-4.24-0.03-8.48-0.03-12.72
			c0-3.51,0.01-7.01-0.01-10.52c0-0.48,0.11-0.65,0.62-0.65c2.06,0.02,4.13,0,6.19,0c4.8,0,9.6,0,14.4,0c0.24,0,0.48,0,0.83,0
			c0,0.62-0.01,1.2,0,1.77c0.01,0.67,0.02,0.67,0.78,0.56c-0.09-0.86,0.61-0.68,1.09-0.77c0.26-0.05,0.45-0.08,0.5-0.4
			c0.02-0.13,0.26-0.3,0.41-0.31c0.28-0.03,0.48-0.07,0.47-0.4c-0.01-0.32,0.16-0.42,0.46-0.41c0.26,0.01,0.53,0.01,0.78-0.04
			c0.13-0.03,0.33-0.17,0.34-0.27c0.03-0.42,0.28-0.47,0.61-0.47c0.49,0.01,0.97-0.02,1.46-0.02c7.78,0,15.57,0,23.35,0
			c0.21,0,0.41,0.03,0.62,0.01c0.48-0.03,0.85,0.06,0.7,0.72c0.56,0.03,1.05,0.05,1.6,0.08c-0.15,0.98,0.62,0.72,1.1,0.82
			c0.29,0.06,0.49,0.08,0.49,0.45c0,0.11,0.2,0.32,0.32,0.33c0.39,0.02,0.48,0.21,0.45,0.55c-0.01,0.07,0.03,0.15,0.02,0.22
			c-0.04,0.5,0.08,0.86,0.82,0.74c0,0.68-0.02,1.31,0.01,1.94c0.01,0.17,0.14,0.46,0.24,0.47c0.44,0.06,0.49,0.32,0.47,0.67
			c-0.01,0.34-0.01,0.67,0,1.01c0.01,0.33-0.01,0.59-0.44,0.63c-0.11,0.01-0.26,0.28-0.27,0.44c-0.03,0.6-0.01,1.2-0.01,1.87
			c-0.94-0.12-0.83,0.52-0.85,1.04c-0.01,0.34-0.2,0.39-0.45,0.56c-0.41,0.27-0.65,0.78-1.09,1.07c-0.08,0.06-0.01,0.35-0.01,0.59
			c0.67,0.03,1.28,0.05,1.89,0.09c0.15,0.01,0.42,0.09,0.42,0.16c0.05,0.53,0.44,0.49,0.79,0.49c1.2,0,2.4,0,3.59-0.03
			c0.14,0,0.38-0.13,0.39-0.21c0.03-0.48,0.35-0.45,0.67-0.45c0.37,0,0.75-0.04,1.12-0.04c0.37,0,0.73,0.02,0.78-0.5
			c0.01-0.08,0.26-0.19,0.4-0.2c0.71-0.06,1.42-0.09,2.13-0.16c0.15-0.01,0.41-0.12,0.41-0.19c0.02-0.55,0.4-0.49,0.75-0.49
			c0.36-0.01,0.71-0.03,1.07-0.04c0.36-0.01,0.73,0.03,0.77-0.5c0.01-0.08,0.25-0.19,0.4-0.2c0.73-0.06,1.46-0.09,2.19-0.15
			c0.15-0.01,0.41-0.12,0.41-0.19c0.03-0.59,0.46-0.48,0.81-0.51c0.63-0.04,1.27-0.08,1.9-0.14c0.13-0.01,0.35-0.12,0.35-0.19
			c0.03-0.53,0.39-0.51,0.76-0.51c0.34,0,0.67-0.03,1.01-0.04c0.37-0.01,0.78,0.06,0.82-0.51c0.01-0.07,0.24-0.16,0.37-0.17
			c0.75-0.06,1.5-0.09,2.24-0.16c0.15-0.01,0.4-0.14,0.42-0.24c0.05-0.39,0.27-0.44,0.58-0.44c1.46,0.01,2.92,0.06,4.38,0.01
			c0.58-0.02,0.4,0.59,0.71,0.69c0.32,0.1,0.6,0.03,0.76,0.53c0.12,0.36,0.84,0.45,0.94,1.01c0.63-0.06,0.57,0.43,0.62,0.83
			c0.23,0.05,0.45,0.09,0.7,0.14c0.03,0.61,0.04,1.21,0.09,1.8c0.01,0.15,0.16,0.39,0.27,0.4c0.43,0.05,0.45,0.31,0.43,0.64
			c-0.01,0.22,0.02,0.45-0.01,0.67c-0.02,0.13-0.12,0.35-0.19,0.35c-0.58,0.02-0.51,0.44-0.53,0.8c-0.02,0.32-0.04,0.64-0.03,0.96
			c0.01,0.36,0.02,0.68-0.49,0.68c-0.08,0-0.22,0.22-0.24,0.36c-0.06,0.33-0.07,0.66-0.11,1.02c-0.48,0.01-0.92,0.07-0.74,0.74
			c-0.33,0.07-0.63,0.16-0.94,0.19c-0.35,0.04-0.61,0.11-0.63,0.54c0,0.08-0.24,0.19-0.39,0.21c-0.28,0.05-0.56,0.02-0.84,0.07
			c-0.12,0.02-0.32,0.14-0.32,0.22c-0.01,0.47-0.32,0.47-0.66,0.48c-0.37,0.01-0.75,0.05-1.12,0.06c-0.35,0.01-0.69-0.03-0.73,0.47
			c-0.01,0.08-0.21,0.19-0.34,0.21c-0.41,0.05-0.82,0.08-1.23,0.1c-0.37,0.02-0.77-0.07-0.84,0.49c-0.01,0.07-0.23,0.16-0.36,0.18
			c-0.71,0.07-1.42,0.11-2.13,0.18c-0.16,0.02-0.42,0.13-0.43,0.23c-0.06,0.45-0.35,0.46-0.69,0.47c-0.36,0.01-0.71,0.04-1.07,0.05
			c-0.34,0.01-0.69-0.01-0.72,0.49c-0.01,0.08-0.25,0.19-0.39,0.21c-0.41,0.05-0.82,0.06-1.23,0.08c-0.36,0.02-0.78-0.07-0.81,0.51
			c0,0.07-0.23,0.17-0.36,0.18c-0.5,0.05-1.01,0.06-1.51,0.1c-0.14,0.01-0.39,0.07-0.39,0.13c-0.09,0.79-0.74,0.52-1.17,0.61
			c-0.25,0.06-0.52,0.04-0.79,0.03c-0.29,0-0.5,0.03-0.55,0.4c-0.01,0.11-0.25,0.25-0.4,0.27c-0.71,0.08-1.42,0.11-2.12,0.18
			c-0.15,0.01-0.4,0.11-0.41,0.19c-0.06,0.56-0.46,0.5-0.83,0.51c-0.36,0.01-0.71,0.05-1.07,0.05c-0.32,0-0.59,0.01-0.63,0.44
			c-0.01,0.1-0.26,0.23-0.42,0.24c-0.5,0.06-1.01,0.05-1.51,0.11c-0.14,0.01-0.38,0.14-0.38,0.22c-0.02,0.47-0.33,0.46-0.66,0.48
			c-0.45,0.02-0.9,0.02-1.34,0.09c-0.16,0.03-0.39,0.22-0.4,0.37c-0.04,0.34-0.22,0.38-0.49,0.38c-0.61-0.01-1.23,0-1.89,0
			c0.07,0.71-0.26,0.82-0.77,0.8c-0.52-0.02-1.05,0.04-1.57,0.04c-0.49-0.01-0.86,0.09-0.79,0.79c-0.56,0-1.08,0.02-1.6,0
			c-0.49-0.02-0.87,0.06-0.76,0.8c-0.68,0-1.31-0.02-1.94,0.01c-0.15,0.01-0.4,0.19-0.41,0.3c-0.02,0.4-0.23,0.44-0.56,0.43
			c-0.58-0.02-1.16,0-1.82,0c0.13,0.91-0.45,0.79-0.95,0.8c-0.6,0.01-1.2,0.02-1.8,0.06c-0.14,0.01-0.37,0.17-0.38,0.28
			c-0.03,0.4-0.25,0.44-0.57,0.43c-0.37-0.02-0.75-0.01-1.12-0.01c-0.36,0.01-0.68,0.01-0.7-0.5c0-0.09-0.26-0.22-0.42-0.23
			c-0.5-0.04-1.01-0.02-1.52-0.07c-0.14-0.01-0.37-0.18-0.38-0.28c-0.02-0.43-0.25-0.48-0.6-0.47c-0.24,0.01-0.49,0-0.73-0.03
			c-0.1-0.01-0.27-0.09-0.27-0.13c0.01-0.85-0.65-0.56-1.08-0.63c-0.16-0.03-0.33,0-0.57,0c0.09-0.85-0.51-0.76-1.03-0.78
			c-0.3-0.01-0.61,0.01-0.9-0.04c-0.14-0.02-0.35-0.19-0.36-0.29c-0.02-0.39-0.22-0.47-0.55-0.45c-0.22,0.01-0.46,0.03-0.67-0.03
			c-0.15-0.04-0.38-0.19-0.4-0.31c-0.04-0.34-0.19-0.45-0.51-0.43c-0.26,0.01-0.53,0.02-0.78-0.04c-0.15-0.04-0.37-0.19-0.39-0.32
			c-0.05-0.32-0.2-0.4-0.49-0.41c-0.41-0.02-0.82-0.09-1.23-0.1c-0.34-0.01-0.64-0.03-0.64-0.49c0-0.08-0.2-0.2-0.32-0.21
			c-0.3-0.04-0.6-0.01-0.9-0.06c-0.13-0.02-0.34-0.16-0.35-0.26c-0.02-0.39-0.25-0.44-0.57-0.45c-0.37-0.01-0.74-0.07-1.12-0.09
			c-0.35-0.02-0.69,0-0.69-0.51c0-0.07-0.21-0.19-0.33-0.2c-1.22-0.16-1.25-0.13-1.26,1.11C27.39,95.34,27.39,96.26,27.39,97.27z
			 M59.78,70.4c0.24-0.8-0.21-0.83-0.72-0.82c-0.17,0-0.34,0.01-0.5-0.04c-0.12-0.04-0.29-0.16-0.29-0.25
			c-0.01-0.44-0.27-0.47-0.6-0.46c-0.28,0.01-0.56-0.01-0.84-0.01c-6.68,0-13.35,0-20.03,0c-1.01,0-2.03,0.02-3.04,0.01
			c-0.49,0-0.92,0.04-0.86,0.68c-0.59,0.22-1.44-0.15-1.55,0.7c-0.34,0.17-0.79,0.27-0.81,0.43c-0.06,0.46-0.32,0.46-0.66,0.49
			c-0.46,0.05-1.13-0.13-0.95,0.66c-0.3,0.13-0.74,0.24-0.74,0.34c0,0.54-0.33,0.59-0.77,0.61c-0.01,0.2-0.04,0.38-0.04,0.56
			c0,4.78-0.01,9.56,0,14.35c0,0.85,0.01,0.85,0.78,1.08c-0.07,0.55,0.21,0.71,0.72,0.67c0.27-0.02,0.55,0.03,0.86,0.05
			c-0.05,0.61,0.29,0.75,0.8,0.73c0.39-0.01,0.79,0.02,1.18,0.06c0.12,0.01,0.33,0.14,0.33,0.2c-0.03,0.61,0.4,0.52,0.77,0.53
			c0.28,0.01,0.55,0.04,0.85,0.06c-0.05,0.58,0.21,0.76,0.73,0.72c0.29-0.02,0.58,0.03,0.9,0.05c0,0.52,0.3,0.67,0.72,0.69
			c0.32,0.01,0.63,0.06,0.95,0.07c0.35,0.01,0.69-0.02,0.69,0.5c0,0.09,0.26,0.22,0.41,0.24c0.38,0.05,0.77,0.04,1.22,0.06
			c-0.15,0.73,0.32,0.72,0.77,0.74c0.37,0.01,0.75,0.02,1.12,0.06c0.12,0.01,0.33,0.13,0.33,0.2c-0.01,0.58,0.39,0.53,0.77,0.54
			c0.28,0,0.56,0.03,0.9,0.05c-0.11,0.78,0.45,0.71,0.93,0.74c0.32,0.02,0.64-0.01,0.95,0.05c0.15,0.03,0.38,0.19,0.39,0.32
			c0.04,0.35,0.2,0.44,0.52,0.43c0.26-0.01,0.53-0.03,0.78,0.03c0.17,0.04,0.31,0.21,0.45,0.34c0.12,0.11,0.22,0.24,0.33,0.36
			c0.11-0.12,0.21-0.25,0.34-0.36c0.15-0.13,0.3-0.31,0.47-0.32c0.52-0.05,1.05-0.02,1.57-0.07c0.16-0.02,0.29-0.23,0.43-0.36
			c0.14-0.12,0.27-0.33,0.43-0.36c0.44-0.06,0.9-0.06,1.35-0.06c0.35,0,0.63-0.01,0.65-0.48c0-0.09,0.26-0.23,0.42-0.24
			c0.63-0.06,1.27-0.08,1.91-0.11c0.44-0.02,0.82-0.11,0.79-0.75c0.52,0,1.01-0.01,1.49,0c0.5,0.01,0.96,0,0.87-0.8
			c0.67,0,1.28,0.01,1.9-0.01c0.15,0,0.42-0.11,0.41-0.17c-0.03-0.68,0.47-0.54,0.85-0.57c0.41-0.03,0.83,0.01,1.24-0.05
			c0.48-0.06,1.11,0.05,1.13-0.73c0.62-0.03,1.2-0.07,1.78-0.07c0.32,0,0.54-0.06,0.56-0.45c0.01-0.1,0.24-0.25,0.38-0.27
			c0.52-0.05,1.05-0.04,1.57-0.07c0.13-0.01,0.36-0.11,0.36-0.17c-0.01-0.72,0.53-0.53,0.91-0.56c0.34-0.03,0.67-0.04,1.01-0.03
			c0.32,0.01,0.53-0.05,0.6-0.43c0.02-0.12,0.27-0.28,0.43-0.29c0.71-0.08,1.42-0.09,2.13-0.17c0.15-0.02,0.39-0.16,0.4-0.28
			c0.05-0.37,0.26-0.4,0.55-0.39c0.32,0.01,0.64,0,0.96-0.01c0.51-0.02,1.08,0.06,0.98-0.81c0.7,0,1.32,0.01,1.93-0.01
			c0.14,0,0.41-0.12,0.41-0.19c0-0.67,0.5-0.53,0.88-0.55c0.32-0.02,0.64-0.03,0.96-0.03c0.35,0.01,0.63-0.01,0.66-0.48
			c0.01-0.1,0.26-0.23,0.41-0.25c0.71-0.08,1.42-0.11,2.13-0.18c0.14-0.01,0.39-0.13,0.39-0.21c0.05-0.46,0.34-0.45,0.68-0.45
			c0.36,0,0.71-0.06,1.07-0.05c0.49,0.01,0.83-0.13,0.83-0.7c0.64-0.03,1.24-0.05,1.83-0.09c0.15-0.01,0.43-0.1,0.43-0.16
			c0.02-0.69,0.55-0.52,0.94-0.57c0.35-0.04,0.71-0.01,1.07-0.06c0.14-0.02,0.38-0.14,0.38-0.22c-0.01-0.51,0.32-0.5,0.68-0.51
			c0.22,0,0.62,0,0.64-0.08c0.16-0.59,0.93-0.74,1.01-1.29c0.11-0.74,0.04-1.5,0.06-2.24c0.01-0.29-0.09-0.44-0.4-0.48
			c-0.13-0.02-0.31-0.2-0.33-0.33c-0.2-1.17-0.19-1.17-1.41-1.22c-0.15-0.01-0.3-0.03-0.45-0.03c-0.3,0.01-0.53-0.02-0.62-0.4
			c-0.07-0.29-0.61-0.31-0.65-0.05c-0.08,0.58-0.48,0.46-0.84,0.48c-0.36,0.02-0.71,0.05-1.07,0.04c-0.34,0-0.63,0.02-0.68,0.47
			c-0.01,0.1-0.27,0.22-0.42,0.24c-0.73,0.07-1.46,0.11-2.18,0.17c-0.13,0.01-0.35,0.11-0.36,0.19c-0.04,0.55-0.42,0.46-0.77,0.48
			c-0.45,0.02-0.9,0.04-1.34,0.09c-0.12,0.01-0.33,0.13-0.34,0.21c-0.03,0.5-0.37,0.47-0.72,0.47c-0.39,0.01-0.79,0.04-1.18,0.05
			c-0.31,0-0.54,0.05-0.59,0.43c-0.01,0.11-0.25,0.25-0.4,0.26c-0.73,0.08-1.46,0.11-2.18,0.17c-0.13,0.01-0.35,0.11-0.36,0.18
			c-0.04,0.54-0.41,0.47-0.77,0.48c-0.45,0.01-0.9,0.04-1.35,0.09c-0.13,0.01-0.36,0.12-0.36,0.18c-0.01,0.6-0.44,0.49-0.8,0.51
			c-0.43,0.02-0.87-0.01-1.29,0.06c-0.4,0.06-0.95-0.09-1.06,0.57c-0.01,0.08-0.27,0.15-0.42,0.16c-0.52,0.05-1.05,0.05-1.57,0.11
			c-0.14,0.02-0.36,0.18-0.38,0.29c-0.04,0.39-0.28,0.38-0.56,0.38c-1.71,0-3.41,0-5.12,0c-0.34,0-0.69,0.06-0.74-0.45
			c-0.01-0.08-0.3-0.18-0.47-0.19c-1.42-0.07-2.85-0.12-4.27-0.17c-0.34-0.01-0.69,0.03-0.74-0.47c-0.01-0.08-0.27-0.17-0.41-0.18
			c-0.92-0.05-1.83-0.08-2.75-0.12c-0.35-0.02-0.78,0.11-0.84-0.48c-0.01-0.07-0.27-0.16-0.42-0.17c-1.07-0.06-2.13-0.07-3.2-0.15
			c-0.31-0.02-0.73-0.12-0.88-0.34c-0.21-0.31-0.43-0.37-0.73-0.38c-0.94-0.03-1.87-0.07-2.81-0.07c-0.4,0-0.53-0.14-0.51-0.53
			c0.02-0.64-0.01-1.27,0.01-1.91c0.03-1.36,0.04-1.36,1.43-1.36c3.81,0,7.61,0,11.42,0c0.39,0,0.79,0,1.18-0.03
			c0.78-0.07,0.78-0.08,1.01-0.78c0.22-0.03,0.46-0.07,0.68-0.1c0.03-0.25,0.05-0.45,0.07-0.67c0.24-0.04,0.45-0.08,0.71-0.12
			c0.02-0.34,0.05-0.68,0.04-1.01c-0.01-0.34,0.02-0.59,0.45-0.6c0.09,0,0.24-0.22,0.24-0.34c0-0.12-0.14-0.35-0.24-0.36
			c-0.43-0.04-0.45-0.31-0.44-0.63c0-0.34-0.05-0.68-0.03-1.01C60.65,70.61,60.52,70.28,59.78,70.4z M23.47,69.58
			c-1.13,0-2.2,0.03-3.26-0.01c-0.58-0.02-0.72,0.17-0.71,0.73c0.03,3.02,0,6.04,0.02,9.05c0,0.47-0.15,0.63-0.61,0.61
			c-0.62-0.03-1.24-0.03-1.86,0c-0.49,0.02-0.68-0.12-0.68-0.66c0.03-3.04,0-6.07,0.02-9.11c0-0.45-0.1-0.62-0.59-0.62
			c-2.23,0.02-4.46,0.02-6.69-0.01c-0.55-0.01-0.68,0.18-0.68,0.71C8.45,74.85,8.45,79.42,8.45,84c0,2.92,0,5.85,0,8.77
			c0,0.35,0,0.64,0.48,0.62c0.11,0,0.23,0.18,0.35,0.27c0.18,0.12,0.36,0.33,0.54,0.33C13.93,94.01,18.03,94,22.14,94
			c0.15,0,0.34-0.06,0.46-0.15c0.26-0.2,0.49-0.43,0.73-0.66c0.05,0.03,0.09,0.07,0.14,0.1C23.47,85.41,23.47,77.53,23.47,69.58z"/>
		<path class="st0" d="M65.24,115.38c-0.49,0.06-0.79-0.14-0.66-0.76c-0.49-0.04-0.96-0.09-0.78-0.79c-0.5-0.03-0.97-0.09-0.79-0.78
			c-0.46-0.08-1.03-0.04-0.76-0.81c-0.55-0.02-0.98-0.12-0.82-0.8c-0.54,0.01-0.93-0.13-0.79-0.79c-0.56,0.02-0.91-0.16-0.8-0.8
			c-0.52,0.01-0.9-0.12-0.78-0.73c-0.32-0.16-0.84,0.01-0.79-0.64c0.05-0.76,0-0.76,0.93-0.98c0.11-0.03,0.32-0.01,0.32-0.04
			c0.12-0.61,0.86-0.66,1.06-1.2c0.05-0.14,0.2-0.29,0.33-0.34c0.55-0.17,0.56-0.98,1.22-1c-0.1-0.6,0.34-0.59,0.76-0.63
			c0.01-0.44,0.07-0.86,0.66-0.77c0.1-0.52,0.57-0.69,0.9-1c0.19-0.17,0.3-0.41,0.56-0.62c0.36-0.28,0.84-0.65,1-1
			c0.22-0.48,0.4-0.53,0.84-0.43c0.04,0.41,0.1,0.83,0.68,0.76c0.04,0,0.15,0.14,0.14,0.2c-0.05,0.54,0.28,0.62,0.74,0.56
			c0,0.27,0,0.49,0,0.73c-0.23,0.03-0.45,0.06-0.69,0.09c-0.03,0.24-0.06,0.45-0.09,0.7c-0.23,0.03-0.45,0.06-0.69,0.09
			c-0.03,0.23-0.07,0.45-0.1,0.69c-0.22,0.03-0.44,0.06-0.69,0.09c-0.03,0.22-0.06,0.44-0.1,0.69c-0.23,0.03-0.46,0.06-0.66,0.09
			c-0.04,0.04-0.06,0.06-0.06,0.07c-0.21,1.5-0.21,1.5,1.3,1.48c0.34,0,0.68-0.01,1.01-0.01c0.4-0.01,0.86,0.1,0.9-0.54
			c0.01-0.07,0.31-0.17,0.47-0.17c1.24-0.03,2.47-0.05,3.71-0.06c0.31,0,0.54-0.02,0.6-0.41c0.02-0.13,0.26-0.3,0.41-0.31
			c0.73-0.05,1.46-0.06,2.19-0.06c0.29,0,0.5-0.03,0.55-0.4c0.02-0.13,0.24-0.31,0.39-0.33c0.39-0.06,0.78-0.05,1.18-0.05
			c0.4,0,0.82,0.05,0.8-0.56c0-0.06,0.21-0.18,0.34-0.19c0.37-0.03,0.75-0.05,1.12-0.03c0.51,0.02,0.9-0.07,0.83-0.75
			c0.31-0.01,0.59-0.04,0.86-0.04c0.4,0,0.82,0.07,0.8-0.55c0-0.07,0.21-0.19,0.33-0.2c0.35-0.04,0.71-0.02,1.07-0.05
			c0.39-0.03,0.85,0.06,0.88-0.59c0-0.1,0.49-0.18,0.81-0.29c0-1.14,1-0.47,1.57-0.77c-0.07-0.64,0.36-0.76,0.9-0.7
			c0.57,0.07,0.79-0.18,0.73-0.74c0.27-0.03,0.5-0.06,0.78-0.09c-0.1-0.65,0.27-0.78,0.79-0.75c0.49,0.03,0.96,0,0.76-0.73
			c0.28-0.03,0.5-0.06,0.72-0.08c0.24-0.7,0.24-0.7,1.02-0.8c0.09-0.01,0.23,0.02,0.27-0.03c0.23-0.24,0.42-0.69,0.65-0.71
			c0.57-0.03,0.48-0.4,0.54-0.76c0.24-0.03,0.47-0.07,0.73-0.1c0.03-0.23,0.06-0.45,0.09-0.69c0.23-0.02,0.45-0.05,0.7-0.07
			c0.03-0.23,0.06-0.45,0.09-0.7c0.22-0.03,0.44-0.06,0.65-0.09c0.22-0.71,0.22-0.71,0.83-0.79c0.07-0.41,0.03-0.98,0.78-0.71
			c0.04-0.28,0.07-0.5,0.11-0.77c0.2-0.03,0.42-0.06,0.68-0.1c0.03-0.22,0.06-0.45,0.09-0.71c0.23-0.03,0.45-0.05,0.69-0.08
			c0.03-0.23,0.06-0.45,0.09-0.7c0.21-0.03,0.43-0.06,0.69-0.1c0.03-0.21,0.06-0.43,0.09-0.69c0.2-0.04,0.41-0.07,0.69-0.12
			c0.02-0.14,0.03-0.3,0.06-0.46c0.02-0.1,0.06-0.28,0.11-0.29c0.96-0.11,0.58-0.91,0.76-1.48c0.51,0.01,0.87-0.19,0.72-0.86
			c0.9,0.12,0.79-0.49,0.8-1c0-0.34,0.05-0.58,0.48-0.58c0.1,0,0.2-0.27,0.3-0.42c0.11-0.16,0.2-0.42,0.33-0.44
			c0.35-0.05,0.44-0.21,0.44-0.52c0-0.22,0.03-0.45,0.09-0.67c0.03-0.12,0.15-0.31,0.24-0.31c0.45-0.01,0.47-0.28,0.5-0.63
			c0.04-0.41-0.14-1.01,0.62-1.03c0.05,0,0.13-0.21,0.14-0.32c0.04-0.28,0.03-0.57,0.09-0.84c0.03-0.13,0.17-0.33,0.27-0.34
			c0.44-0.02,0.4-0.31,0.45-0.62c0.07-0.42-0.18-1.05,0.6-1.1c0.06,0,0.13-0.24,0.15-0.38c0.04-0.39,0.05-0.79,0.08-1.18
			c0.03-0.36-0.05-0.79,0.54-0.79c0.06,0,0.17-0.26,0.18-0.4c0.06-0.48,0.07-0.97,0.13-1.45c0.02-0.14,0.15-0.35,0.25-0.36
			c0.43-0.06,0.41-0.34,0.42-0.65c0.03-0.69,0.08-1.38,0.13-2.07c0.01-0.13,0.1-0.36,0.18-0.37c0.51-0.07,0.48-0.43,0.48-0.79
			c0.01-0.69,0.04-1.39,0.08-2.08c0.01-0.14,0.05-0.4,0.11-0.4c0.71-0.1,0.56-0.66,0.56-1.08c0.03-3.84,0.06-7.69,0.06-11.53
			c0-1.41-0.06-2.81-0.09-4.22c-0.01-0.28-0.02-0.5-0.38-0.58c-0.12-0.03-0.25-0.3-0.26-0.46c-0.06-0.77-0.07-1.54-0.11-2.3
			c-0.01-0.14-0.06-0.39-0.12-0.4c-0.78-0.14-0.55-0.77-0.61-1.24c-0.07-0.5-0.03-1.01-0.09-1.51c-0.02-0.14-0.18-0.34-0.3-0.37
			c-0.32-0.06-0.38-0.24-0.39-0.51c-0.01-0.41-0.06-0.82-0.07-1.23c-0.01-0.34-0.03-0.63-0.49-0.67c-0.09-0.01-0.2-0.24-0.22-0.39
			c-0.05-0.28-0.03-0.56-0.06-0.84c-0.01-0.12-0.07-0.34-0.12-0.34c-0.83-0.07-0.57-0.73-0.64-1.19c-0.04-0.29-0.05-0.5-0.42-0.52
			c-0.1-0.01-0.24-0.2-0.27-0.33c-0.07-0.35-0.06-0.71-0.12-1.06c-0.06-0.36-0.07-0.66-0.54-0.9c-0.33-0.17-0.45-0.83-0.93-1.08
			c-0.08-0.04-0.07-0.32-0.07-0.48c0-0.52-0.1-0.93-0.78-0.82c-0.03-0.28-0.05-0.52-0.08-0.79c-0.65,0.09-0.79-0.3-0.74-0.81
			c0.05-0.55-0.14-0.85-0.75-0.78c-0.02-0.26-0.04-0.48-0.07-0.73c-1.21,0.02-0.58-0.97-0.87-1.55c-0.17-0.03-0.38-0.07-0.63-0.11
			c-0.03-0.23-0.06-0.46-0.1-0.72c-0.23-0.02-0.45-0.05-0.7-0.07c-0.02-0.24-0.04-0.46-0.06-0.71c-0.22-0.03-0.44-0.05-0.71-0.09
			c-0.03-0.22-0.05-0.45-0.08-0.73c-0.53,0.04-0.89-0.12-0.74-0.77c-0.48-0.06-1.02-0.04-0.75-0.79c-0.52-0.04-1-0.08-0.8-0.8
			c-0.56,0.02-0.97-0.12-0.81-0.81c-0.59,0.07-0.91-0.13-0.79-0.75c-0.25-0.03-0.47-0.06-0.73-0.09c-0.03-0.22-0.06-0.43-0.1-0.69
			c-0.22-0.02-0.46-0.05-0.73-0.08c-0.03-0.22-0.06-0.44-0.1-0.69c-0.22-0.03-0.44-0.06-0.73-0.1c0.12-0.69-0.33-0.79-0.86-0.76
			c-0.52,0.04-0.78-0.17-0.7-0.74c-0.27-0.03-0.5-0.05-0.79-0.09c0.18-0.97-0.6-0.72-1.07-0.84c-0.28-0.07-0.43-0.11-0.53-0.44
			c-0.06-0.2-0.46-0.29-0.77-0.46c0.13-0.72-0.5-0.57-0.94-0.63c-0.34-0.05-0.7,0-0.67-0.52c0-0.07-0.2-0.19-0.32-0.22
			c-0.27-0.06-0.56-0.04-0.83-0.11c-0.14-0.04-0.35-0.19-0.36-0.3c-0.03-0.33-0.19-0.4-0.48-0.4c-0.26,0-0.52-0.05-0.78-0.09
			c-0.1-0.02-0.28-0.08-0.28-0.12c-0.04-0.83-0.71-0.53-1.14-0.61c-0.3-0.06-0.54-0.07-0.57-0.46c-0.01-0.1-0.21-0.23-0.35-0.26
			c-0.29-0.05-0.6-0.01-0.89-0.06c-0.14-0.03-0.35-0.19-0.36-0.3c-0.04-0.36-0.25-0.4-0.54-0.41c-0.37-0.01-0.75-0.06-1.12-0.07
			c-0.36-0.01-0.73,0.02-0.76-0.52c0-0.07-0.26-0.18-0.4-0.19c-0.48-0.05-0.97-0.04-1.46-0.09c-0.16-0.02-0.43-0.14-0.44-0.23
			c-0.04-0.46-0.34-0.46-0.67-0.48c-0.92-0.04-1.83-0.09-2.75-0.15c-0.14-0.01-0.38-0.12-0.4-0.21C72.5,8.8,72.21,8.81,71.87,8.8
			c-1.71-0.03-3.41-0.08-5.12-0.12c-0.31-0.01-0.6,0.02-0.69-0.4c-0.02-0.1-0.29-0.2-0.45-0.21c-0.6-0.02-1.2-0.02-1.8-0.01
			c-0.38,0-0.8-0.12-0.94,0.45c-0.02,0.09-0.35,0.15-0.54,0.15c-2.29,0.06-4.57,0.1-6.86,0.14c-0.26,0.01-0.53,0.01-0.78,0.05
			c-0.11,0.02-0.31,0.1-0.31,0.16c-0.05,0.52-0.42,0.48-0.78,0.49c-0.67,0.03-1.35,0.05-2.02,0.1c-0.14,0.01-0.39,0.12-0.4,0.19
			c-0.03,0.51-0.38,0.47-0.72,0.49c-0.67,0.03-1.35,0.06-2.02,0.12c-0.14,0.01-0.38,0.13-0.39,0.21c-0.01,0.56-0.4,0.49-0.75,0.5
			c-0.21,0-0.41,0-0.62,0.03c-0.11,0.01-0.28,0.05-0.3,0.1c-0.19,0.82-0.88,0.57-1.4,0.65c-0.22,0.03-0.45,0.01-0.67,0.04
			c-0.1,0.01-0.28,0.07-0.28,0.12c-0.03,0.76-0.64,0.6-1.07,0.64c-0.33,0.03-0.58,0.05-0.6,0.47c-0.01,0.09-0.22,0.22-0.35,0.25
			c-0.25,0.06-0.52,0.05-0.78,0.09c-0.12,0.02-0.34,0.07-0.34,0.12c-0.04,0.8-0.68,0.58-1.12,0.66c-0.27,0.04-0.44,0.07-0.49,0.4
			c-0.02,0.14-0.26,0.3-0.43,0.35c-0.26,0.08-0.69-0.03-0.81,0.13c-0.3,0.41-0.59,0.76-1.13,0.8c-0.04,0.85-0.75,0.64-1.21,0.68
			c-0.57,0.05-0.28,0.52-0.49,0.77c-0.2,0.02-0.41,0.05-0.66,0.07c-0.03,0.23-0.07,0.45-0.1,0.69c-0.23,0.03-0.44,0.05-0.74,0.08
			c0.15,0.7-0.29,0.82-0.83,0.77c-0.56-0.05-0.71,0.28-0.7,0.75c-0.27,0.03-0.49,0.06-0.74,0.09c-0.04,0.23-0.08,0.44-0.12,0.68
			c-0.22,0.03-0.44,0.06-0.68,0.1c-0.04,0.23-0.07,0.44-0.11,0.69c-0.22,0.03-0.44,0.06-0.69,0.09c-0.03,0.22-0.07,0.44-0.1,0.69
			c-0.21,0.03-0.43,0.05-0.7,0.09c-0.03,0.22-0.07,0.45-0.1,0.7c-0.23,0.03-0.45,0.05-0.69,0.08c-0.03,0.24-0.05,0.46-0.08,0.7
			c-0.23,0.03-0.45,0.05-0.7,0.09c-0.03,0.23-0.06,0.44-0.1,0.7c-0.21,0.03-0.43,0.06-0.69,0.09c-0.03,0.21-0.06,0.43-0.1,0.7
			c-0.22,0.03-0.45,0.06-0.71,0.09c-0.03,0.23-0.05,0.45-0.08,0.7c-0.22,0.03-0.44,0.07-0.7,0.11c-0.03,0.35-0.1,0.7-0.09,1.04
			c0.02,0.56-0.45,0.37-0.74,0.51c-0.02,0.21-0.05,0.43-0.08,0.69c-0.22,0.03-0.43,0.07-0.69,0.11c-0.03,0.23-0.06,0.46-0.09,0.74
			c-0.67-0.1-0.8,0.29-0.75,0.83c0.05,0.51-0.1,0.85-0.73,0.75c-0.03,0.27-0.05,0.5-0.08,0.78c-1.23-0.01-0.52,1.02-0.86,1.56
			c-0.82-0.13-0.69,0.51-0.69,1.01c0,0.36-0.03,0.63-0.5,0.61c-0.08,0-0.22,0.17-0.25,0.28c-0.05,0.16-0.04,0.34-0.03,0.5
			c0.04,0.51-0.06,0.9-0.74,0.8c-0.02,0.3-0.04,0.56-0.05,0.81c-0.01,0.39,0.06,0.83-0.57,0.79c-0.06,0-0.18,0.25-0.19,0.39
			c-0.03,0.37-0.01,0.75-0.01,1.2c-0.89-0.12-0.78,0.49-0.79,1.01c-0.01,0.26-0.03,0.53-0.02,0.79c0.02,0.32-0.03,0.54-0.43,0.57
			c-0.12,0.01-0.3,0.25-0.31,0.4c-0.05,0.52-0.02,1.05-0.06,1.57c-0.01,0.15-0.17,0.41-0.29,0.42c-0.39,0.04-0.44,0.25-0.45,0.57
			c-0.02,0.71-0.06,1.42-0.11,2.13c-0.01,0.16-0.13,0.44-0.21,0.44c-0.47,0.04-0.45,0.35-0.46,0.68c-0.03,1.24-0.07,2.47-0.11,3.71
			c-0.01,0.35-0.04,0.65-0.42,0.84c-0.14,0.07-0.23,0.37-0.23,0.57c-0.02,2.55-0.02,5.1-0.01,7.65c0,0.75,0.02,0.75-0.71,0.77
			c-0.34,0.01-0.67,0.03-1.01,0.03c-0.36,0-0.68,0.01-0.71,0.5c-0.01,0.08-0.26,0.19-0.39,0.19c-0.1,0-0.25-0.16-0.27-0.27
			c-0.05-0.23-0.05-0.48-0.05-0.73c0-2.85,0.01-5.7,0.02-8.55c0-0.31-0.01-0.59,0.41-0.67c0.1-0.02,0.21-0.29,0.22-0.45
			c0.07-1.48,0.11-2.96,0.15-4.44c0.01-0.3,0.02-0.54,0.41-0.6c0.13-0.02,0.29-0.32,0.29-0.49c0.03-0.86,0.01-1.72,0.01-2.67
			c0.89,0.11,0.8-0.47,0.81-0.97c0.01-0.32,0.02-0.64,0.02-0.96c0-0.26,0.01-0.47,0.35-0.53c0.13-0.02,0.28-0.23,0.31-0.38
			c0.08-0.34,0.09-0.7,0.12-1.06c0.04-0.39-0.15-0.91,0.53-0.96c0.06,0,0.14-0.21,0.16-0.33c0.05-0.39,0.09-0.78,0.11-1.17
			c0.02-0.39-0.08-0.82,0.55-0.8c0.06,0,0.18-0.21,0.19-0.34c0.04-0.37,0.04-0.74,0.06-1.15c0.23-0.04,0.45-0.08,0.72-0.13
			c0.03-0.45,0.06-0.92,0.1-1.42c0.21-0.04,0.42-0.08,0.71-0.14c0.02-0.35,0.01-0.72,0.07-1.08c0.02-0.14,0.19-0.35,0.3-0.35
			c0.43-0.02,0.45-0.26,0.46-0.6c0.01-0.43-0.12-0.97,0.62-1.03c0.1-0.01,0.17-0.47,0.27-0.78c0.15-0.03,0.36-0.06,0.61-0.11
			c0.02-0.24,0.06-0.48,0.07-0.72c0.02-0.36,0.02-0.69,0.55-0.74c0.14-0.01,0.24-0.49,0.39-0.82c0.13-0.01,0.35-0.04,0.59-0.06
			c0.03-0.24,0.05-0.46,0.08-0.72c0.21-0.04,0.42-0.07,0.68-0.12c0.03-0.25,0.1-0.51,0.08-0.76c-0.03-0.53,0.14-0.83,0.75-0.73
			c0.03-0.25,0.05-0.47,0.08-0.74c0.22-0.03,0.45-0.06,0.72-0.09c0.02-0.23,0.04-0.45,0.06-0.7c0.23-0.03,0.45-0.05,0.71-0.09
			c0.03-0.22,0.06-0.46,0.09-0.72c0.23-0.02,0.45-0.04,0.7-0.06c0.03-0.23,0.05-0.45,0.08-0.72c0.22-0.03,0.46-0.06,0.72-0.09
			c0.02-0.23,0.04-0.45,0.06-0.7c0.25-0.03,0.48-0.06,0.73-0.09c0.03-0.24,0.06-0.46,0.09-0.71c0.23-0.03,0.45-0.05,0.69-0.08
			c0.03-0.23,0.06-0.45,0.09-0.7c0.23-0.03,0.44-0.05,0.7-0.08c0.09-0.38,0.08-0.88,0.72-0.76c0.04,0.01,0.15-0.09,0.15-0.14
			c-0.02-0.78,0.6-0.62,1.03-0.66c0.33-0.03,0.48-0.12,0.48-0.46c0-0.1,0.13-0.3,0.18-0.29c0.58,0.06,0.68-0.3,0.68-0.77
			c0.45-0.01,0.88-0.01,0.86-0.62c0-0.06,0.19-0.15,0.3-0.17c0.26-0.05,0.52-0.05,0.78-0.09c0.11-0.02,0.31-0.12,0.3-0.17
			c-0.04-0.6,0.38-0.58,0.8-0.6c0.05-0.23,0.09-0.44,0.14-0.69c0.41-0.04,0.88,0,0.9-0.64c0-0.09,0.52-0.19,0.8-0.21
			c0.37-0.02,0.67-0.04,0.66-0.53c0-0.08,0.27-0.16,0.4-0.26c0.15-0.12,0.28-0.26,0.42-0.38c0.14-0.13,0.26-0.31,0.43-0.36
			c0.22-0.07,0.49-0.02,0.72-0.08c0.13-0.03,0.35-0.17,0.35-0.26c0.01-0.45,0.26-0.48,0.62-0.5c0.44-0.02,1.04,0.14,1.04-0.64
			c0-0.04,0.21-0.11,0.33-0.13c0.28-0.03,0.57,0,0.84-0.05c0.13-0.02,0.35-0.16,0.35-0.25c0-0.47,0.29-0.49,0.64-0.48
			c0.28,0.01,0.56-0.03,0.84-0.03c0.47-0.01,0.93-0.03,0.86-0.72c0.67-0.05,1.3-0.09,1.92-0.17c0.16-0.02,0.4-0.18,0.43-0.31
			c0.06-0.33,0.24-0.37,0.51-0.37c0.41,0,0.82-0.03,1.24-0.04c0.36-0.01,0.74,0.03,0.75-0.51c0-0.07,0.26-0.18,0.4-0.19
			c0.75-0.06,1.5-0.08,2.24-0.14c0.14-0.01,0.4-0.12,0.4-0.2c0.04-0.51,0.39-0.46,0.73-0.47c1.69-0.05,3.37-0.1,5.06-0.15
			c0.28-0.01,0.5-0.03,0.58-0.38c0.03-0.12,0.31-0.24,0.48-0.24c1.52-0.03,3.04-0.05,4.56-0.05c1.28,0,2.55,0.01,3.83,0.04
			c0.17,0,0.47,0.08,0.48,0.16c0.08,0.56,0.5,0.47,0.86,0.49c1.4,0.05,2.81,0.09,4.22,0.15c0.15,0.01,0.42,0.09,0.42,0.16
			c0.04,0.57,0.45,0.5,0.82,0.53c0.65,0.04,1.31,0.05,1.96,0.11c0.15,0.01,0.38,0.16,0.4,0.26c0.06,0.39,0.3,0.42,0.6,0.43
			c0.43,0.01,0.86,0.04,1.29,0.04c0.34,0,0.64-0.01,0.68,0.45c0.01,0.09,0.21,0.21,0.33,0.22c0.48,0.07,0.97,0.08,1.45,0.15
			c0.15,0.03,0.39,0.19,0.4,0.3c0.04,0.4,0.26,0.44,0.57,0.44c0.33,0,0.67,0.03,1.06,0.04c-0.06,0.89,0.59,0.73,1.1,0.75
			c0.3,0.01,0.52,0.01,0.63,0.39c0.04,0.16,0.4,0.26,0.63,0.32c0.29,0.07,0.59,0.08,0.89,0.09c0.35,0.01,0.68,0.01,0.69,0.51
			c0,0.09,0.22,0.22,0.36,0.24c0.25,0.05,0.53,0.01,0.78,0.07c0.14,0.03,0.36,0.18,0.37,0.3c0.05,0.38,0.25,0.43,0.58,0.45
			c0.46,0.02,1.06-0.18,1.12,0.63c0.01,0.09,0.44,0.15,0.75,0.25c-0.16,0.76,0.45,0.68,0.94,0.71c0.32,0.02,0.54,0.03,0.62,0.46
			c0.03,0.19,0.44,0.3,0.79,0.52c0.03,0.23,0.05,0.68,0.66,0.58c0.04-0.01,0.14,0.04,0.14,0.07c0.19,0.88,0.96,0.61,1.55,0.79
			c0.03,0.2,0.06,0.41,0.09,0.67c0.22,0.03,0.43,0.06,0.7,0.09c0.03,0.22,0.06,0.45,0.09,0.71c0.23,0.02,0.45,0.04,0.7,0.07
			c0.03,0.22,0.06,0.44,0.1,0.7c0.21,0.03,0.43,0.05,0.69,0.09c0.04,0.2,0.07,0.41,0.12,0.67c0.4,0.04,0.86,0.07,0.8,0.68
			c0,0.04,0.14,0.13,0.22,0.13c0.38-0.01,0.5,0.15,0.55,0.52c0.02,0.16,0.38,0.28,0.7,0.5c0.01,0.05,0.04,0.27,0.08,0.53
			c0.2,0.03,0.41,0.07,0.68,0.11c0.03,0.22,0.06,0.45,0.1,0.71c0.23,0.03,0.45,0.05,0.7,0.08c0.02,0.24,0.04,0.46,0.07,0.7
			c0.23,0.03,0.45,0.06,0.7,0.09c0.03,0.23,0.06,0.46,0.1,0.72c0.23,0.02,0.45,0.04,0.69,0.07c0.03,0.25,0.05,0.49,0.07,0.71
			c0.29,0.13,0.76-0.08,0.74,0.49c-0.02,0.33,0.05,0.67,0.08,1.03c0.23,0.04,0.44,0.07,0.69,0.12c0.03,0.23,0.07,0.47,0.11,0.72
			c0.22,0.03,0.42,0.05,0.65,0.08c0.06,0.3,0.12,0.6,0.17,0.91c0.05,0.31,0.32,0.44,0.47,0.63c0.3,0.39,0.51,0.82,0.98,1.07
			c0.09,0.05,0.06,0.39,0.05,0.59c-0.05,0.51,0.14,0.79,0.73,0.72c0.03,0.38,0.11,0.73,0.08,1.07c-0.04,0.56,0.41,0.41,0.71,0.53
			c0.04,0.28,0.06,0.55,0.11,0.82c0.06,0.33,0.06,0.69,0.55,0.7c0.06,0,0.15,0.22,0.17,0.35c0.04,0.28,0.01,0.57,0.07,0.84
			c0.03,0.14,0.2,0.33,0.32,0.34c0.38,0.02,0.41,0.23,0.4,0.53c-0.01,0.24-0.02,0.5,0.04,0.73c0.04,0.16,0.19,0.39,0.32,0.41
			c0.35,0.04,0.43,0.21,0.42,0.52c-0.01,0.24-0.02,0.49,0.04,0.73c0.04,0.15,0.18,0.37,0.29,0.38c0.39,0.03,0.45,0.24,0.44,0.56
			c0,0.32,0.02,0.64,0.05,0.95c0.03,0.39-0.09,0.88,0.57,0.87c0.06,0,0.16,0.23,0.17,0.35c0.03,0.52,0.02,1.05,0.07,1.57
			c0.02,0.15,0.19,0.38,0.33,0.4c0.32,0.06,0.38,0.21,0.39,0.5c0.03,0.71,0.08,1.42,0.14,2.13c0.01,0.13,0.11,0.36,0.19,0.36
			c0.57,0.05,0.47,0.47,0.49,0.83c0.04,0.94,0.07,1.87,0.13,2.81c0.01,0.14,0.11,0.4,0.19,0.41c0.5,0.05,0.46,0.39,0.46,0.73
			c-0.01,4.82-0.02,9.64-0.02,14.45c0,0.33-0.02,0.59-0.45,0.63c-0.09,0.01-0.2,0.28-0.21,0.44c-0.05,0.75-0.08,1.5-0.1,2.25
			c-0.01,0.27-0.05,0.45-0.38,0.5c-0.14,0.02-0.31,0.24-0.34,0.4c-0.06,0.39-0.05,0.78-0.07,1.18c-0.02,0.39,0.11,0.82-0.49,0.96
			c-0.15,0.04-0.21,0.52-0.26,0.8c-0.05,0.27-0.04,0.56-0.03,0.84c0.01,0.32-0.04,0.51-0.4,0.68c-0.22,0.11-0.31,0.58-0.36,0.91
			c-0.06,0.38-0.01,0.78-0.01,1.23c-0.96-0.03-0.77,0.64-0.8,1.17c-0.01,0.31-0.01,0.55-0.42,0.58c-0.11,0.01-0.27,0.22-0.3,0.36
			c-0.06,0.25-0.04,0.52-0.08,0.78c-0.02,0.13-0.11,0.35-0.17,0.35c-0.73,0.01-0.56,0.58-0.6,0.97c-0.03,0.36,0,0.68-0.51,0.67
			c-0.08,0-0.21,0.23-0.24,0.36c-0.06,0.33-0.07,0.67-0.1,1.05c-0.85-0.1-0.74,0.52-0.76,1.02c-0.01,0.33-0.03,0.54-0.46,0.61
			c-0.18,0.03-0.29,0.45-0.5,0.78c-0.65-0.06-0.6,0.53-0.61,1.04c-0.01,0.32-0.07,0.48-0.43,0.58c-0.2,0.05-0.32,0.42-0.48,0.65
			c0.04,0.04,0.07,0.07,0.11,0.11c-0.21,0.04-0.43,0.08-0.68,0.13c-0.03,0.28-0.1,0.55-0.09,0.83c0,0.37-0.07,0.57-0.5,0.64
			c-0.17,0.02-0.28,0.42-0.42,0.64c0.03,0.03,0.07,0.07,0.1,0.1c-0.22,0.04-0.43,0.07-0.7,0.12c-0.03,0.22-0.06,0.45-0.09,0.71
			c-0.23,0.04-0.44,0.08-0.68,0.12c-0.04,0.41-0.01,0.84-0.63,0.86c-0.09,0-0.22,0.55-0.23,0.84c-0.02,0.34-0.08,0.53-0.47,0.53
			c-0.11,0-0.31,0.13-0.3,0.17c0.1,0.63-0.37,0.62-0.8,0.68c0.1,0.58-0.19,0.8-0.76,0.75c-0.01,0.46-0.09,0.82-0.66,0.82
			c-0.09,0-0.19,0.45-0.3,0.75c-0.16,0.02-0.38,0.04-0.63,0.07c0.01,0.51-0.09,0.92-0.8,0.73c0.14,0.89-0.49,0.81-1.01,0.88
			c-0.17,0.02-0.48,0.11-0.47,0.16c0.03,0.59-0.37,0.64-0.82,0.64c-0.03,0.23-0.06,0.43-0.09,0.68c-0.22,0.03-0.46,0.06-0.72,0.1
			c-0.04,0.22-0.07,0.44-0.11,0.7c-0.46-0.01-0.9,0.03-0.89,0.66c0,0.04-0.21,0.12-0.33,0.13c-0.33,0.04-0.67,0.06-1.02,0.09
			c-0.04,0.24-0.08,0.46-0.12,0.7c-0.43,0.03-0.92-0.04-0.89,0.62c0,0.05-0.23,0.15-0.36,0.16c-0.33,0.04-0.67,0.06-1.06,0.08
			c0.16,0.87-0.46,0.73-0.94,0.74c-0.37,0.01-0.72-0.03-0.72,0.51c0,0.08-0.22,0.22-0.35,0.24c-0.26,0.05-0.53-0.01-0.78,0.05
			c-0.15,0.04-0.37,0.2-0.38,0.33c-0.04,0.35-0.21,0.43-0.52,0.42c-0.37-0.01-0.75,0.04-1.12,0.05c-0.36,0.01-0.68,0.04-0.68,0.53
			c0,0.07-0.2,0.19-0.32,0.21c-0.28,0.04-0.56,0.05-0.84,0.04c-0.29-0.01-0.43,0.08-0.49,0.39c-0.02,0.14-0.26,0.32-0.42,0.35
			c-0.36,0.07-0.75,0.03-1.12,0.09c-0.33,0.05-0.74,0.02-0.77,0.55c0,0.06-0.23,0.16-0.36,0.17c-0.41,0.03-0.82,0.02-1.24,0.03
			c-0.39,0.02-0.87-0.09-0.89,0.56c0,0.07-0.26,0.16-0.41,0.17c-0.97,0.06-1.94,0.1-2.92,0.15c-0.14,0.01-0.37,0.09-0.38,0.16
			c-0.09,0.62-0.56,0.48-0.94,0.49c-1.16,0.05-2.32,0.09-3.48,0.15c-0.15,0.01-0.4,0.11-0.41,0.2c-0.06,0.46-0.37,0.43-0.7,0.44
			c-1.18,0.02-2.36,0.03-3.54,0.08c-0.18,0.01-0.46,0.16-0.52,0.31c-0.12,0.32,0.13,0.38,0.41,0.49c0.21,0.08,0.3,0.45,0.49,0.77
			c0.09,0.01,0.31,0.04,0.52,0.07c0.18,0.68,0.18,0.68,0.85,0.81c0.01,0.41,0.08,0.82,0.66,0.73c0.13,0.51,0.55,0.7,0.93,0.99
			c0.13,0.1-0.03,0.56-0.02,0.86c0.01,0.44-0.31,0.38-0.58,0.43c-0.07,0.01-0.18,0.12-0.18,0.18c0.03,0.85-0.7,0.61-1.12,0.73
			c-0.29,0.09-0.69-0.01-0.97-0.16C65.41,116.02,65.37,115.69,65.24,115.38z"/>
		<path class="st0" d="M96.84,60.08c-21.76,0-43.57,0-65.42,0c-0.01-0.22-0.03-0.42-0.03-0.62c0-10.35,0-20.7-0.01-31.05
			c0-0.59,0.19-0.72,0.75-0.72c21.4,0.01,42.8,0.01,64.2,0.01c0.04,0,0.08,0,0.11,0c1.19,0.02,1.26,0.09,1.26,1.26
			c0,9.85,0,19.69,0,29.54c0,0.4,0.12,0.85-0.53,0.9C97.04,59.4,96.96,59.81,96.84,60.08z M93.73,57.01
			c0.11-0.3,0.15-0.69,0.27-0.72c0.6-0.14,0.49-0.58,0.49-0.97c0-7.67,0-15.34,0-23.01c0-1.45,0-1.45-1.46-1.45
			c-19.02,0-38.03,0-57.05,0c-0.28,0-0.56,0.06-0.84,0.03c-0.56-0.05-0.64,0.23-0.64,0.71c0.01,8.03,0.01,16.05,0.01,24.08
			c0,1.32,0.02,1.33,1.33,1.33c19.09,0,38.18,0,57.28,0C93.34,57.01,93.56,57.01,93.73,57.01z"/>
		<path class="st0" d="M16.4,84.66c0.98,0,1.88-0.01,2.77,0.02c0.12,0,0.32,0.24,0.32,0.38c0.02,1.31,0.01,2.62,0.02,3.93
			c0,0.31-0.12,0.44-0.43,0.44c-0.77-0.01-1.54,0.01-2.3-0.02c-0.13-0.01-0.36-0.22-0.37-0.34C16.39,87.63,16.4,86.19,16.4,84.66z"
			/>
		<path class="st0" d="M69.23,38.17c-0.12,0.62,0.23,0.77,0.75,0.74c0.06,0.39-0.02,0.86,0.59,0.82c0.06,0,0.19,0.21,0.2,0.33
			c0.05,0.39,0.06,0.78,0.1,1.17c0.04,0.33,0.05,0.69,0.53,0.71c0.07,0,0.18,0.22,0.18,0.34c0.01,1.07,0.01,2.14-0.01,3.2
			c0,0.12-0.13,0.33-0.2,0.33c-0.57,0-0.53,0.4-0.54,0.78c-0.01,0.26-0.03,0.52-0.05,0.82c-0.37,0.08-0.86,0.08-0.75,0.69
			c-0.51,0.14-0.67,0.78-1.04,0.91c-0.43,0.16-0.55,0.33-0.54,0.77c-0.29,0.03-0.56,0.08-0.83,0.1c-0.36,0.02-0.74-0.02-0.75,0.52
			c0,0.07-0.23,0.19-0.35,0.19c-1.57,0-3.14,0-4.71-0.05c-0.19-0.01-0.37-0.31-0.52-0.53c-0.44-0.39-1.45,0.24-1.51-0.93
			c-0.43-0.03-0.85-0.11-0.77-0.71c0-0.03-0.07-0.11-0.11-0.11c-0.86,0.01-0.63-0.65-0.65-1.12c-0.02-0.34-0.09-0.52-0.46-0.54
			c-0.11-0.01-0.29-0.23-0.29-0.36c-0.03-1.57-0.03-3.15-0.02-4.72c0-0.12,0.12-0.35,0.17-0.34c0.66,0.02,0.54-0.48,0.59-0.86
			c0.02-0.2,0.03-0.4,0.04-0.62c0.25-0.05,0.46-0.09,0.72-0.14c-0.1-0.6,0.24-0.79,0.8-0.77c-0.11-0.62,0.22-0.8,0.76-0.75
			c0.04-0.23,0.08-0.42,0.12-0.67c0.61-0.05,1.24-0.09,1.87-0.17c0.14-0.02,0.39-0.13,0.39-0.21c0.03-0.47,0.34-0.46,0.67-0.47
			c0.39,0,0.79-0.01,1.18-0.02c0.31-0.01,0.55,0.03,0.6,0.42c0.01,0.1,0.23,0.21,0.37,0.23c0.39,0.07,0.78,0.09,1.17,0.13
			c0.39,0.03,0.87-0.11,0.92,0.53c0,0.06,0.2,0.13,0.32,0.16C68.49,38.04,68.82,38.09,69.23,38.17z M62.97,47.52
			c0.97,0,1.92,0.01,2.87-0.02c0.11,0,0.28-0.23,0.29-0.36c0.03-0.29,0.14-0.39,0.42-0.39c0.18,0,1.13-1.07,1.18-1.25
			c0.05-0.16,0.15-0.41,0.25-0.42c0.43-0.04,0.46-0.3,0.47-0.62c0.01-0.45,0.03-0.9,0.02-1.35c0-0.13-0.11-0.35-0.17-0.36
			c-0.53-0.02-0.49-0.42-0.53-0.76c-0.02-0.17-0.03-0.34-0.06-0.5c-0.1-0.5-1.03-0.3-0.87-1.03c0-0.01-0.19-0.07-0.3-0.09
			c-0.2-0.03-0.41-0.07-0.61-0.07c-0.32,0-0.6,0-0.6-0.46c0-0.09-0.23-0.24-0.35-0.24c-0.45-0.01-0.9,0.03-1.34,0.04
			c-0.35,0.01-0.69,0.02-0.68,0.52c0,0.06-0.13,0.17-0.19,0.16c-0.58-0.08-0.67,0.3-0.67,0.72c-0.65,0.12-0.65,0.12-0.82,0.94
			c-0.8-0.22-0.67,0.37-0.68,0.84c-0.01,0.41-0.01,0.82,0,1.24c0.01,0.54-0.16,1.2,0.76,1.11c0.01,0.24-0.05,0.5,0.04,0.55
			c0.42,0.28,0.68,0.84,1.02,0.99C62.84,46.88,62.94,47.08,62.97,47.52z"/>
		<path class="st0" d="M38.56,49.42c0-0.97,0.02-1.95-0.01-2.92c-0.01-0.42,0.13-0.57,0.54-0.56c0.69,0.02,1.39,0,2.08-0.02
			c0.38-0.01,0.49,0.17,0.48,0.51c-0.01,0.67,0.02,1.35-0.01,2.02c-0.02,0.43,0.09,0.66,0.58,0.65c0.94-0.02,1.87,0.03,2.81,0.02
			c0.36,0,0.51,0.1,0.5,0.47c-0.02,0.96-0.01,1.91,0,2.87c0,0.35-0.11,0.51-0.48,0.51c-1.99-0.02-3.97-0.03-5.96-0.02
			c-0.47,0-0.56-0.2-0.55-0.61C38.58,51.37,38.56,50.39,38.56,49.42z"/>
		<path class="st0" d="M42.2,34.86c0.94,0,1.87,0.01,2.81-0.01c0.37-0.01,0.55,0.09,0.54,0.5c-0.02,0.71-0.02,1.42,0,2.13
			c0.01,0.36-0.13,0.5-0.49,0.49c-0.73-0.02-1.46,0.01-2.19-0.01c-0.36-0.01-0.51,0.13-0.5,0.49c0.01,0.73-0.03,1.46-0.01,2.19
			c0.01,0.42-0.14,0.57-0.55,0.56c-0.92-0.02-1.83-0.01-2.75,0c-0.34,0-0.5-0.11-0.5-0.49c0.02-1.78,0.02-3.56,0-5.34
			c0-0.38,0.16-0.49,0.5-0.49c1.05,0.01,2.1,0,3.14,0C42.2,34.88,42.2,34.87,42.2,34.86z"/>
		<path class="st0" d="M86.68,45.96c1.03,0,1.94-0.01,2.86,0.02c0.1,0,0.29,0.23,0.29,0.36c0.02,2.08,0.02,4.16,0,6.24
			c0,0.13-0.23,0.36-0.35,0.37c-2.08,0-4.16-0.03-6.24-0.04c-0.32,0-0.42-0.16-0.41-0.46c0.01-0.69,0.01-1.39,0-2.08
			c-0.01-0.31,0.12-0.43,0.43-0.44c0.96-0.01,1.91-0.06,2.86-0.06c0.4,0,0.58-0.12,0.58-0.54C86.66,48.24,86.68,47.15,86.68,45.96z"
			/>
		<path class="st0" d="M89.83,38.03c0,0.86-0.01,1.72,0.01,2.59c0.01,0.37-0.1,0.55-0.51,0.54c-0.71-0.02-1.42-0.02-2.14,0
			c-0.38,0.01-0.48-0.15-0.47-0.5c0.02-0.64,0.01-1.27,0.01-1.91c0-0.78,0-0.77-0.81-0.78c-0.88-0.01-1.76-0.03-2.64-0.03
			c-0.33,0-0.48-0.11-0.47-0.46c0.02-0.69,0.01-1.39,0-2.08c-0.01-0.31,0.12-0.45,0.42-0.46c0.52-0.02,1.04-0.08,1.57-0.08
			c1.48-0.01,2.96,0.01,4.44-0.01c0.47-0.01,0.62,0.15,0.6,0.61C89.81,36.3,89.84,37.17,89.83,38.03z"/>
		<path class="st0" d="M78.15,42.05c0.8,0,1.61,0.01,2.41,0c0.32,0,0.48,0.11,0.47,0.46c-0.02,0.69-0.01,1.38,0,2.08
			c0.01,0.31-0.13,0.43-0.43,0.43c-1.51,0.01-3.03,0.04-4.54,0.03c-0.13,0-0.35-0.25-0.36-0.4c-0.04-0.73-0.01-1.46-0.02-2.19
			c-0.01-0.34,0.12-0.46,0.46-0.46c0.67,0.02,1.35,0,2.02,0C78.15,42.02,78.15,42.04,78.15,42.05z"/>
		<path class="st0" d="M50.36,45.06c-0.62,0-1.24-0.01-1.85,0C48.16,45.08,47.99,45,48,44.6c0.03-0.71,0.02-1.42,0-2.14
			C47.99,42.13,48.1,42,48.45,42c1.27,0.01,2.55,0.01,3.82,0c0.34,0,0.47,0.13,0.47,0.46c-0.01,0.71-0.01,1.42,0,2.14
			c0.01,0.33-0.13,0.47-0.47,0.46C51.63,45.05,50.99,45.06,50.36,45.06z"/>
	</g>
</g>
</svg>
