<?xml version="1.0" encoding="utf-8"?>
<!-- Generator: Adobe Illustrator 24.3.0, SVG Export Plug-In . SVG Version: 6.00 Build 0)  -->
<svg version="1.1" id="Layer_1" xmlns="http://www.w3.org/2000/svg" xmlns:xlink="http://www.w3.org/1999/xlink" x="0px" y="0px"
	 viewBox="0 0 121.19 121.19" style="enable-background:new 0 0 121.19 121.19;" xml:space="preserve">
<style type="text/css">
	.st0{fill:#343D3A;}
</style>
<g>
	<g>
		<path class="st0" d="M103.65,102.16c-0.55-0.03-0.88,0.11-0.72,0.69c-0.4,0.1-0.75,0.17-1.09,0.26c-0.12,0.03-0.31,0.1-0.31,0.16
			c-0.03,0.62-0.49,0.51-0.88,0.56c-0.34,0.04-0.74-0.03-0.83,0.5c-0.01,0.08-0.27,0.16-0.43,0.17c-0.4,0.03-0.81,0.03-1.21,0.03
			c-11.37,0-22.73,0-34.1,0c-0.44,0-0.89,0.06-1.33,0.03c-0.52-0.04-0.64,0.2-0.64,0.67c0.01,2.99,0.01,5.98,0,8.97
			c0,0.42,0,0.84,0,1.29c-0.52,0.05-0.95,0.14-0.78,0.78c-0.77,0-1.46,0-2.17,0c-0.09-0.35-0.16-0.68-0.24-1
			c-0.03-0.12-0.06-0.32-0.13-0.34c-0.71-0.17-0.5-0.73-0.5-1.17c-0.01-4.9-0.01-9.8-0.01-14.7c0-0.83,0-0.83-0.85-0.83
			c-12.36,0-24.73,0-37.09,0c-0.44,0-0.88,0.05-1.39,0.08c0,5.76,0,11.45,0,17.15c-0.07-0.03-0.15-0.07-0.22-0.1
			c-0.2,0.25-0.39,0.51-0.59,0.76c-0.05,0.06-0.12,0.15-0.18,0.15c-0.61,0-1.23,0.03-1.84-0.06c-0.14-0.02-0.25-0.48-0.31-0.75
			c-0.07-0.32-0.01-0.69-0.5-0.75c-0.07-0.01-0.15-0.24-0.16-0.37c-0.03-0.27-0.02-0.55-0.02-0.83c0-5.05,0-10.1,0.01-15.14
			c0-0.38-0.1-0.78,0.44-1c0.17-0.07,0.2-0.56,0.23-0.86c0.03-0.31,0-0.59,0.44-0.63c0.1-0.01,0.18-0.23,0.28-0.35
			c0.1-0.12,0.18-0.26,0.3-0.36c0.24-0.19,0.5-0.34,0.76-0.51c-0.03-0.07-0.07-0.14-0.1-0.21c0.95-0.05,1.9-0.12,2.85-0.15
			c0.83-0.03,0.98-0.14,1.08-0.96c0.03-0.23,0.01-0.47,0.01-0.7c0-7.44,0-14.89,0.01-22.33c0-0.44-0.08-0.88,0.42-1.17
			C21.99,69.07,22,68.72,22,68.5c0.06-2.16,0.12-4.32,0.17-6.48c0.01-0.33-0.01-0.62,0.44-0.71c0.11-0.02,0.24-0.32,0.25-0.5
			c0.05-0.91,0.06-1.82,0.1-2.73c0.01-0.16,0.05-0.44,0.12-0.45c0.85-0.15,0.55-0.82,0.6-1.3c0.04-0.38,0.01-0.76,0.01-1.15
			c0.2-0.06,0.36-0.1,0.54-0.15c-0.12-0.16-0.22-0.31-0.33-0.45c0.06,0.01,0.13,0.02,0.19,0.04c0.13-0.29,0.29-0.57,0.37-0.87
			c0.11-0.43-0.13-0.99,0.57-1.18c0.15-0.04,0.2-0.52,0.25-0.81c0.05-0.31,0.03-0.63,0.06-0.95c0.01-0.12,0.07-0.32,0.12-0.33
			c0.62-0.02,0.52-0.51,0.58-0.87c0.06-0.38,0-0.76,0.52-0.96c0.2-0.08,0.23-0.64,0.29-0.98c0.08-0.46-0.16-1.06,0.63-1.17
			c0.09-0.01,0.15-0.48,0.15-0.74c0.01-0.48,0.11-0.84,0.71-0.79c0.03-0.26,0.06-0.48,0.1-0.75c0.6,0.03,0.71-0.36,0.74-0.85
			c0.02-0.38-0.04-0.84,0.58-0.87c0.07,0,0.16-0.26,0.19-0.42c0.06-0.31,0.1-0.63,0.15-0.97c0.19-0.04,0.39-0.08,0.61-0.13
			c0.05-0.4,0.07-0.79,0.63-0.85c0.11-0.01,0.21-0.54,0.24-0.84c0.03-0.3,0.07-0.48,0.44-0.57c0.2-0.05,0.31-0.43,0.36-0.76
			c0.2-0.05,0.4-0.09,0.64-0.14c0.06-0.39,0.11-0.77,0.66-0.88c0.15-0.03,0.19-0.6,0.3-0.91c0.05-0.15,0.14-0.4,0.21-0.39
			c0.53,0.01,0.62-0.34,0.58-0.79c0.57,0.04,0.85-0.2,0.78-0.77c0.6,0.02,0.87-0.24,0.72-0.82c0.28-0.05,0.48-0.08,0.72-0.12
			c0.04-0.23,0.07-0.45,0.12-0.7c0.21-0.03,0.42-0.06,0.66-0.09c0.04-0.21,0.08-0.41,0.13-0.65c0.2-0.04,0.4-0.07,0.64-0.12
			c0.05-0.2,0.09-0.42,0.15-0.68c0.5,0.02,0.87-0.14,0.8-0.76c0.45-0.07,0.95-0.07,0.75-0.74c0.42-0.08,0.84-0.05,0.83-0.63
			c0-0.12,0.42-0.24,0.69-0.39c-0.02-0.42,0.1-0.8,0.75-0.7c0.01-0.32,0.04-0.61,0.04-0.9c0.01-5.09,0-10.18,0.02-15.27
			c0-0.47-0.25-1.11,0.56-1.26c0.06-0.01,0.1-0.22,0.12-0.34c0.05-0.33,0.09-0.67,0.14-1.03C44.16,8.88,44,8.21,44.2,7.79
			c0.09-0.19,0.26-0.34,0.42-0.49c0.05-0.05,0.22-0.04,0.23-0.08c0.16-0.92,0.97-0.65,1.55-0.84c0.04-0.2,0.08-0.41,0.12-0.67
			c0.56-0.04,1.13-0.06,1.69-0.12c0.17-0.02,0.47-0.1,0.48-0.19c0.09-0.65,0.58-0.52,0.97-0.52c3.54-0.01,7.08-0.01,10.62-0.01
			c12.68,0,25.36,0,38.04,0.01c0.37,0,0.78-0.09,0.87,0.48c0.01,0.09,0.26,0.18,0.42,0.2c0.38,0.05,0.76,0.07,1.14,0.09
			c0.34,0.02,0.71-0.06,0.71,0.48c0,0.08,0.19,0.2,0.32,0.23c0.33,0.09,0.66,0.14,1.04,0.21c0.03,0.46,0.23,0.81,0.82,0.73
			c0.05,0.41,0.07,0.76,0.6,0.84c0.15,0.02,0.22,0.61,0.32,0.94c0.05,0.15,0.09,0.44,0.15,0.44c0.89,0.04,0.61,0.73,0.61,1.18
			c0.03,10.16,0.04,20.32,0.04,30.48c0,3.94-0.02,7.89-0.04,11.83c0,0.13-0.02,0.25-0.03,0.51c-0.93,0-1.85,0.02-2.77-0.02
			c-0.1,0-0.24-0.28-0.29-0.46c-0.12-0.45,0.12-1.06-0.62-1.21c-0.07-0.01-0.12-0.21-0.13-0.33c-0.02-0.19-0.01-0.38-0.01-0.57
			c0-9.57,0-19.13,0-28.7c0-0.27,0-0.55,0-0.88c-18.36,0-36.66,0-55.05,0c0,0.29,0,0.54,0,0.79c0,17.09,0,34.19,0,51.28
			c0,0.32-0.01,0.64,0.02,0.95c0.02,0.14,0.14,0.37,0.23,0.38c0.48,0.04,0.52,0.37,0.51,0.72c-0.02,0.69,0.36,0.92,0.98,0.89
			c0.17-0.01,0.34,0,0.55,0c0.06,0.17,0.09,0.34,0.16,0.48c0.15,0.3,0.66,0.32,0.74-0.01c0.11-0.43,0.37-0.44,0.71-0.45
			c0.32-0.01,0.63-0.05,0.95-0.06c0.35-0.02,0.69-0.02,0.69-0.53c0-0.08,0.2-0.23,0.31-0.23c0.32-0.02,0.53-0.12,0.52-0.48
			c0-0.04,0-0.1,0.02-0.12c0.39-0.31,0.79-0.63,1.19-0.93c0.1-0.07,0.32-0.09,0.32-0.15c0.05-0.96,0.83-0.59,1.32-0.75
			c0.04-0.01,0.08-0.03,0.16-0.07c0.03-0.18,0.07-0.38,0.11-0.61c0.21-0.04,0.42-0.07,0.66-0.11c0.06-0.21,0.11-0.42,0.18-0.67
			c0.5,0.02,0.9-0.09,0.83-0.7c0.55-0.22,1.24-0.06,1.46-0.83c0.04-0.13,0.44-0.16,0.71-0.25c0.03-0.16,0.07-0.34,0.11-0.56
			c0.21-0.04,0.43-0.09,0.68-0.14c0.03-0.2,0.06-0.41,0.1-0.65c0.42-0.04,0.89-0.05,0.89-0.67c0-0.05,0.2-0.1,0.32-0.13
			c0.43-0.11,0.96-0.06,1.1-0.67c0.01-0.06,0.13-0.14,0.19-0.13c0.54,0.07,0.62-0.3,0.65-0.72c0.23-0.04,0.43-0.08,0.68-0.12
			c0.04-0.19,0.08-0.39,0.14-0.65c0.22-0.04,0.47-0.08,0.71-0.13c0.33-0.07,0.75,0,0.78-0.54c0-0.07,0.27-0.19,0.41-0.19
			c1.78,0,3.56,0.01,5.33,0.06c0.18,0,0.34,0.27,0.54,0.36c0.29,0.15,0.6,0.3,0.92,0.37c0.32,0.07,0.6,0.06,0.63,0.53
			c0.01,0.15,0.39,0.27,0.7,0.47c0.04,0.3,0.07,0.8,0.72,0.6c0.09,0.4,0.16,0.73,0.24,1.05c0.02,0.1,0.06,0.27,0.11,0.28
			c0.72,0.12,0.52,0.71,0.59,1.14c0.05,0.33,0.07,0.62,0.46,0.73c0.1,0.03,0.19,0.27,0.2,0.42c0.02,0.63,0.02,1.27,0.02,1.9
			c0,0.31-0.03,0.58-0.43,0.67c-0.1,0.02-0.19,0.26-0.21,0.41c-0.06,0.42-0.1,0.84-0.12,1.26c-0.02,0.33-0.06,0.6-0.47,0.6
			c-0.06,0-0.14,0.04-0.16,0.08c-0.36,0.7-0.71,1.41-1.07,2.12c0.05,0.04,0.1,0.08,0.15,0.12c-0.22,0.04-0.43,0.09-0.68,0.14
			c-0.03,0.21-0.05,0.41-0.09,0.67c-0.71-0.05-0.71,0.51-0.79,1c-0.04,0.3-0.06,0.6-0.49,0.61c-0.08,0-0.22,0.16-0.22,0.25
			c0.01,0.41-0.13,0.62-0.57,0.67c-0.09,0.01-0.17,0.34-0.22,0.53c-0.07,0.26-0.11,0.54-0.17,0.84c-0.19,0.04-0.39,0.08-0.62,0.13
			c-0.04,0.22-0.08,0.44-0.12,0.71c-0.62-0.05-0.7,0.35-0.71,0.84c0,0.36,0,0.73-0.54,0.75c-0.08,0-0.22,0.36-0.22,0.56
			c-0.02,1.26-0.08,1.08,1.02,1.08c10.05,0,20.1,0.01,30.16,0c1.17,0,1.08,0.22,1.09-1.1c0.03-3.84,0.01-7.68,0.01-11.52
			c0-1.1-0.02-2.21,0.02-3.31c0.01-0.21,0.24-0.41,0.37-0.61c0.1-0.14,0.25-0.27,0.29-0.42c0.07-0.33,0.09-0.67,0.13-1.07
			c1,0,1.98,0,3.08,0c0,0.65,0,1.25,0,1.86c-0.01,9.44-0.02,18.87-0.03,28.31c0,0.25,0,0.51-0.02,0.76
			c-0.01,0.12-0.07,0.32-0.12,0.33c-0.84,0.02-0.57,0.72-0.73,1.15c-0.05,0.15-0.13,0.41-0.19,0.41
			C103.73,101.34,103.68,101.71,103.65,102.16z M59.74,75.43c-0.43,0.05-0.84,0.01-0.88,0.57c-0.01,0.08-0.25,0.17-0.4,0.22
			c-0.3,0.1-0.85,0.13-0.87,0.25c-0.09,0.58-0.52,0.62-0.93,0.69c-0.04,0.25-0.08,0.45-0.11,0.65c-0.26,0.04-0.48,0.07-0.73,0.11
			c0.14,0.8-0.47,0.64-0.89,0.76c-0.21,0.06-0.55,0.17-0.57,0.3c-0.07,0.35-0.21,0.47-0.54,0.47c-0.11,0-0.31,0.09-0.32,0.15
			c-0.09,0.74-0.68,0.5-1.11,0.6c-0.48,0.11-1.16-0.2-1.31,0.63c-0.01,0.06-0.22,0.12-0.33,0.12c-0.97,0-1.95,0-2.92-0.04
			c-0.16-0.01-0.43-0.13-0.45-0.24c-0.08-0.47-0.39-0.48-0.75-0.49c-0.29-0.01-0.58-0.06-0.87-0.1c0.03-0.05,0.07-0.11,0.1-0.16
			c-0.26-0.23-0.52-0.46-0.78-0.68c-0.16-0.13-0.26-0.54-0.36-0.53c-0.57,0-0.62-0.39-0.68-0.79c-0.23-0.04-0.44-0.07-0.67-0.1
			c-0.04-0.35-0.06-0.69-0.13-1.01c-0.03-0.16-0.16-0.39-0.27-0.41c-0.43-0.07-0.41-0.35-0.42-0.66c-0.02-1.14-0.07-2.29-0.07-3.43
			c-0.01-12.43,0-24.85,0-37.28c0-0.21-0.01-0.42,0-0.64c0.02-0.34-0.13-0.56-0.47-0.51c-0.39,0.05-0.9-0.34-1.14,0.32
			c-0.06,0.16-0.24,0.28-0.37,0.41c-0.13,0.14-0.27,0.26-0.39,0.4c-0.09,0.11-0.14,0.34-0.21,0.34c-0.6,0-0.59,0.47-0.68,0.84
			c-0.24,0.04-0.45,0.07-0.66,0.11c-0.03,0.24-0.06,0.44-0.09,0.65c-0.05-0.04-0.11-0.08-0.16-0.12c-0.24,0.26-0.48,0.52-0.73,0.78
			c0.04,0.04,0.08,0.08,0.11,0.12c-0.22,0.05-0.44,0.1-0.65,0.15c-0.04,0.26-0.07,0.49-0.09,0.61c-0.28,0.18-0.59,0.27-0.66,0.45
			c-0.18,0.49-0.08,1.12-0.8,1.25c-0.04,0.01-0.09,0.11-0.08,0.16c0.07,0.56-0.36,0.61-0.69,0.76c-0.16,0.31-0.39,0.56-0.6,0.81
			c-0.09,0.11-0.16,0.24-0.2,0.38c-0.08,0.3-0.13,0.61-0.21,0.98c-0.61-0.11-0.72,0.26-0.67,0.75c0.05,0.53-0.17,0.84-0.72,0.86
			c-0.04,0.28-0.07,0.52-0.11,0.83c-0.66-0.16-0.65,0.27-0.7,0.7c-0.03,0.28-0.07,0.76-0.2,0.8c-0.66,0.18-0.54,0.72-0.66,1.16
			c-0.05,0.19-0.2,0.35-0.32,0.52c-0.1,0.14-0.27,0.26-0.31,0.41c-0.09,0.45-0.13,0.92-0.2,1.38c-0.02,0.13-0.09,0.37-0.16,0.37
			c-0.73,0.08-0.52,0.65-0.56,1.06c-0.03,0.34,0.05,0.69-0.47,0.73c-0.1,0.01-0.24,0.27-0.26,0.42c-0.06,0.58-0.07,1.17-0.1,1.76
			c-0.24,0.06-0.44,0.1-0.73,0.17c0,0.72,0.01,1.41,0,2.11c-0.01,0.39,0.04,0.82-0.54,0.92c-0.09,0.02-0.19,0.3-0.2,0.47
			c-0.06,0.72-0.08,1.44-0.15,2.15c-0.01,0.16-0.14,0.32-0.23,0.47c-0.13,0.23-0.37,0.45-0.38,0.69c-0.08,1.67-0.11,3.35-0.17,5.02
			c-0.01,0.19,0,0.49-0.09,0.54c-0.66,0.3-0.48,0.88-0.48,1.38c-0.02,7.93-0.03,15.86-0.05,23.79c0,0.44-0.1,0.93,0.58,0.97
			c0.07,0,0.12,0.17,0.21,0.22c0.22,0.14,0.46,0.36,0.69,0.37c1.14,0.04,2.29,0.02,3.43,0.02c6,0,12,0,18-0.01
			c0.28,0,0.71-0.01,0.81-0.18c0.25-0.42,0.6-0.4,0.98-0.41c1.27-0.04,2.54-0.08,3.81-0.13c0.16-0.01,0.43-0.08,0.44-0.16
			c0.1-0.72,0.69-0.48,1.09-0.58c0.5-0.12,1.19,0.17,1.37-0.65c0.01-0.05,0.15-0.11,0.22-0.1c0.59,0.1,0.61-0.35,0.68-0.7
			c0.54-0.29,1.49,0.29,1.49-0.83c0.26-0.05,0.48-0.09,0.69-0.13c0.05-0.24,0.09-0.44,0.13-0.63c0.24-0.05,0.44-0.09,0.65-0.13
			c0.04-0.23,0.08-0.43,0.09-0.49c0.8-0.48,1.41-0.97,1.72-1.79c0.18-0.03,0.38-0.07,0.59-0.11c0.03-0.24,0.06-0.44,0.09-0.67
			c0.23-0.04,0.43-0.08,0.65-0.12c0.05-0.41,0-0.86,0.59-0.9c0.07,0,0.16-0.22,0.19-0.36c0.06-0.3,0.1-0.62,0.14-0.94
			c0.43-0.03,0.8-0.09,0.74-0.64c-0.01-0.08,0.14-0.25,0.22-0.25c0.46,0,0.46-0.3,0.51-0.63c0.04-0.28,0.15-0.79,0.25-0.79
			c0.59-0.04,0.61-0.47,0.68-0.88c0.43,0.01,0.74-0.08,0.7-0.59c-0.01-0.09,0.16-0.28,0.25-0.29c0.41-0.03,0.44-0.31,0.48-0.62
			c0.03-0.26,0.11-0.73,0.2-0.74c0.62-0.06,0.62-0.51,0.66-0.92c0.24-0.04,0.45-0.08,0.64-0.12c0.06-0.26,0.07-0.64,0.18-0.67
			c0.7-0.21,0.66-0.79,0.76-1.31c0.02-0.09,0.12-0.22,0.18-0.22c0.44-0.01,0.58-0.25,0.58-0.65c0-0.08,0.15-0.24,0.23-0.24
			c0.52,0.02,0.47-0.34,0.53-0.68c0.06-0.36-0.14-0.92,0.57-0.91c0.06,0,0.16-0.23,0.17-0.36c0.03-0.34,0.04-0.68,0.02-1.02
			c-0.03-0.67,0.16-1.43-0.69-1.79c-0.04-0.02-0.08-0.11-0.08-0.16c0.04-0.57-0.36-0.55-0.75-0.62c-0.26-0.04-0.69-0.14-0.73-0.3
			c-0.11-0.46-0.38-0.49-0.75-0.47c-0.38,0.01-0.76,0.01-1.14,0.01c-0.34-0.01-0.63,0.01-0.65,0.47c0,0.09-0.26,0.21-0.41,0.25
			c-0.44,0.12-1.09-0.14-1.13,0.67c0,0.04-0.14,0.13-0.2,0.12c-0.59-0.1-0.6,0.36-0.74,0.69c-0.25,0.11-0.46,0.26-0.67,0.43
			c-0.17,0.14-0.32,0.32-0.51,0.41c-0.3,0.13-0.88,0.17-0.89,0.3c-0.06,0.57-0.47,0.57-0.84,0.64c-0.05,0.24-0.09,0.44-0.11,0.57
			c-0.31,0.14-0.76,0.23-0.77,0.37c-0.05,0.54-0.4,0.53-0.76,0.55c-0.47,0.02-0.91,0.07-0.82,0.71c-0.26,0.05-0.48,0.1-0.71,0.14
			C59.79,75.01,59.77,75.19,59.74,75.43z M62.08,96.05c0.05,1.07,0.11,2.1,0.14,3.14c0.03,0.94,0.59,1.52,1.54,1.52
			c11.36,0,22.72,0,34.09,0c0.38,0,0.76-0.02,1.14-0.01c0.53,0.02,0.97-0.06,0.95-0.76c0.61,0.1,0.81-0.2,0.76-0.75
			c0.7,0.07,0.75-0.34,0.75-0.87c-0.01-2.5,0.03-5,0.02-7.5c0-1.03-0.07-1.06-1.09-1.06c-10.87,0-21.75-0.01-32.62,0.01
			c-0.61,0-1.39-0.34-1.76,0.54c-0.01,0.03-0.08,0.04-0.12,0.04c-0.6-0.05-0.68,0.35-0.67,0.81c-0.25,0.05-0.47,0.1-0.68,0.14
			c-0.03,0.25-0.06,0.45-0.09,0.67c-0.39,0.04-0.82-0.01-0.81,0.57c0,0.08-0.25,0.15-0.37,0.23c-0.13,0.08-0.35,0.18-0.35,0.27
			c-0.03,0.45-0.34,0.43-0.65,0.52c-0.31,0.09-0.59,0.28-0.86,0.45c-0.18,0.12-0.33,0.28-0.49,0.44c-0.11,0.1-0.29,0.23-0.28,0.32
			c0.02,0.14,0.16,0.29,0.28,0.39c0.11,0.08,0.27,0.08,0.39,0.11c0.04,0.25,0.08,0.45,0.12,0.66C61.61,95.97,61.8,96,62.08,96.05z
			 M46.44,16.62c0.27,0.09,0.63,0.11,0.68,0.24c0.22,0.59,0.7,0.46,1.12,0.46c17.39,0,34.77,0,52.16,0c0.99,0,1.07-0.05,1.07-1.02
			c0.01-1.72-0.04-3.43-0.02-5.15c0-0.54-0.09-0.91-0.81-0.86c0.25-0.75-0.3-0.73-0.77-0.82c0.14-0.62-0.23-0.69-0.7-0.68
			c-0.36,0.01-0.72-0.02-1.08-0.02c-15.99,0-31.97,0-47.96,0c-0.32,0-0.64-0.02-0.95,0.02c-0.15,0.02-0.41,0.16-0.42,0.25
			c-0.03,0.46-0.32,0.48-0.66,0.48c-0.54,0.01-0.93,0.19-0.91,0.84c0.01,0.39,0,0.78-0.57,0.78c-0.06,0-0.17,0.19-0.17,0.29
			C46.44,13.17,46.44,14.9,46.44,16.62z"/>
		<path class="st0" d="M78.05,33.95c0.11,0.02,0.29,0.06,0.5,0.1c0.03,0.27,0.02,0.56,0.11,0.81c0.08,0.22,0.28,0.38,0.42,0.58
			c0.16,0.23,0.3,0.48,0.52,0.85c0.03,0.01,0.22,0.05,0.42,0.1c0.03,0.04,0.07,0.07,0.07,0.11c0.28,1.6,0.12,1.3,1.55,1.34
			c1.93,0.05,3.86,0.03,5.79,0.04c0.32,0,0.65-0.05,0.7,0.43c0.01,0.09,0.2,0.2,0.32,0.24c0.34,0.1,0.69,0.16,1.08,0.24
			c0,0.47,0.16,0.82,0.75,0.74c0.06,0.39,0.1,0.75,0.17,1.1c0.03,0.13,0.12,0.34,0.2,0.34c0.56,0.03,0.48,0.45,0.48,0.79
			c0.01,0.57,0,1.14-0.01,1.72c0,0.34,0.02,0.68-0.46,0.78c-0.09,0.02-0.18,0.27-0.19,0.42c-0.06,0.93-0.11,1.86-0.15,2.79
			c-0.01,0.3,0.02,0.58-0.38,0.7c-0.11,0.03-0.22,0.29-0.23,0.46c-0.07,0.93-0.08,1.86-0.17,2.79c-0.02,0.21-0.26,0.39-0.38,0.6
			c-0.11,0.18-0.27,0.37-0.28,0.56c-0.06,0.93-0.06,1.86-0.1,2.8c-0.01,0.16-0.06,0.44-0.13,0.45c-0.8,0.1-0.54,0.73-0.59,1.18
			c-0.04,0.4-0.01,0.8-0.01,1.25c-0.72,0-0.79,0.49-0.78,0.98c0,0.44-0.15,0.58-0.59,0.6c-0.4,0.01-0.94-0.08-0.98,0.6
			c0,0.06-0.23,0.16-0.36,0.16c-0.4,0.03-0.81,0.03-1.21,0.03c-7.1,0-14.21-0.01-21.31-0.01c-0.37,0-0.73,0.04-0.79-0.49
			c-0.01-0.08-0.21-0.18-0.34-0.21c-0.33-0.07-0.66-0.09-1.03-0.14c-0.03-0.21-0.05-0.42-0.09-0.67c-0.67,0.04-0.76-0.38-0.74-0.92
			c0.02-0.44-0.01-0.89-0.04-1.33c-0.02-0.37,0.02-0.78-0.53-0.87c-0.09-0.01-0.18-0.3-0.18-0.47c-0.04-0.74-0.05-1.48-0.06-2.23
			c0-0.43-0.03-0.8-0.67-0.62c-0.05-1.11-0.11-2.14-0.15-3.17c-0.01-0.32-0.02-0.62-0.42-0.76c-0.12-0.05-0.21-0.34-0.22-0.53
			c-0.06-0.93-0.09-1.86-0.15-2.79c-0.01-0.16-0.06-0.42-0.15-0.45c-0.62-0.19-0.52-0.71-0.55-1.15c-0.04-0.63-0.05-1.27-0.03-1.91
			c0.01-0.39-0.09-0.78,0.5-1.01c0.26-0.1,0.28-0.82,0.48-1.18c0.2-0.25,0.4-0.51,0.6-0.76c0.06-0.08,0.14-0.2,0.21-0.2
			c0.41,0,0.62-0.16,0.66-0.59c0.01-0.07,0.27-0.17,0.42-0.18c0.93-0.05,1.86-0.1,2.79-0.11c1.42-0.02,2.84,0.01,4.26-0.01
			c0.91-0.01,1.02-0.14,1.11-1.07c0.01-0.12,0.02-0.25,0.03-0.39c0.22-0.04,0.42-0.08,0.65-0.13c0.04-0.31,0.08-0.6,0.1-0.89
			c0.01-0.3,0.06-0.49,0.42-0.59c0.19-0.05,0.3-0.4,0.4-0.65c0.29-0.18,0.79-0.1,0.79-0.71c0-0.07,0.58-0.19,0.9-0.2
			c0.19-0.01,0.4,0.13,0.57,0.25c0.19,0.12,0.34,0.29,0.5,0.45c0.11,0.11,0.22,0.22,0.31,0.35c0.07,0.1,0.09,0.3,0.16,0.31
			c0.89,0.23,0.39,0.93,0.48,1.42c0.01,0.07-0.09,0.23-0.15,0.24c-0.9,0.18-0.37,0.87-0.46,1.33c-0.01,0.06,0.27,0.24,0.42,0.25
			c0.68,0.02,1.36,0.03,2.03-0.01c0.2-0.01,0.55-0.22,0.54-0.32c-0.03-0.39,0.31-0.95-0.28-1.16c-0.6-0.21-0.32-0.67-0.35-1.01
			c-0.02-0.22,0.19-0.47,0.33-0.69c0.08-0.13,0.21-0.23,0.31-0.34c0.13-0.14,0.26-0.29,0.41-0.41c0.09-0.08,0.29-0.09,0.31-0.17
			c0.23-0.9,0.92-0.44,1.42-0.45C77.7,33.26,77.84,33.64,78.05,33.95z M80.38,45.65c-0.06-0.41-0.1-0.75-0.17-1.08
			c-0.03-0.13-0.12-0.36-0.17-0.36c-0.62,0.01-0.56-0.44-0.61-0.83c-0.04-0.35-0.05-0.74-0.56-0.78c-0.08-0.01-0.21-0.22-0.2-0.33
			c0.01-0.4-0.16-0.51-0.54-0.51c-2.57,0-5.13-0.01-7.7,0c-0.16,0-0.34,0.1-0.46,0.22c-0.22,0.21-0.39,0.46-0.58,0.7
			c-0.05-0.03-0.1-0.06-0.16-0.1c-0.03,0.24-0.05,0.49-0.08,0.76c-0.62-0.05-0.71,0.34-0.75,0.8c-0.02,0.25-0.14,0.68-0.26,0.69
			c-0.5,0.06-0.44,0.39-0.51,0.72c-0.06,0.3-0.18,0.71-0.4,0.81c-0.28,0.13-0.46,0.2-0.51,0.53c-0.02,0.11-0.23,0.25-0.36,0.26
			c-0.59,0.03-1.18,0.01-1.77,0.01c0.03-0.04,0.06-0.09,0.1-0.13c-0.27-0.25-0.55-0.49-0.94-0.85c0-0.45-0.01-1.09,0.01-1.72
			c0-0.12,0.11-0.34,0.19-0.35c0.66-0.08,0.49-0.62,0.61-1.01c0.06-0.2,0.23-0.36,0.36-0.53c0.12-0.16,0.25-0.31,0.37-0.46
			c-0.16-0.12-0.32-0.33-0.48-0.33c-1-0.04-1.99-0.01-2.99-0.04c-0.39-0.01-0.52,0.16-0.51,0.53c0.02,1.06,0.01,2.12,0.06,3.18
			c0.01,0.32,0.11,0.81,0.31,0.9c0.44,0.19,0.4,0.48,0.41,0.81c0.01,0.4-0.01,0.81,0.04,1.21c0.07,0.52-0.2,1.18,0.58,1.44
			c0.07,0.02,0.1,0.26,0.11,0.41c0.06,0.95,0.1,1.9,0.16,2.85c0.01,0.17,0.08,0.47,0.17,0.49c0.47,0.11,0.43,0.47,0.46,0.8
			c0.04,0.44,0.04,0.89,0.08,1.33c0.05,0.47-0.23,1.13,0.62,1.19c0.03,0,0.08,0.05,0.09,0.08c0.07,0.73,0.63,0.54,1.06,0.54
			c5.92,0.01,11.83,0.01,17.75,0c0.38,0,0.77-0.01,1.13-0.11c0.21-0.06,0.48-0.29,0.51-0.47c0.11-0.66,0.11-1.34,0.18-2.02
			c0.02-0.17,0.08-0.48,0.16-0.49c0.54-0.08,0.46-0.5,0.49-0.83c0.06-0.76,0.05-1.52,0.1-2.29c0.02-0.39-0.13-0.89,0.53-0.95
			c0.07-0.01,0.16-0.28,0.16-0.43c0.04-0.85,0.04-1.7,0.08-2.54c0.02-0.39-0.13-0.89,0.54-0.95c0.07-0.01,0.16-0.24,0.16-0.36
			c0.03-1.29,0.06-2.59,0.06-3.88c0-0.14-0.17-0.4-0.26-0.4c-1.22-0.03-2.44-0.02-3.86-0.02c0.18,0.4,0.24,0.81,0.39,0.85
			c0.47,0.11,0.45,0.43,0.49,0.77c0.04,0.39-0.09,0.9,0.59,0.9c0.05,0,0.16,0.17,0.15,0.24c-0.07,0.45,0.41,1.09-0.42,1.31
			c-0.08,0.02-0.12,0.21-0.15,0.33c-0.08,0.32-0.15,0.65-0.24,1.02c-0.7,0-1.41,0-2.15,0c0.09-0.6-0.27-0.76-0.76-0.76
			C81.07,45.95,80.99,45.55,80.38,45.65z"/>
		<path class="st0" d="M101.41,59.91c0.33-0.04,0.52-0.07,0.74-0.1c0.05-0.22,0.09-0.44,0.15-0.71c1,0,1.98,0,2.98,0
			c0.04,0.35,0.1,0.64,0.1,0.92c0,0.35,0.1,0.56,0.48,0.61c0.08,0.01,0.19,0.22,0.2,0.33c0,0.12-0.11,0.33-0.18,0.34
			c-0.52,0.04-0.53,0.41-0.51,0.77c0.02,0.58-0.24,0.84-0.81,0.83c-0.36,0-0.72,0.04-1.07,0.03c-1.07,0-1.07,0-1.32-1.02
			c-0.03-0.12-0.06-0.32-0.12-0.34C100.93,61.33,101.68,60.5,101.41,59.91z"/>
		<path class="st0" d="M48.09,107.62c0-0.89-0.02-1.75,0.02-2.61c0-0.12,0.25-0.34,0.39-0.34c1.09-0.03,2.18-0.02,3.34-0.02
			c0,1.02,0,1.98,0,2.96c-0.21,0.04-0.42,0.08-0.66,0.14c0.05,0.68-0.4,0.76-0.91,0.75c-0.34-0.01-0.68-0.01-1.01-0.04
			c-0.13-0.01-0.35-0.12-0.35-0.18C48.92,107.71,48.49,107.69,48.09,107.62z"/>
		<path class="st0" d="M76.21,95.89c-0.26,0.05-0.44,0.09-0.67,0.13c0.02,0.57-0.31,0.78-0.85,0.78c-0.38,0-0.76,0.07-1.14,0.05
			c-0.35-0.02-0.7-0.11-1.09-0.18c-0.07-0.36-0.02-0.8-0.61-0.86c-0.09-0.01-0.15-0.64-0.16-0.98c0-0.12,0.2-0.25,0.33-0.36
			c0.04-0.04,0.17-0.03,0.17-0.05c0.07-0.59,0.6-0.82,0.93-1.2c0.13-0.15,0.3-0.31,0.48-0.36c0.24-0.06,0.51-0.03,0.76-0.02
			c0.92,0.04,0.94,0.09,1.14,0.98c0.05,0.21,0.27,0.39,0.42,0.58c0.1,0.13,0.26,0.26,0.28,0.41C76.24,95.15,76.21,95.49,76.21,95.89
			z"/>
		<path class="st0" d="M66.28,14.81c-0.24-0.19-0.48-0.38-0.7-0.58c-0.09-0.08-0.19-0.19-0.2-0.28c-0.02-0.55-0.02-1.1,0-1.65
			c0-0.09,0.1-0.27,0.13-0.26c0.72,0.18,0.42-0.96,1.23-0.86c1.17,0.14,2.37,0.02,3.56,0.02c3.58,0,7.16,0,10.74,0.01
			c0.37,0,0.78-0.09,0.82,0.51c0.01,0.13,0.38,0.23,0.67,0.4c0,0.61,0,1.32,0,1.93c-0.33,0.27-0.61,0.51-0.89,0.74
			c0.03,0.06,0.07,0.11,0.1,0.17c-5.18,0-10.36,0-15.54,0C66.22,14.91,66.25,14.86,66.28,14.81z"/>
	</g>
</g>
</svg>
