<?xml version="1.0" encoding="utf-8"?>
<!-- Generator: Adobe Illustrator 24.3.0, SVG Export Plug-In . SVG Version: 6.00 Build 0)  -->
<svg version="1.1" id="Layer_1" xmlns="http://www.w3.org/2000/svg" xmlns:xlink="http://www.w3.org/1999/xlink" x="0px" y="0px"
	 viewBox="0 0 121.19 121.19" style="enable-background:new 0 0 121.19 121.19;" xml:space="preserve">
<style type="text/css">
	.st0{fill:#343D3A;}
</style>
<g>
	<g>
		<path class="st0" d="M4.55,13.55c-0.03-0.51-0.14-0.84-0.65-0.8c-0.07,0.01-0.16-0.12-0.22-0.2c-0.2-0.24-0.39-0.49-0.58-0.74
			c-0.06,0.04-0.12,0.07-0.18,0.11c-0.03-0.21-0.05-0.42-0.08-0.68c-0.69,0.02-0.75-0.44-0.73-0.98c0.02-0.95,0.01-1.91,0.01-2.92
			c0.65,0.03,0.83-0.31,0.78-0.84c-0.05-0.54,0.2-0.76,0.75-0.79C4,5.7,4.53,5.78,4.52,5.12c0-0.06,0.24-0.16,0.37-0.17
			c0.48-0.04,0.96-0.06,1.44-0.06c6.65,0.01,13.29,0.03,19.94,0.04c0.37,0,0.74,0.03,1.15,0.05c0.08,1.17,1.07,0.5,1.65,0.88
			c0.03,0.13,0.07,0.33,0.11,0.54c0.04-0.04,0.08-0.08,0.12-0.12c0.27,0.24,0.54,0.49,0.82,0.71c0.13,0.1,0.3,0.2,0.46,0.21
			c0.67,0.05,0.91,0.46,1.03,1.06c0.04,0.21,0.31,0.38,0.47,0.57c0.08,0.09,0.15,0.19,0.21,0.29c0.16,0.23,0.33,0.47,0.49,0.7
			c0.07-0.04,0.13-0.07,0.2-0.11c0.04,0.32,0.09,0.64,0.11,0.96c0.02,0.3,0.03,0.55,0.43,0.6c0.11,0.01,0.26,0.25,0.29,0.4
			c0.07,0.38,0.06,0.78,0.11,1.17c0.04,0.34,0.02,0.71,0.52,0.78c0.1,0.01,0.21,0.3,0.23,0.47c0.05,0.43,0.07,0.87,0.08,1.3
			c0.01,0.32,0.02,0.6,0.44,0.68c0.1,0.02,0.21,0.3,0.23,0.47c0.06,0.69,0.08,1.39,0.13,2.09c0.01,0.16,0.06,0.46,0.13,0.47
			c0.72,0.12,0.51,0.72,0.57,1.14c0.08,0.49,0.06,1,0.06,1.5c0,0.37,0,0.69,0.5,0.77c0.11,0.02,0.23,0.33,0.25,0.51
			c0.05,0.7,0.04,1.39,0.08,2.09c0.01,0.15,0.1,0.43,0.17,0.43c0.69,0.05,0.54,0.56,0.56,0.97c0.03,0.5,0.03,1,0.04,1.5
			c0.01,0.37-0.05,0.76,0.51,0.8c0.08,0.01,0.2,0.31,0.21,0.47c0.05,0.94,0.06,1.87,0.1,2.81c0.01,0.16,0.08,0.45,0.15,0.46
			c0.78,0.1,0.57,0.71,0.59,1.16c0.01,0.47,0.15,0.65,0.64,0.66c0.4,0,0.89-0.07,1.08,0.5c0.03,0.08,0.27,0.11,0.41,0.12
			C41.82,35.01,42.06,35,42.3,35c22.62,0,45.24,0,67.86,0.01c0.96,0,1.91,0.1,2.86,0.19c0.15,0.02,0.4,0.27,0.41,0.41
			c0.03,1.1,0.02,2.21,0.02,3.37c-0.83,0.04-0.71,0.66-0.77,1.21c-0.05,0.5,0.26,1.17-0.62,1.34c-0.11,0.02-0.13,0.59-0.16,0.9
			c-0.03,0.32,0.02,0.59-0.41,0.77c-0.21,0.09-0.3,0.58-0.35,0.9c-0.06,0.4-0.01,0.82-0.01,1.25c-0.28,0.07-0.48,0.11-0.75,0.18
			c-0.04,0.71-0.08,1.42-0.12,2.17c-0.71-0.01-0.76,0.46-0.74,0.99c0.01,0.37,0.11,0.81-0.5,0.86c-0.08,0.01-0.2,0.26-0.21,0.41
			c-0.06,0.58-0.08,1.17-0.11,1.79c-0.68-0.03-0.77,0.4-0.77,0.92c0,0.37-0.04,0.74-0.09,1.1c-0.01,0.12-0.09,0.33-0.14,0.33
			c-0.75,0.05-0.5,0.64-0.55,1.03c-0.04,0.35,0.01,0.7-0.47,0.8c-0.1,0.02-0.21,0.26-0.23,0.41c-0.07,0.45-0.08,0.91-0.13,1.36
			c-0.02,0.14-0.06,0.39-0.13,0.4c-0.84,0.2-0.57,0.9-0.67,1.43c-0.08,0.42,0.19,1.02-0.57,1.1c-0.06,0.01-0.13,0.26-0.14,0.4
			c-0.05,0.43-0.1,0.87-0.12,1.3c-0.01,0.31-0.05,0.54-0.44,0.6c-0.11,0.02-0.23,0.31-0.26,0.5c-0.1,0.49,0.1,1.02-0.57,1.37
			c-0.26,0.13-0.21,0.87-0.27,1.34c-0.04,0.35,0.06,0.73-0.5,0.82c-0.14,0.02-0.23,0.53-0.27,0.83c-0.05,0.36,0.02,0.68-0.5,0.84
			c-0.18,0.05-0.23,0.67-0.25,1.04c-0.01,0.16,0.23,0.33,0.36,0.49c0.17,0.21,0.33,0.42,0.59,0.75c0.07,0.01,0.3,0.05,0.57,0.09
			c-0.03,0.64,0.39,0.72,0.89,0.71c0.48-0.01,0.96,0,1.47,0c0.07,1.21,1.03,0.63,1.62,0.9c-0.01,1.16,1.05,0.52,1.58,0.94
			c0.02,0.12,0.06,0.31,0.1,0.53c0.46,0.04,0.88,0.13,0.77,0.76c0.26,0.04,0.47,0.07,0.71,0.11c0.04,0.22,0.08,0.42,0.12,0.67
			c0.33,0.12,0.83,0.08,0.83,0.68c0,0.1,0.39,0.19,0.5,0.41c0.26,0.2,0.52,0.41,0.78,0.62c0.08,0.06,0.19,0.16,0.18,0.24
			c-0.05,0.55,0.36,0.55,0.76,0.6c0,0.49,0.15,0.87,0.76,0.79c0.06,0.41,0.06,0.79,0.61,0.87c0.15,0.02,0.23,0.59,0.33,0.9
			c0.05,0.16,0.06,0.47,0.12,0.47c0.84,0.09,0.55,0.78,0.68,1.24c0.04,0.13,0.11,0.37,0.17,0.37c0.64,0.04,0.53,0.53,0.57,0.91
			c0.04,0.39-0.02,0.8,0.56,0.84c0.09,0.01,0.2,0.26,0.22,0.4c0.04,0.41,0.05,0.83,0.06,1.24c0,0.36-0.01,0.69,0.5,0.75
			c0.1,0.01,0.22,0.34,0.23,0.53c0.05,1.42,0.07,2.83,0.1,4.25c0.01,0.32,0.03,0.56,0.43,0.68c0.38,0.12,0.42,1.46,0.04,1.58
			c-0.52,0.16-0.46,0.51-0.47,0.87c-0.01,1.26,0,2.52,0,3.84c-0.8,0.03-0.83,0.55-0.83,1.09c0,0.41,0,0.82,0,1.29
			c-0.85-0.02-0.81,0.57-0.82,1.11c-0.01,0.32-0.05,0.54-0.41,0.71c-0.2,0.09-0.31,0.52-0.35,0.81c-0.05,0.33-0.05,0.58-0.47,0.73
			c-0.2,0.08-0.29,0.56-0.35,0.87c-0.06,0.32-0.06,0.62-0.5,0.6c-0.06,0-0.18,0.03-0.18,0.05c-0.05,0.73-1.04,0.91-0.99,1.7
			c0.04,0.5-0.27,0.63-0.72,0.62c-0.08,0.4-0.07,0.87-0.68,0.82c-0.05,0-0.16,0.16-0.16,0.24c0,0.35-0.13,0.53-0.5,0.52
			c-0.09,0-0.26,0.1-0.25,0.14c0.03,0.71-0.54,0.63-0.95,0.69c-0.36,0.05-0.59,0.1-0.66,0.54c-0.02,0.16-0.42,0.26-0.72,0.43
			c-0.02,0.1-0.06,0.28-0.1,0.51c-0.38,0.09-0.84,0.06-0.94,0.66c-0.02,0.12-0.59,0.12-0.87,0.24c-0.2,0.08-0.35,0.27-0.52,0.41
			c-0.13,0.11-0.25,0.28-0.4,0.33c-0.51,0.15-1.17-0.11-1.46,0.66c-0.06,0.16-0.6,0.13-0.92,0.19c-0.5,0.09-1.17-0.23-1.39,0.58
			c-0.02,0.07-0.27,0.1-0.42,0.11c-0.91,0.06-1.83,0.09-2.73,0.19c-0.21,0.02-0.4,0.27-0.6,0.41c-0.16,0.11-0.32,0.29-0.48,0.29
			c-1.55,0.02-3.09,0.01-4.64-0.01c-0.15,0-0.43-0.09-0.44-0.17c-0.09-0.65-0.59-0.53-1-0.56c-0.82-0.06-1.65-0.08-2.47-0.16
			c-0.18-0.02-0.34-0.24-0.51-0.36c-0.14-0.1-0.29-0.25-0.44-0.27c-0.43-0.07-0.87-0.05-1.29-0.15c-0.23-0.05-0.4-0.29-0.62-0.41
			c-0.19-0.11-0.39-0.2-0.6-0.26c-0.43-0.12-1.05,0.13-1.12-0.67c-0.01-0.1-0.52-0.19-0.81-0.23c-0.35-0.05-0.69,0-0.73-0.52
			c-0.01-0.13-0.44-0.23-0.73-0.38c0.01-0.36-0.19-0.54-0.64-0.69c-0.32-0.11-0.48-0.68-0.99-0.73c-0.38-0.04-0.81-0.05-0.77-0.64
			c0-0.06-0.23-0.13-0.35-0.2c-0.13-0.08-0.36-0.17-0.36-0.27c-0.01-0.4-0.24-0.44-0.55-0.57c-0.22-0.09-0.32-0.55-0.4-0.86
			c-0.08-0.31-0.1-0.6-0.52-0.62c-0.08,0-0.21-0.17-0.22-0.27c-0.02-0.38-0.19-0.56-0.57-0.55c-0.04,0-0.12-0.03-0.12-0.04
			c0.01-0.76-1.07-0.88-0.97-1.69c0.04-0.33-0.06-0.6-0.48-0.63c-0.1-0.01-0.26-0.16-0.26-0.24c0.06-0.59-0.39-0.58-0.78-0.65
			c-0.04-0.2-0.08-0.39-0.12-0.63c-0.3-0.05-0.63-0.07-0.93-0.17c-0.23-0.08-0.47-0.21-0.63-0.39c-0.3-0.32-1.24-0.3-1.51,0.07
			c-0.07,0.1-0.15,0.28-0.23,0.28c-0.58,0.02-0.66,0.37-0.6,0.85c0.05,0.37-0.02,0.8,0.53,0.91c0.08,0.02,0.17,0.29,0.17,0.44
			c0.03,1.57,0.04,3.14,0.04,4.7c0,0.14-0.06,0.38-0.14,0.4c-0.7,0.2-0.54,0.78-0.62,1.27c-0.07,0.46,0.05,1.03-0.69,1.12
			c-0.11,0.01-0.17,0.4-0.28,0.67c-0.45,0.04-0.84,0.21-0.65,0.92c-0.08-0.07-0.16-0.14-0.24-0.21c-0.2,0.24-0.37,0.52-0.62,0.7
			c-0.22,0.16-0.53,0.24-0.81,0.29c-0.33,0.07-0.72-0.01-0.74,0.52c0,0.08-0.25,0.2-0.4,0.22c-0.39,0.05-0.78,0.08-1.17,0.08
			c-0.48,0-0.79,0.17-0.78,0.75c-1.25,0-2.46,0-3.68,0c-0.1,0-0.27-0.06-0.28-0.11c-0.15-0.83-0.82-0.59-1.33-0.67
			c-0.48-0.08-1.12,0.08-1.1-0.8c-0.06,0.07-0.12,0.13-0.19,0.2c-0.21-0.23-0.42-0.47-0.63-0.69c-0.08-0.09-0.2-0.14-0.29-0.22
			c-0.17-0.15-0.33-0.31-0.5-0.47c-0.1-0.1-0.18-0.28-0.28-0.3c-0.35-0.05-0.42-0.25-0.51-0.56c-0.05-0.19-0.38-0.31-0.68-0.53
			c-0.02-0.19-0.05-0.51-0.1-0.82c-0.02-0.14-0.08-0.38-0.15-0.39c-0.8-0.13-0.52-0.76-0.6-1.22c-0.09-0.52,0.1-1.17-0.62-1.43
			c-0.03-0.01-0.08-0.07-0.08-0.1c0.01-0.91,0.02-1.82,0.03-2.74c0.88-0.27,0.63-1.02,0.71-1.64c0.01-0.09,0.11-0.23,0.18-0.24
			c0.62-0.03,0.57-0.51,0.59-0.9c0.03-0.74,0.01-1.47,0.01-2.25c-0.24-0.04-0.44-0.08-0.7-0.12c-0.05-0.2-0.1-0.43-0.15-0.68
			c-0.21-0.03-0.42-0.06-0.67-0.09c-0.04-0.21-0.08-0.41-0.13-0.66c-0.2-0.04-0.4-0.08-0.65-0.12c-0.13-0.31-0.02-0.85-0.66-0.84
			c-0.08,0-0.19-0.6-0.24-0.93c-0.04-0.3-0.06-0.54-0.46-0.59c-0.11-0.01-0.24-0.3-0.28-0.48c-0.11-0.49,0.11-1.09-0.62-1.35
			c-0.17-0.06-0.2-0.58-0.24-0.9c-0.05-0.45-0.04-0.91-0.06-1.37c-0.01-0.33,0.02-0.66-0.44-0.74c-0.09-0.02-0.19-0.27-0.21-0.42
			c-0.06-0.56-0.06-1.13-0.12-1.69c-0.05-0.41,0.15-0.96-0.54-1.09c-0.07-0.01-0.13-0.26-0.14-0.4c-0.06-0.72-0.08-1.43-0.15-2.15
			c-0.02-0.17-0.14-0.45-0.24-0.46c-0.55-0.06-0.49-0.44-0.5-0.81c-0.01-0.57-0.04-1.13-0.04-1.7c0-0.47-0.01-0.92-0.8-0.78
			c0-0.92,0-1.74,0-2.56c0-0.3-0.04-0.54-0.43-0.61c-0.12-0.02-0.27-0.3-0.29-0.47c-0.05-0.72-0.05-1.44-0.09-2.15
			c-0.01-0.15-0.11-0.42-0.19-0.43c-0.64-0.05-0.53-0.51-0.54-0.91c-0.01-0.52-0.03-1.05-0.05-1.57c-0.02-0.46,0.05-0.99-0.8-0.86
			c0-0.92,0.03-1.74-0.02-2.56c-0.01-0.21-0.27-0.39-0.4-0.6c-0.1-0.16-0.26-0.33-0.27-0.5c-0.05-0.74-0.05-1.48-0.09-2.22
			c-0.01-0.16-0.1-0.43-0.17-0.44c-0.66-0.07-0.53-0.58-0.57-0.98c-0.04-0.46-0.01-0.92-0.06-1.37c-0.04-0.38,0.09-0.87-0.53-0.97
			c-0.08-0.01-0.14-0.29-0.15-0.45c-0.05-0.72-0.05-1.44-0.12-2.15c-0.02-0.21-0.19-0.49-0.37-0.57c-0.53-0.25-0.22-0.38-0.05-0.5
			c-0.12-0.21-0.29-0.4-0.33-0.61c-0.06-0.36-0.02-0.74-0.06-1.11c-0.04-0.4,0.13-0.91-0.51-1.05c-0.08-0.02-0.14-0.3-0.15-0.46
			c-0.08-0.91-0.12-1.82-0.22-2.73c-0.02-0.2-0.25-0.38-0.37-0.58c-0.1-0.17-0.25-0.34-0.27-0.53c-0.07-0.69-0.08-1.39-0.13-2.09
			c-0.01-0.16-0.1-0.43-0.18-0.44c-0.67-0.08-0.52-0.57-0.54-0.98c-0.02-0.52-0.05-1.05-0.04-1.57c0.01-0.49-0.12-0.85-0.81-0.86
			c0-0.86,0.01-1.68-0.01-2.5c0-0.17-0.11-0.49-0.19-0.5c-0.66-0.06-0.51-0.53-0.52-0.92c-0.02-0.48-0.01-0.96-0.04-1.44
			c-0.03-0.39,0.06-0.86-0.56-0.93c-0.08-0.01-0.17-0.31-0.19-0.49c-0.06-0.74-0.09-1.48-0.15-2.21c-0.01-0.14-0.08-0.39-0.15-0.4
			c-0.65-0.11-0.48-0.62-0.5-1.02c-0.03-0.52-0.04-1.04-0.06-1.57c-0.01-0.34-0.02-0.65-0.48-0.71c-0.1-0.01-0.21-0.29-0.22-0.45
			c-0.05-0.74-0.05-1.48-0.1-2.22c-0.01-0.16-0.1-0.43-0.17-0.44c-0.7-0.09-0.52-0.62-0.56-1.04c-0.04-0.48-0.03-0.96-0.08-1.43
			c-0.04-0.34,0.05-0.78-0.51-0.84c-0.07-0.01-0.15-0.28-0.16-0.44c-0.04-0.54-0.01-1.09-0.08-1.63c-0.06-0.45,0.13-1.05-0.58-1.22
			c-0.07-0.02-0.11-0.26-0.12-0.41c-0.04-0.61-0.04-1.22-0.1-1.83c-0.03-0.37,0.05-0.82-0.52-0.91c-0.08-0.01-0.17-0.28-0.18-0.44
			c-0.06-0.69-0.09-1.39-0.14-2.08c-0.01-0.15-0.01-0.4-0.08-0.43c-0.89-0.34-0.56-1.15-0.68-1.77c-0.06-0.33,0.02-0.72-0.49-0.76
			c-0.08-0.01-0.18-0.23-0.2-0.36c-0.06-0.39-0.09-0.78-0.11-1.17c-0.02-0.49-0.08-0.93-0.75-0.88c-0.03-0.25-0.05-0.46-0.08-0.72
			c-0.2-0.04-0.4-0.09-0.65-0.14c-0.04-0.21-0.09-0.43-0.14-0.65c-0.04,0.04-0.08,0.08-0.13,0.11c-0.26-0.26-0.52-0.52-0.79-0.78
			c0.04-0.05,0.07-0.09,0.11-0.14c-0.21-0.02-0.42-0.05-0.67-0.08c-0.05-0.21-0.1-0.41-0.18-0.76c-0.6,0-1.22,0.02-1.84-0.01
			c-0.18-0.01-0.48-0.13-0.5-0.25c-0.09-0.41-0.35-0.44-0.68-0.44c-3.92-0.01-7.84-0.02-11.77-0.02c-0.06,0-0.12,0.03-0.23,0.05
			c-0.04,0.19-0.09,0.4-0.14,0.63c-0.21,0.04-0.42,0.07-0.68,0.12c-0.03,0.47-0.05,0.94-0.08,1.46c-0.54,0.01-0.85,0.26-0.78,0.65
			c-0.31,0.35-0.52,0.61-0.76,0.84c-0.1,0.09-0.26,0.12-0.38,0.18c-0.13,0.06-0.36,0.13-0.36,0.2c0,0.66-0.49,0.55-0.88,0.56
			C6.61,13.56,5.61,13.55,4.55,13.55z M109.56,81.21c-0.62,0.16-0.72-0.15-0.76-0.62c-0.02-0.28-0.15-0.69-0.36-0.8
			c-0.45-0.24-1.14-0.09-1.26-0.85c-0.01-0.04-0.11-0.06-0.16-0.09c-0.26-0.18-0.51-0.36-0.77-0.54c0.05-0.06,0.09-0.13,0.14-0.19
			c-0.67,0.14-0.88-0.23-0.9-0.77c-0.37-0.05-0.7-0.07-1.01-0.14c-0.14-0.03-0.35-0.16-0.36-0.26c-0.05-0.42-0.32-0.44-0.65-0.47
			c-0.31-0.03-0.84-0.09-0.87-0.23c-0.15-0.63-0.61-0.52-1.02-0.55c-0.38-0.03-0.81,0.08-0.87-0.52c-0.01-0.08-0.29-0.17-0.45-0.18
			c-0.8-0.05-1.61-0.07-2.41-0.13c-0.44-0.03-0.98,0.14-1.22-0.48c-0.04-0.09-0.31-0.12-0.48-0.12c-0.85-0.01-1.7-0.01-2.55,0.01
			c-0.18,0-0.49,0.05-0.53,0.15c-0.18,0.56-0.62,0.44-1.02,0.45c-0.54,0.02-1.09,0.02-1.63,0.05c-0.36,0.01-0.77-0.07-0.81,0.51
			c-0.01,0.08-0.26,0.19-0.41,0.21c-0.37,0.05-0.74,0.06-1.11,0.08c-0.47,0.02-0.86,0.13-0.88,0.68c-0.59,0.23-1.45-0.19-1.67,0.78
			c-0.01,0.05-0.24,0.05-0.36,0.09c-0.12,0.04-0.32,0.11-0.32,0.16c0.02,0.66-0.51,0.65-0.9,0.68c-0.5,0.03-0.76,0.2-0.74,0.73
			c-0.26,0.05-0.49,0.09-0.71,0.13c-0.05,0.24-0.08,0.45-0.12,0.65c-0.25,0.04-0.46,0.08-0.67,0.11c-0.04,0.26-0.08,0.49-0.12,0.72
			c-0.25,0.03-0.46,0.06-0.67,0.08c-0.05,0.26-0.1,0.48-0.15,0.69c-0.24,0.05-0.45,0.1-0.62,0.14c-0.07,0.26-0.11,0.64-0.19,0.64
			c-0.85,0.1-0.58,0.82-0.76,1.28c-0.05,0.13-0.2,0.32-0.31,0.32c-0.39,0.02-0.44,0.25-0.46,0.57c-0.03,0.32-0.07,0.87-0.19,0.9
			c-0.78,0.16-0.53,0.78-0.65,1.23c-0.05,0.17-0.14,0.44-0.24,0.46c-0.48,0.08-0.5,0.39-0.5,0.76c0,0.44-0.01,0.87-0.06,1.3
			c-0.02,0.15-0.18,0.38-0.3,0.4c-0.42,0.06-0.4,0.34-0.4,0.62c0,2.35-0.01,4.71,0,7.06c0,0.24,0.05,0.48,0.11,0.71
			c0.04,0.13,0.14,0.33,0.23,0.34c0.4,0.06,0.38,0.33,0.39,0.63c0.02,0.45,0.06,0.91,0.14,1.36c0.02,0.15,0.15,0.37,0.26,0.39
			c0.44,0.06,0.4,0.37,0.43,0.68c0.04,0.48-0.02,1.05,0.81,1.06c-0.45,1.1,0.83,1.41,0.94,2.26c0,0.03,0.13,0.04,0.17,0.08
			c0.17,0.18,0.33,0.36,0.48,0.55c0.08,0.09,0.14,0.27,0.22,0.28c0.35,0.02,0.49,0.19,0.53,0.53c0.01,0.1,0.17,0.27,0.23,0.26
			c0.63-0.1,0.59,0.42,0.71,0.8c0.66-0.15,0.72,0.3,0.75,0.75c0.25,0.03,0.46,0.05,0.67,0.08c0.05,0.26,0.1,0.48,0.14,0.69
			c0.26,0.03,0.47,0.06,0.67,0.08c0.14,0.67,0.14,0.66,0.86,0.79c0.25,0.05,0.68,0.16,0.7,0.29c0.07,0.48,0.38,0.43,0.71,0.48
			c0.31,0.05,0.81,0.12,0.86,0.28c0.14,0.52,0.48,0.47,0.84,0.5c0.42,0.03,0.97-0.14,1.05,0.57c0.01,0.07,0.26,0.14,0.4,0.15
			c0.84,0.07,1.69,0.11,2.54,0.18c0.37,0.03,0.81-0.08,0.96,0.46c0.02,0.08,0.26,0.15,0.39,0.15c1.02,0.01,2.04,0.02,3.07-0.01
			c0.16,0,0.32-0.16,0.48-0.25c0.21-0.11,0.4-0.31,0.62-0.33c0.95-0.09,1.91-0.13,2.86-0.2c0.15-0.01,0.4-0.14,0.41-0.23
			c0.05-0.52,0.42-0.45,0.76-0.49c0.31-0.03,0.85-0.04,0.89-0.18c0.19-0.66,0.72-0.51,1.16-0.62c0.18-0.04,0.49-0.11,0.49-0.19
			c0.05-0.49,0.41-0.53,0.75-0.54c0.57-0.01,0.96-0.18,0.94-0.81c0.26-0.04,0.47-0.07,0.75-0.1c-0.14-0.6,0.18-0.73,0.68-0.74
			c0.37-0.01,0.74-0.08,0.78-0.59c0.01-0.08,0.17-0.22,0.27-0.22c0.35-0.02,0.58-0.11,0.59-0.52c0-0.09,0.19-0.26,0.29-0.26
			c0.43-0.01,0.45-0.28,0.49-0.61c0.03-0.29,0.13-0.8,0.23-0.81c0.59-0.06,0.61-0.45,0.61-0.94c0.72,0.17,0.74-0.3,0.82-0.79
			c0.04-0.25,0.21-0.48,0.34-0.72c0.12-0.22,0.31-0.4,0.39-0.63c0.14-0.4-0.05-0.95,0.6-1.09c0.09-0.02,0.14-0.32,0.17-0.5
			c0.1-0.46-0.19-1.1,0.61-1.23c0.07-0.01,0.12-0.26,0.13-0.41c0.06-0.89,0.15-1.78,0.14-2.67c-0.01-2.2-0.06-4.4-0.11-6.6
			c0-0.18-0.16-0.36-0.26-0.53c-0.13-0.21-0.36-0.39-0.41-0.61c-0.09-0.44-0.07-0.91-0.12-1.36c-0.01-0.14-0.07-0.39-0.14-0.4
			c-0.71-0.1-0.53-0.68-0.62-1.11c-0.04-0.18-0.1-0.51-0.16-0.51c-0.63-0.03-0.59-0.53-0.6-0.9c-0.01-0.55-0.24-0.79-0.77-0.77
			c-0.04-0.27-0.07-0.5-0.11-0.74c-0.24-0.03-0.45-0.06-0.68-0.09C109.61,81.75,109.59,81.53,109.56,81.21z M56.28,97.17
			c0.27,0.03,0.49,0.04,0.7,0.08c0.29,0.05,0.79,0.06,0.82,0.19c0.18,0.71,0.73,0.59,1.2,0.59c3.86,0.02,7.71,0.02,11.57,0.03
			c1.64,0,1.62,0,1.62-1.66c0-2.44,0.02-4.88,0.04-7.32c0-0.18,0.13-0.52,0.22-0.53c0.56-0.06,0.5-0.45,0.51-0.81
			c0.01-0.5,0.01-1,0.04-1.5c0.02-0.4-0.08-0.87,0.55-0.92c0.07,0,0.15-0.14,0.18-0.24c0.29-0.93-0.06-1.42-1.04-1.42
			c-3.72-0.01-7.45,0-11.17,0c-2.88,0-5.75,0-8.63,0c-0.36,0-1.32,0.76-1.33,1.09c0,0.14,0.11,0.38,0.21,0.41
			c0.42,0.11,0.37,0.41,0.39,0.72c0.03,0.65,0.07,1.3,0.13,1.95c0.01,0.16,0.08,0.43,0.18,0.45c0.65,0.15,0.51,0.67,0.55,1.1
			c0.05,0.58,0.06,1.17,0.1,1.76c0.01,0.14,0.08,0.37,0.16,0.39c0.64,0.11,0.49,0.62,0.54,1.02c0.04,0.34,0.03,0.7,0.09,1.04
			c0.03,0.14,0.17,0.34,0.28,0.35c0.43,0.05,0.43,0.33,0.44,0.65c0.01,0.29,0.07,0.82,0.17,0.84c0.6,0.09,0.65,0.52,0.69,0.97
			c0.25,0.04,0.46,0.08,0.67,0.12C56.2,96.74,56.23,96.93,56.28,97.17z M65.03,103.49c0.08-0.68-0.29-0.77-0.79-0.74
			c-0.26,0.02-0.52,0-0.78-0.03c-0.37-0.04-0.8,0.07-0.97-0.45c-0.02-0.05-0.54-0.03-0.56,0.02c-0.12,0.49-0.5,0.38-0.83,0.43
			c-0.31,0.05-0.86,0.1-0.88,0.22c-0.11,0.67-0.66,0.56-1.05,0.64c-0.38,0.08-0.56,0.18-0.59,0.6c-0.03,0.42,0.05,0.96-0.63,1.02
			c-0.06,0.01-0.15,0.25-0.15,0.38c-0.01,1.07-0.02,2.13,0,3.2c0,0.15,0.15,0.42,0.26,0.44c0.45,0.06,0.46,0.37,0.5,0.71
			c0.05,0.4,0.04,0.87,0.67,0.82c0.05,0,0.15,0.05,0.16,0.1c0.18,0.74,0.78,0.74,1.36,0.81c0.12,0.01,0.25,0.15,0.32,0.26
			c0.28,0.41,1.99,0.68,2.18,0.26c0.31-0.67,0.83-0.46,1.3-0.56c0.17-0.04,0.45-0.14,0.45-0.23c0.03-0.39,0.2-0.53,0.57-0.55
			c0.12-0.01,0.29-0.15,0.33-0.26c0.15-0.52,0.95-0.62,0.83-1.3c0-0.02,0.17-0.05,0.22-0.11c0.15-0.17,0.36-0.33,0.39-0.53
			c0.07-0.4,0.08-0.83,0.05-1.24c-0.06-0.59,0.3-1.34-0.57-1.67c-0.06-0.02-0.06-0.2-0.09-0.3c-0.16-0.45,0.09-1.16-0.74-1.21
			c-0.03,0-0.09-0.11-0.08-0.16C65.88,103.54,65.53,103.47,65.03,103.49z"/>
		<path class="st0" d="M65.09,14.53c0.34,0,0.69-0.01,1.03,0.01c0.11,0.01,0.3,0.12,0.3,0.18c0,0.56,0.4,0.58,0.84,0.6
			c-0.04,0.55,0.16,0.86,0.77,0.76c0.09,0.45,0.09,0.97,0.78,0.76c0.05,0.28,0.09,0.49,0.13,0.73c0.21,0.04,0.41,0.08,0.66,0.13
			c0.04,0.19,0.08,0.4,0.13,0.65c0.22,0.04,0.44,0.09,0.7,0.13c0.04,0.2,0.09,0.41,0.14,0.66c0.19,0.04,0.4,0.08,0.62,0.13
			c0.07,0.4,0.09,0.86,0.67,0.84c0.04,0,0.13,0.08,0.13,0.13c-0.01,0.57,0.41,0.63,0.85,0.68c0.03,0.21,0.06,0.4,0.1,0.62
			c0.22,0.06,0.45,0.12,0.69,0.18c0.03,0.22,0.07,0.43,0.1,0.66c0.22,0.05,0.43,0.09,0.67,0.14c0.04,0.2,0.07,0.41,0.11,0.64
			c0.21,0.05,0.42,0.09,0.67,0.14c0.02,0.46,0.16,0.85,0.79,0.75c0.04,0.47,0.09,0.94,0.76,0.79c0.08,0.47,0.09,1.01,0.81,0.77
			c0.05,0.28,0.09,0.49,0.13,0.73c0.22,0.04,0.42,0.08,0.66,0.12c0.04,0.21,0.08,0.42,0.12,0.66c0.21,0.04,0.42,0.08,0.67,0.13
			c0.06,0.21,0.12,0.43,0.19,0.68c0.19,0.03,0.37,0.06,0.6,0.1c0.08,0.4,0.12,0.87,0.71,0.87c0.05,0,0.09,0.19,0.16,0.26
			c0.16,0.16,0.33,0.3,0.5,0.46c0.12,0.11,0.23,0.24,0.35,0.36c-0.14,0.09-0.27,0.24-0.41,0.27c-0.28,0.05-0.56,0.02-0.85,0.02
			c-9.94,0-19.87,0-29.81,0c-0.15,0-0.32,0.03-0.45-0.01c-0.12-0.04-0.27-0.15-0.3-0.25c-0.03-0.12,0.05-0.4,0.1-0.4
			c0.5-0.03,0.57-0.45,0.82-0.76c0.33-0.41,0.85-0.68,1.27-1.02c0.07-0.06,0.07-0.21,0.13-0.29c0.12-0.15,0.27-0.28,0.4-0.42
			c0.13-0.14,0.27-0.28,0.4-0.42c0.11-0.12,0.21-0.24,0.33-0.35c0.15-0.15,0.31-0.29,0.45-0.45c0.05-0.06,0.04-0.19,0.1-0.24
			c0.43-0.35,0.87-0.68,1.3-1.03c0.11-0.09,0.16-0.24,0.25-0.34c0.13-0.15,0.27-0.28,0.41-0.42c0.12-0.12,0.25-0.25,0.37-0.37
			c0.14-0.14,0.28-0.27,0.42-0.41c0.13-0.12,0.25-0.25,0.38-0.37c0.13-0.13,0.25-0.27,0.37-0.4c0.14-0.14,0.27-0.28,0.41-0.42
			c0.13-0.13,0.25-0.25,0.38-0.37c0.14-0.13,0.28-0.26,0.41-0.4c0.04-0.04,0.02-0.15,0.06-0.18c0.41-0.34,0.83-0.66,1.24-1
			c0.11-0.09,0.2-0.19,0.29-0.3c0.02-0.03,0-0.1,0.02-0.12c0.42-0.39,0.84-0.77,1.26-1.15c0.03-0.02,0.1,0,0.12-0.02
			c0.35-0.4,0.69-0.81,1.03-1.22c0.11-0.14,0.23-0.27,0.35-0.4c0.12-0.13,0.25-0.27,0.38-0.39c0.14-0.14,0.3-0.26,0.44-0.4
			c0.14-0.13,0.28-0.26,0.42-0.4c0.1-0.1,0.18-0.21,0.29-0.29c0.23-0.18,0.46-0.34,0.7-0.51C65.13,14.67,65.11,14.6,65.09,14.53z"/>
		<path class="st0" d="M88.3,29.28c-0.25-0.25-0.49-0.5-0.74-0.75c-0.05,0.04-0.1,0.08-0.15,0.12c-0.04-0.21-0.08-0.42-0.13-0.67
			c-0.2-0.04-0.4-0.09-0.64-0.14c-0.11-0.37-0.04-0.96-0.73-0.71c-0.25-0.35-0.05-1.08-0.56-0.88c-0.43-0.36-0.94-0.59-0.96-0.85
			c-0.05-0.78-1.18-0.55-1.13-1.36c0.01-0.08-0.39-0.18-0.66-0.29c-0.04-0.38-0.12-0.82-0.78-0.69c-0.04-0.49-0.15-0.9-0.79-0.78
			c-0.08-0.47-0.1-1-0.84-0.77c0.07-0.64-0.2-0.89-0.77-0.82c-0.04-0.42-0.04-0.86-0.62-0.8c-0.06,0.01-0.19-0.19-0.18-0.28
			c0.01-0.13,0.11-0.36,0.17-0.36c0.54,0.01,0.55-0.38,0.59-0.78c0.22-0.05,0.42-0.09,0.66-0.14c0.05-0.21,0.09-0.41,0.14-0.65
			c0.2-0.04,0.41-0.08,0.65-0.13c0.06-0.44,0.11-0.92,0.79-0.72c0.06-0.27,0.11-0.47,0.16-0.72c0.19-0.04,0.4-0.08,0.66-0.12
			c0.04-0.19,0.07-0.39,0.12-0.64c0.27-0.06,0.58-0.07,0.85-0.19c0.24-0.11,0.42-0.37,0.67-0.46c0.23-0.08,0.73-0.05,0.73-0.03
			c0.05,0.66,0.6,0.55,0.99,0.62c0.33,0.06,0.6,0.06,0.61,0.49c0,0.1,0.18,0.28,0.28,0.29c0.36,0.01,0.44,0.2,0.53,0.51
			c0.06,0.19,0.4,0.29,0.71,0.49c0.04,0.24,0.03,0.69,0.62,0.63c0.06-0.01,0.14,0.23,0.23,0.33c0.14,0.15,0.29,0.29,0.45,0.42
			c0.09,0.08,0.29,0.13,0.29,0.19c-0.01,0.59,0.41,0.62,0.86,0.62c0.04,0.26,0.07,0.49,0.1,0.72c0.36,0.16,0.98,0.03,0.72,0.76
			c0.28,0.08,0.51,0.14,0.73,0.21c-0.04,0.06-0.07,0.11-0.11,0.17c0.24,0.18,0.49,0.37,0.73,0.55c0.08,0.06,0.23,0.13,0.22,0.19
			c-0.05,0.56,0.34,0.62,0.78,0.66c-0.01,0.52,0.16,0.87,0.79,0.74c-0.03,0.59,0.17,0.92,0.79,0.79c-0.05,0.6,0.2,0.88,0.52,0.86
			c0.36,0.38,0.6,0.63,0.84,0.89c0.05-0.04,0.1-0.09,0.14-0.13c0.1,0.39,0.08,0.88,0.69,0.81c0.05-0.01,0.12,0.24,0.21,0.35
			c0.12,0.14,0.27,0.26,0.41,0.39c0.12,0.12,0.24,0.24,0.36,0.36c0.43,0.44,0.79,0.99,1.3,1.28c0.53,0.3,0.35,0.73,0.41,1.11
			c0.01,0.07-0.37,0.29-0.57,0.29c-3.07,0.02-6.14,0.01-9.22,0.01c-0.3,0-0.56,0.02-0.61-0.4c-0.02-0.12-0.25-0.27-0.41-0.31
			c-0.31-0.08-0.64-0.08-0.96-0.12C88.26,29.39,88.28,29.34,88.3,29.28z"/>
		<path class="st0" d="M91.99,93.1c0.04-0.34,0.06-0.64,0.11-0.94c0.02-0.13,0.11-0.36,0.18-0.37c0.71-0.06,0.58-0.6,0.58-1.02
			c0.01-3.4-0.01-6.8-0.01-10.2c0-0.88,0-0.88,0.91-0.88c0.82,0,1.64,0.02,2.47,0.01c0.44-0.01,0.54,0.19,0.55,0.6
			c0.03,1.5,0.08,3,0.12,4.51c0.01,0.35-0.03,0.69,0.39,0.88c0.12,0.05,0.18,0.33,0.19,0.51c0.03,2.13,0.05,4.27,0.07,6.41
			c0,0.34-0.01,0.64-0.43,0.77c-0.11,0.03-0.19,0.27-0.22,0.42c-0.08,0.38-0.14,0.77-0.18,1.16c-0.03,0.31-0.07,0.55-0.47,0.57
			c-0.1,0-0.28,0.13-0.29,0.21c-0.04,0.72-0.66,0.54-1.05,0.71c-0.2,0.09-0.34,0.28-0.52,0.41c-0.16,0.11-0.31,0.25-0.49,0.31
			c-0.41,0.13-0.91,0.05-1.04,0.68c-0.03,0.13-0.47,0.18-0.78,0.29c-0.03,0.16-0.06,0.36-0.1,0.6c-0.22,0.03-0.43,0.05-0.69,0.09
			c0,0.56-0.29,0.81-0.86,0.77c-0.48-0.04-0.9,0.05-0.76,0.72c-0.27,0.04-0.48,0.07-0.68,0.1c-0.14,0.24-0.24,0.64-0.4,0.67
			c-0.61,0.12-1.25,0.12-1.88,0.14c-0.07,0-0.2-0.14-0.21-0.21c-0.02-0.42-0.23-0.58-0.64-0.67c-0.14-0.03-0.2-0.42-0.32-0.7
			c-0.63,0.06-0.6-0.4-0.62-0.89c-0.02-0.52,0.16-0.78,0.7-0.74c0.04-0.25,0.08-0.46,0.12-0.69c0.38-0.09,0.9,0.04,0.89-0.61
			c0-0.07,0.34-0.16,0.54-0.22c0.36-0.11,0.88,0.03,0.89-0.61c0-0.08,0.18-0.22,0.27-0.21c0.5,0.04,0.65-0.24,0.63-0.68
			c0.34-0.07,0.65-0.14,0.97-0.21c0.06-0.01,0.16,0.01,0.19-0.03c0.33-0.38,0.76-0.67,1.08-1.04C91.54,93.34,91.43,93.24,91.99,93.1
			z"/>
	</g>
</g>
</svg>
