<svg xmlns="http://www.w3.org/2000/svg" width="360" height="540" viewbox="0 0 360 540" preserveAspectRatio="none"><rect x="0" y="0" width="100%" height="100%" fill="rgb(233, 233, 233)" /><path d="M0 34 C 63 0, 117 0, 180 34 S 297 68, 360 34 S 477 0, 540, 34" fill="none" stroke="#222" style="opacity:0.13266666666667;stroke-width:15px;" transform="translate(-90, -51)" /><path d="M0 34 C 63 0, 117 0, 180 34 S 297 68, 360 34 S 477 0, 540, 34" fill="none" stroke="#222" style="opacity:0.13266666666667;stroke-width:15px;" transform="translate(-90, 489)" /><path d="M0 34 C 63 0, 117 0, 180 34 S 297 68, 360 34 S 477 0, 540, 34" fill="none" stroke="#222" style="opacity:0.028666666666667;stroke-width:15px;" transform="translate(-90, -36)" /><path d="M0 34 C 63 0, 117 0, 180 34 S 297 68, 360 34 S 477 0, 540, 34" fill="none" stroke="#222" style="opacity:0.028666666666667;stroke-width:15px;" transform="translate(-90, 504)" /><path d="M0 34 C 63 0, 117 0, 180 34 S 297 68, 360 34 S 477 0, 540, 34" fill="none" stroke="#222" style="opacity:0.080666666666667;stroke-width:15px;" transform="translate(-90, -21)" /><path d="M0 34 C 63 0, 117 0, 180 34 S 297 68, 360 34 S 477 0, 540, 34" fill="none" stroke="#222" style="opacity:0.080666666666667;stroke-width:15px;" transform="translate(-90, 519)" /><path d="M0 34 C 63 0, 117 0, 180 34 S 297 68, 360 34 S 477 0, 540, 34" fill="none" stroke="#ddd" style="opacity:0.124;stroke-width:15px;" transform="translate(-90, -6)" /><path d="M0 34 C 63 0, 117 0, 180 34 S 297 68, 360 34 S 477 0, 540, 34" fill="none" stroke="#ddd" style="opacity:0.124;stroke-width:15px;" transform="translate(-90, 534)" /><path d="M0 34 C 63 0, 117 0, 180 34 S 297 68, 360 34 S 477 0, 540, 34" fill="none" stroke="#222" style="opacity:0.063333333333333;stroke-width:15px;" transform="translate(-90, 9)" /><path d="M0 34 C 63 0, 117 0, 180 34 S 297 68, 360 34 S 477 0, 540, 34" fill="none" stroke="#222" style="opacity:0.063333333333333;stroke-width:15px;" transform="translate(-90, 549)" /><path d="M0 34 C 63 0, 117 0, 180 34 S 297 68, 360 34 S 477 0, 540, 34" fill="none" stroke="#222" style="opacity:0.063333333333333;stroke-width:15px;" transform="translate(-90, 24)" /><path d="M0 34 C 63 0, 117 0, 180 34 S 297 68, 360 34 S 477 0, 540, 34" fill="none" stroke="#222" style="opacity:0.063333333333333;stroke-width:15px;" transform="translate(-90, 564)" /><path d="M0 34 C 63 0, 117 0, 180 34 S 297 68, 360 34 S 477 0, 540, 34" fill="none" stroke="#222" style="opacity:0.080666666666667;stroke-width:15px;" transform="translate(-90, 39)" /><path d="M0 34 C 63 0, 117 0, 180 34 S 297 68, 360 34 S 477 0, 540, 34" fill="none" stroke="#222" style="opacity:0.080666666666667;stroke-width:15px;" transform="translate(-90, 579)" /><path d="M0 34 C 63 0, 117 0, 180 34 S 297 68, 360 34 S 477 0, 540, 34" fill="none" stroke="#222" style="opacity:0.11533333333333;stroke-width:15px;" transform="translate(-90, 54)" /><path d="M0 34 C 63 0, 117 0, 180 34 S 297 68, 360 34 S 477 0, 540, 34" fill="none" stroke="#222" style="opacity:0.11533333333333;stroke-width:15px;" transform="translate(-90, 594)" /><path d="M0 34 C 63 0, 117 0, 180 34 S 297 68, 360 34 S 477 0, 540, 34" fill="none" stroke="#222" style="opacity:0.098;stroke-width:15px;" transform="translate(-90, 69)" /><path d="M0 34 C 63 0, 117 0, 180 34 S 297 68, 360 34 S 477 0, 540, 34" fill="none" stroke="#222" style="opacity:0.098;stroke-width:15px;" transform="translate(-90, 609)" /><path d="M0 34 C 63 0, 117 0, 180 34 S 297 68, 360 34 S 477 0, 540, 34" fill="none" stroke="#222" style="opacity:0.13266666666667;stroke-width:15px;" transform="translate(-90, 84)" /><path d="M0 34 C 63 0, 117 0, 180 34 S 297 68, 360 34 S 477 0, 540, 34" fill="none" stroke="#222" style="opacity:0.13266666666667;stroke-width:15px;" transform="translate(-90, 624)" /><path d="M0 34 C 63 0, 117 0, 180 34 S 297 68, 360 34 S 477 0, 540, 34" fill="none" stroke="#222" style="opacity:0.11533333333333;stroke-width:15px;" transform="translate(-90, 99)" /><path d="M0 34 C 63 0, 117 0, 180 34 S 297 68, 360 34 S 477 0, 540, 34" fill="none" stroke="#222" style="opacity:0.11533333333333;stroke-width:15px;" transform="translate(-90, 639)" /><path d="M0 34 C 63 0, 117 0, 180 34 S 297 68, 360 34 S 477 0, 540, 34" fill="none" stroke="#ddd" style="opacity:0.02;stroke-width:15px;" transform="translate(-90, 114)" /><path d="M0 34 C 63 0, 117 0, 180 34 S 297 68, 360 34 S 477 0, 540, 34" fill="none" stroke="#ddd" style="opacity:0.02;stroke-width:15px;" transform="translate(-90, 654)" /><path d="M0 34 C 63 0, 117 0, 180 34 S 297 68, 360 34 S 477 0, 540, 34" fill="none" stroke="#222" style="opacity:0.15;stroke-width:15px;" transform="translate(-90, 129)" /><path d="M0 34 C 63 0, 117 0, 180 34 S 297 68, 360 34 S 477 0, 540, 34" fill="none" stroke="#222" style="opacity:0.15;stroke-width:15px;" transform="translate(-90, 669)" /><path d="M0 34 C 63 0, 117 0, 180 34 S 297 68, 360 34 S 477 0, 540, 34" fill="none" stroke="#ddd" style="opacity:0.072;stroke-width:15px;" transform="translate(-90, 144)" /><path d="M0 34 C 63 0, 117 0, 180 34 S 297 68, 360 34 S 477 0, 540, 34" fill="none" stroke="#ddd" style="opacity:0.072;stroke-width:15px;" transform="translate(-90, 684)" /><path d="M0 34 C 63 0, 117 0, 180 34 S 297 68, 360 34 S 477 0, 540, 34" fill="none" stroke="#222" style="opacity:0.046;stroke-width:15px;" transform="translate(-90, 159)" /><path d="M0 34 C 63 0, 117 0, 180 34 S 297 68, 360 34 S 477 0, 540, 34" fill="none" stroke="#222" style="opacity:0.046;stroke-width:15px;" transform="translate(-90, 699)" /><path d="M0 34 C 63 0, 117 0, 180 34 S 297 68, 360 34 S 477 0, 540, 34" fill="none" stroke="#222" style="opacity:0.080666666666667;stroke-width:15px;" transform="translate(-90, 174)" /><path d="M0 34 C 63 0, 117 0, 180 34 S 297 68, 360 34 S 477 0, 540, 34" fill="none" stroke="#222" style="opacity:0.080666666666667;stroke-width:15px;" transform="translate(-90, 714)" /><path d="M0 34 C 63 0, 117 0, 180 34 S 297 68, 360 34 S 477 0, 540, 34" fill="none" stroke="#222" style="opacity:0.063333333333333;stroke-width:15px;" transform="translate(-90, 189)" /><path d="M0 34 C 63 0, 117 0, 180 34 S 297 68, 360 34 S 477 0, 540, 34" fill="none" stroke="#222" style="opacity:0.063333333333333;stroke-width:15px;" transform="translate(-90, 729)" /><path d="M0 34 C 63 0, 117 0, 180 34 S 297 68, 360 34 S 477 0, 540, 34" fill="none" stroke="#222" style="opacity:0.11533333333333;stroke-width:15px;" transform="translate(-90, 204)" /><path d="M0 34 C 63 0, 117 0, 180 34 S 297 68, 360 34 S 477 0, 540, 34" fill="none" stroke="#222" style="opacity:0.11533333333333;stroke-width:15px;" transform="translate(-90, 744)" /><path d="M0 34 C 63 0, 117 0, 180 34 S 297 68, 360 34 S 477 0, 540, 34" fill="none" stroke="#222" style="opacity:0.080666666666667;stroke-width:15px;" transform="translate(-90, 219)" /><path d="M0 34 C 63 0, 117 0, 180 34 S 297 68, 360 34 S 477 0, 540, 34" fill="none" stroke="#222" style="opacity:0.080666666666667;stroke-width:15px;" transform="translate(-90, 759)" /><path d="M0 34 C 63 0, 117 0, 180 34 S 297 68, 360 34 S 477 0, 540, 34" fill="none" stroke="#222" style="opacity:0.098;stroke-width:15px;" transform="translate(-90, 234)" /><path d="M0 34 C 63 0, 117 0, 180 34 S 297 68, 360 34 S 477 0, 540, 34" fill="none" stroke="#222" style="opacity:0.098;stroke-width:15px;" transform="translate(-90, 774)" /><path d="M0 34 C 63 0, 117 0, 180 34 S 297 68, 360 34 S 477 0, 540, 34" fill="none" stroke="#ddd" style="opacity:0.054666666666667;stroke-width:15px;" transform="translate(-90, 249)" /><path d="M0 34 C 63 0, 117 0, 180 34 S 297 68, 360 34 S 477 0, 540, 34" fill="none" stroke="#ddd" style="opacity:0.054666666666667;stroke-width:15px;" transform="translate(-90, 789)" /><path d="M0 34 C 63 0, 117 0, 180 34 S 297 68, 360 34 S 477 0, 540, 34" fill="none" stroke="#222" style="opacity:0.11533333333333;stroke-width:15px;" transform="translate(-90, 264)" /><path d="M0 34 C 63 0, 117 0, 180 34 S 297 68, 360 34 S 477 0, 540, 34" fill="none" stroke="#222" style="opacity:0.11533333333333;stroke-width:15px;" transform="translate(-90, 804)" /><path d="M0 34 C 63 0, 117 0, 180 34 S 297 68, 360 34 S 477 0, 540, 34" fill="none" stroke="#ddd" style="opacity:0.089333333333333;stroke-width:15px;" transform="translate(-90, 279)" /><path d="M0 34 C 63 0, 117 0, 180 34 S 297 68, 360 34 S 477 0, 540, 34" fill="none" stroke="#ddd" style="opacity:0.089333333333333;stroke-width:15px;" transform="translate(-90, 819)" /><path d="M0 34 C 63 0, 117 0, 180 34 S 297 68, 360 34 S 477 0, 540, 34" fill="none" stroke="#222" style="opacity:0.046;stroke-width:15px;" transform="translate(-90, 294)" /><path d="M0 34 C 63 0, 117 0, 180 34 S 297 68, 360 34 S 477 0, 540, 34" fill="none" stroke="#222" style="opacity:0.046;stroke-width:15px;" transform="translate(-90, 834)" /><path d="M0 34 C 63 0, 117 0, 180 34 S 297 68, 360 34 S 477 0, 540, 34" fill="none" stroke="#222" style="opacity:0.11533333333333;stroke-width:15px;" transform="translate(-90, 309)" /><path d="M0 34 C 63 0, 117 0, 180 34 S 297 68, 360 34 S 477 0, 540, 34" fill="none" stroke="#222" style="opacity:0.11533333333333;stroke-width:15px;" transform="translate(-90, 849)" /><path d="M0 34 C 63 0, 117 0, 180 34 S 297 68, 360 34 S 477 0, 540, 34" fill="none" stroke="#222" style="opacity:0.063333333333333;stroke-width:15px;" transform="translate(-90, 324)" /><path d="M0 34 C 63 0, 117 0, 180 34 S 297 68, 360 34 S 477 0, 540, 34" fill="none" stroke="#222" style="opacity:0.063333333333333;stroke-width:15px;" transform="translate(-90, 864)" /><path d="M0 34 C 63 0, 117 0, 180 34 S 297 68, 360 34 S 477 0, 540, 34" fill="none" stroke="#ddd" style="opacity:0.10666666666667;stroke-width:15px;" transform="translate(-90, 339)" /><path d="M0 34 C 63 0, 117 0, 180 34 S 297 68, 360 34 S 477 0, 540, 34" fill="none" stroke="#ddd" style="opacity:0.10666666666667;stroke-width:15px;" transform="translate(-90, 879)" /><path d="M0 34 C 63 0, 117 0, 180 34 S 297 68, 360 34 S 477 0, 540, 34" fill="none" stroke="#222" style="opacity:0.13266666666667;stroke-width:15px;" transform="translate(-90, 354)" /><path d="M0 34 C 63 0, 117 0, 180 34 S 297 68, 360 34 S 477 0, 540, 34" fill="none" stroke="#222" style="opacity:0.13266666666667;stroke-width:15px;" transform="translate(-90, 894)" /><path d="M0 34 C 63 0, 117 0, 180 34 S 297 68, 360 34 S 477 0, 540, 34" fill="none" stroke="#222" style="opacity:0.028666666666667;stroke-width:15px;" transform="translate(-90, 369)" /><path d="M0 34 C 63 0, 117 0, 180 34 S 297 68, 360 34 S 477 0, 540, 34" fill="none" stroke="#222" style="opacity:0.028666666666667;stroke-width:15px;" transform="translate(-90, 909)" /><path d="M0 34 C 63 0, 117 0, 180 34 S 297 68, 360 34 S 477 0, 540, 34" fill="none" stroke="#222" style="opacity:0.098;stroke-width:15px;" transform="translate(-90, 384)" /><path d="M0 34 C 63 0, 117 0, 180 34 S 297 68, 360 34 S 477 0, 540, 34" fill="none" stroke="#222" style="opacity:0.098;stroke-width:15px;" transform="translate(-90, 924)" /><path d="M0 34 C 63 0, 117 0, 180 34 S 297 68, 360 34 S 477 0, 540, 34" fill="none" stroke="#ddd" style="opacity:0.14133333333333;stroke-width:15px;" transform="translate(-90, 399)" /><path d="M0 34 C 63 0, 117 0, 180 34 S 297 68, 360 34 S 477 0, 540, 34" fill="none" stroke="#ddd" style="opacity:0.14133333333333;stroke-width:15px;" transform="translate(-90, 939)" /><path d="M0 34 C 63 0, 117 0, 180 34 S 297 68, 360 34 S 477 0, 540, 34" fill="none" stroke="#ddd" style="opacity:0.10666666666667;stroke-width:15px;" transform="translate(-90, 414)" /><path d="M0 34 C 63 0, 117 0, 180 34 S 297 68, 360 34 S 477 0, 540, 34" fill="none" stroke="#ddd" style="opacity:0.10666666666667;stroke-width:15px;" transform="translate(-90, 954)" /><path d="M0 34 C 63 0, 117 0, 180 34 S 297 68, 360 34 S 477 0, 540, 34" fill="none" stroke="#222" style="opacity:0.046;stroke-width:15px;" transform="translate(-90, 429)" /><path d="M0 34 C 63 0, 117 0, 180 34 S 297 68, 360 34 S 477 0, 540, 34" fill="none" stroke="#222" style="opacity:0.046;stroke-width:15px;" transform="translate(-90, 969)" /><path d="M0 34 C 63 0, 117 0, 180 34 S 297 68, 360 34 S 477 0, 540, 34" fill="none" stroke="#ddd" style="opacity:0.054666666666667;stroke-width:15px;" transform="translate(-90, 444)" /><path d="M0 34 C 63 0, 117 0, 180 34 S 297 68, 360 34 S 477 0, 540, 34" fill="none" stroke="#ddd" style="opacity:0.054666666666667;stroke-width:15px;" transform="translate(-90, 984)" /><path d="M0 34 C 63 0, 117 0, 180 34 S 297 68, 360 34 S 477 0, 540, 34" fill="none" stroke="#222" style="opacity:0.063333333333333;stroke-width:15px;" transform="translate(-90, 459)" /><path d="M0 34 C 63 0, 117 0, 180 34 S 297 68, 360 34 S 477 0, 540, 34" fill="none" stroke="#222" style="opacity:0.063333333333333;stroke-width:15px;" transform="translate(-90, 999)" /><path d="M0 34 C 63 0, 117 0, 180 34 S 297 68, 360 34 S 477 0, 540, 34" fill="none" stroke="#222" style="opacity:0.098;stroke-width:15px;" transform="translate(-90, 474)" /><path d="M0 34 C 63 0, 117 0, 180 34 S 297 68, 360 34 S 477 0, 540, 34" fill="none" stroke="#222" style="opacity:0.098;stroke-width:15px;" transform="translate(-90, 1014)" /></svg>