<svg width="256" height="72" viewBox="0 0 256 72" fill="none" xmlns="http://www.w3.org/2000/svg">
<g clip-path="url(#clip0_192_247)">
<path d="M39.4665 26.9164L0 16.7599V40.2625L39.4665 26.9164Z" fill="#343D3A"/>
<path d="M1.24658 45.2907L40.0866 31.4944V54.9907L1.24658 45.2907Z" fill="#343D3A"/>
</g>
<path d="M74.2764 60.6063C69.1429 60.6063 65.1209 59.1916 62.2106 56.3621C59.3002 53.5325 57.845 49.6521 57.845 44.7206C57.845 41.5273 58.4716 38.7382 59.7246 36.3534C60.9777 33.9685 62.7158 32.1091 64.939 30.7752C67.2026 29.4413 69.8301 28.7743 72.8213 28.7743C75.772 28.7743 78.2377 29.4008 80.2184 30.6539C82.1991 31.907 83.6947 33.6653 84.7052 35.9289C85.7562 38.1925 86.2817 40.8402 86.2817 43.8718V45.8726H63.9689V41.8709H80.8854L79.8546 42.7198C79.8546 39.8902 79.2483 37.7277 78.0356 36.2321C76.8634 34.7365 75.1455 33.9887 72.8819 33.9887C70.3757 33.9887 68.4355 34.878 67.0612 36.6565C65.7273 38.4351 65.0603 40.921 65.0603 44.1143V44.9025C65.0603 48.2171 65.8687 50.703 67.4856 52.3603C69.1429 53.9772 71.4671 54.7856 74.4583 54.7856C76.1965 54.7856 77.8133 54.5633 79.3089 54.1187C80.8449 53.6336 82.3001 52.8656 83.6745 51.8146L85.9179 56.9077C84.4627 58.08 82.7245 58.9895 80.7035 59.6362C78.6824 60.283 76.54 60.6063 74.2764 60.6063ZM94.0484 60V17.2541H101.87V36.1715H101.991L120.605 17.2541H130.064L107.751 39.5062L107.812 36.1108L131.519 60H121.757L101.991 40.2338H101.87V60H94.0484ZM147.621 60.6063C144.468 60.6063 141.74 59.9596 139.436 58.6661C137.132 57.3726 135.333 55.5334 134.039 53.1485C132.786 50.7637 132.16 47.9341 132.16 44.66C132.16 41.3858 132.786 38.5765 134.039 36.2321C135.333 33.8472 137.132 32.008 139.436 30.7145C141.74 29.421 144.468 28.7743 147.621 28.7743C150.774 28.7743 153.502 29.421 155.806 30.7145C158.151 32.008 159.95 33.8472 161.203 36.2321C162.496 38.5765 163.143 41.3858 163.143 44.66C163.143 47.9341 162.496 50.7637 161.203 53.1485C159.95 55.5334 158.151 57.3726 155.806 58.6661C153.502 59.9596 150.774 60.6063 147.621 60.6063ZM147.621 54.7856C150.006 54.7856 151.906 53.957 153.32 52.2997C154.735 50.602 155.443 48.0554 155.443 44.66C155.443 41.2646 154.735 38.7382 153.32 37.0809C151.906 35.4237 150.006 34.595 147.621 34.595C145.236 34.595 143.336 35.4237 141.922 37.0809C140.507 38.7382 139.799 41.2646 139.799 44.66C139.799 48.0554 140.507 50.602 141.922 52.2997C143.336 53.957 145.236 54.7856 147.621 54.7856ZM170.421 60V37.0203C170.421 35.7672 170.381 34.494 170.3 33.2005C170.219 31.907 170.098 30.6337 169.936 29.3806H177.273L177.879 35.4439H177.151C178 33.3419 179.294 31.7049 181.032 30.5326C182.81 29.3604 184.912 28.7743 187.338 28.7743C189.763 28.7743 191.764 29.3604 193.34 30.5326C194.957 31.6644 196.089 33.443 196.736 35.8683H195.766C196.614 33.6855 198.009 31.9676 199.949 30.7145C201.889 29.421 204.113 28.7743 206.619 28.7743C210.055 28.7743 212.621 29.7848 214.319 31.8059C216.017 33.827 216.866 36.9799 216.866 41.2646V60H209.287V41.5677C209.287 39.1424 208.882 37.4043 208.074 36.3534C207.265 35.262 205.972 34.7163 204.193 34.7163C202.092 34.7163 200.434 35.4641 199.222 36.9597C198.009 38.4149 197.403 40.3955 197.403 42.9017V60H189.824V41.5677C189.824 39.1424 189.419 37.4043 188.611 36.3534C187.802 35.262 186.509 34.7163 184.73 34.7163C182.629 34.7163 180.971 35.4641 179.759 36.9597C178.586 38.4149 178 40.3955 178 42.9017V60H170.421ZM225.697 60V37.0203C225.697 35.7672 225.657 34.494 225.576 33.2005C225.495 31.907 225.374 30.6337 225.212 29.3806H232.549L233.155 35.4439H232.427C233.397 33.3015 234.832 31.6644 236.732 30.5326C238.632 29.3604 240.835 28.7743 243.341 28.7743C246.939 28.7743 249.647 29.7848 251.466 31.8059C253.285 33.827 254.194 36.9799 254.194 41.2646V60H246.615V41.6284C246.615 39.1627 246.13 37.4043 245.16 36.3534C244.23 35.262 242.816 34.7163 240.916 34.7163C238.571 34.7163 236.712 35.4439 235.338 36.899C233.963 38.3542 233.276 40.2945 233.276 42.7198V60H225.697Z" fill="#343D3A"/>
<defs>
<clipPath id="clip0_192_247">
<rect width="40.0867" height="38.2309" fill="white" transform="translate(0 16.7599)"/>
</clipPath>
</defs>
</svg>
